<?xml version="1.0" encoding="utf-8"?>
<!-- Generator: Adobe Illustrator 26.0.1, SVG Export Plug-In . SVG Version: 6.00 Build 0)  -->
<svg version="1.1" id="Layer_1" xmlns="http://www.w3.org/2000/svg" xmlns:xlink="http://www.w3.org/1999/xlink" x="0px" y="0px"
	 viewBox="0 0 270 40" style="enable-background:new 0 0 270 40;" xml:space="preserve">
<style type="text/css">
	.st0{clip-path:url(#SVGID_00000014605623213548906830000006252175483384719511_);}
	.st1{fill:#FFDA7B;}
	.st2{clip-path:url(#SVGID_00000031912111437531233860000014693966170943520398_);}
	.st3{clip-path:url(#SVGID_00000036211162782005149710000013325157425837542046_);}
	.st4{clip-path:url(#SVGID_00000136379784651972101900000016817318606757308809_);}
</style>
<g>
	<defs>
		<rect id="SVGID_1_" x="171.41" y="-0.08" width="40" height="40"/>
	</defs>
	<clipPath id="SVGID_00000006676144486657985920000014225137088611628457_">
		<use xlink:href="#SVGID_1_"  style="overflow:visible;"/>
	</clipPath>
	<g style="clip-path:url(#SVGID_00000006676144486657985920000014225137088611628457_);">
		<path class="st1" d="M184.77,33.79c-0.69-0.33-1.51-0.19-1.86,0.54c-0.66,1.36,1.4,2.07,1.04,2.81c-0.14,0.3-0.52,0.35-0.87,0.18
			c-0.36-0.18-0.57-0.46-0.73-0.85c-0.03-0.07-0.08-0.08-0.13-0.06l-0.54,0.21c-0.06,0.02-0.08,0.07-0.07,0.12
			c0.08,0.47,0.48,1.03,1.09,1.33c0.73,0.35,1.66,0.25,2.04-0.53c0.7-1.45-1.4-2.08-1.05-2.82c0.12-0.24,0.4-0.33,0.73-0.17
			c0.3,0.14,0.45,0.35,0.64,0.72c0.03,0.06,0.07,0.07,0.13,0.04l0.52-0.24c0.06-0.03,0.08-0.07,0.05-0.13
			C185.61,34.46,185.29,34.04,184.77,33.79z"/>
		<path class="st1" d="M189.36,35.17c-1.3-0.17-2.5,0.73-2.68,2.05c-0.18,1.31,0.75,2.5,2.04,2.68c1.3,0.17,2.5-0.73,2.68-2.04
			C191.58,36.54,190.66,35.35,189.36,35.17z M190.49,37.73c-0.11,0.84-0.83,1.4-1.65,1.29c-0.82-0.11-1.36-0.84-1.25-1.68
			c0.11-0.85,0.83-1.4,1.65-1.29C190.06,36.16,190.6,36.89,190.49,37.73L190.49,37.73z"/>
		<path class="st1" d="M195.6,34.88L194.87,35c-0.05,0.01-0.09,0.04-0.11,0.08l-0.62,1.67l-1.12-1.39
			c-0.03-0.04-0.08-0.05-0.13-0.05l-0.74,0.12c-0.08,0.01-0.1,0.06-0.05,0.13l1.72,2.09l0.33,2.05c0.01,0.06,0.05,0.09,0.11,0.08
			l0.7-0.11c0.06-0.01,0.09-0.05,0.08-0.11l-0.33-2.02l0.96-2.55C195.71,34.91,195.68,34.87,195.6,34.88L195.6,34.88z"/>
		<path class="st1" d="M198.08,33.93c-0.04-0.04-0.1-0.04-0.15-0.02l-0.6,0.27c-0.05,0.02-0.07,0.06-0.07,0.12l0.35,4.71
			c0,0.07,0.05,0.1,0.12,0.07l0.67-0.3c0.05-0.02,0.08-0.06,0.07-0.12l-0.08-0.83l1.58-0.71l0.56,0.61
			c0.04,0.04,0.09,0.05,0.13,0.03l0.67-0.3c0.07-0.03,0.08-0.09,0.03-0.13L198.08,33.93z M198.31,37.06l-0.19-1.95l1.33,1.44
			L198.31,37.06z"/>
		<path class="st1" d="M187.01,5.18l0.71-0.12c0.06-0.01,0.09-0.06,0.08-0.12l-0.54-3.12l2.33,2.84c0.03,0.04,0.08,0.05,0.13,0.05
			l0.82-0.14c0.06-0.01,0.09-0.06,0.08-0.12l-0.77-4.44c-0.01-0.06-0.06-0.09-0.12-0.08l-0.71,0.12c-0.06,0.01-0.09,0.06-0.08,0.12
			l0.54,3.12l-2.33-2.84c-0.03-0.04-0.08-0.05-0.13-0.04l-0.82,0.14c-0.06,0.01-0.09,0.06-0.08,0.12l0.77,4.45
			C186.9,5.15,186.95,5.19,187.01,5.18L187.01,5.18z"/>
		<path class="st1" d="M193.82,4.92c1.32,0.21,2.56-0.69,2.77-2.02c0.21-1.34-0.7-2.57-2.02-2.78c-1.32-0.21-2.56,0.69-2.77,2.02
			C191.59,3.48,192.5,4.72,193.82,4.92L193.82,4.92z M192.73,2.3c0.13-0.86,0.88-1.41,1.71-1.28s1.37,0.88,1.23,1.74
			c-0.13,0.85-0.87,1.4-1.71,1.27C193.12,3.9,192.59,3.15,192.73,2.3z"/>
		<path class="st1" d="M181.74,10.46c-0.13,0.13-0.13,0.35,0,0.48l5.47,5.46c0.13-0.06,0.25-0.14,0.37-0.26
			c0.05-0.06,0.11-0.11,0.16-0.17l-5.51-5.52C182.09,10.33,181.87,10.33,181.74,10.46L181.74,10.46z"/>
		<path class="st1" d="M200.82,29.88c0.09,0,0.17-0.03,0.24-0.1c0.13-0.13,0.13-0.35,0-0.48l-3.9-3.9c-0.18,0.14-0.37,0.27-0.56,0.4
			l3.98,3.98C200.65,29.85,200.73,29.88,200.82,29.88z"/>
		<path class="st1" d="M197.8,18.36c0.22,0,0.45-0.05,0.66-0.15c0.81-0.38,1.33-1.36,1.23-2.3l-0.01-0.06
			c-0.07-0.56-0.37-0.99-0.82-1.21c-0.45-0.21-0.98-0.16-1.44,0.14c-0.8,0.51-1.21,1.58-0.96,2.49c0.12,0.44,0.4,0.78,0.77,0.96
			C197.41,18.32,197.61,18.36,197.8,18.36z M197.79,15.35c0.17-0.11,0.34-0.16,0.5-0.16c0.1,0,0.2,0.02,0.29,0.06
			c0.24,0.11,0.39,0.36,0.44,0.7c0,0,0,0.02,0,0.03c0.07,0.63-0.31,1.35-0.84,1.6c-0.23,0.11-0.47,0.12-0.66,0.03
			s-0.34-0.27-0.41-0.52C196.95,16.48,197.25,15.7,197.79,15.35L197.79,15.35z"/>
		<path class="st1" d="M197.78,23.05c0.37-0.6,0.64-1.27,0.89-2.19c0.09-0.35,0.24-0.66,0.44-0.95l0.09-0.12
			c0.27-0.38,0.54-0.76,0.79-1.16c0.51-0.79,0.8-1.54,0.9-2.31c0.02-0.15,0.03-0.3,0.03-0.45l0.01-0.2c0-0.02,0-0.04,0-0.06
			l-0.11-1.01c0-0.03-0.01-0.05-0.02-0.08l-0.02-0.04l-0.02-0.04c-0.03-0.12-0.07-0.25-0.1-0.38c-0.07-0.29-0.15-0.58-0.25-0.87
			c-0.12-0.35-0.28-0.68-0.45-1.01c-0.04-0.07-0.14-0.28-0.37-0.32c-0.23-0.04-0.4,0.12-0.47,0.18c-0.05,0.05-0.11,0.1-0.16,0.16
			c-0.09,0.03-0.18,0.06-0.27,0.11c-0.38,0.19-0.77,0.23-1.21,0.12c-1.07-0.25-2.08,0.04-2.93,0.84c-0.33,0.31-0.62,0.66-0.89,1
			l-0.12,0.15c-0.41,0.5-0.89,0.76-1.48,0.79c-0.23,0.01-0.46,0.04-0.69,0.06c-0.88,0.1-1.57,0.36-2.12,0.8
			c-0.3,0.24-0.59,0.51-0.86,0.8c-0.37,0.41-0.82,0.64-1.38,0.7c-0.16,0.02-0.31,0.03-0.47,0.04l-0.63,0.04
			c-0.33,0.02-0.66,0.04-0.99,0.07c-0.98,0.1-1.8,0.56-2.43,1.38c-0.24,0.32-0.47,0.64-0.7,0.96l-0.23,0.32
			c-0.22,0.31-0.5,0.51-0.87,0.61c-0.13,0.04-0.27,0.07-0.39,0.12c-0.25,0.09-0.32,0.26-0.34,0.35c-0.02,0.09-0.02,0.27,0.18,0.45
			c0.04,0.04,0.1,0.08,0.18,0.12c0.11,0.06,0.22,0.12,0.34,0.18c0.27,0.15,0.55,0.3,0.84,0.43c1,0.44,1.85,0.73,2.68,0.92
			c0.41,0.09,0.78,0.14,1.12,0.14c0.37,0,0.71-0.05,1.03-0.16c0.53-0.17,1.03-0.4,1.5-0.61c0.69-0.32,1.24-0.49,1.78-0.54l0.28-0.03
			c0.21-0.02,0.42-0.04,0.63-0.06c-0.13,0.08-0.27,0.16-0.4,0.23l-0.55,0.31c-0.29,0.16-0.58,0.32-0.86,0.5
			c-0.84,0.52-1.37,1.29-1.58,2.3c-0.08,0.39-0.15,0.78-0.21,1.17l-0.07,0.39c-0.07,0.38-0.23,0.67-0.52,0.93
			c-0.1,0.09-0.2,0.18-0.3,0.28c-0.19,0.19-0.17,0.37-0.15,0.46c0.02,0.09,0.1,0.25,0.36,0.32c0.05,0.01,0.13,0.03,0.21,0.04
			c0.13,0,0.25,0.01,0.38,0.01c0.23,0.01,0.46,0.02,0.69,0.02c0.09,0,0.17,0,0.26,0c1.09-0.04,1.99-0.15,2.81-0.35
			c0.84-0.2,1.45-0.5,1.93-0.96c0.4-0.39,0.77-0.83,1.08-1.21c0.48-0.59,0.91-0.98,1.37-1.27l0.22-0.14c0.2-0.12,0.4-0.25,0.6-0.37
			C196.62,24.52,197.28,23.86,197.78,23.05L197.78,23.05z M189.82,21.7l-0.28,0.03c-0.62,0.06-1.23,0.25-2,0.6
			c-0.45,0.21-0.93,0.42-1.43,0.58c-0.51,0.16-1.08,0.16-1.8,0c-0.79-0.18-1.6-0.45-2.55-0.88c-0.27-0.12-0.53-0.26-0.8-0.4l0,0
			c0.46-0.15,0.84-0.43,1.14-0.84l0.23-0.32c0.23-0.32,0.45-0.63,0.69-0.94c0.51-0.66,1.17-1.04,1.96-1.12
			c0.32-0.03,0.64-0.05,0.97-0.07l0.63-0.04c0.17-0.01,0.33-0.02,0.5-0.04c0.72-0.08,1.32-0.39,1.81-0.92
			c0.24-0.27,0.5-0.51,0.78-0.73c0.45-0.36,1.02-0.57,1.77-0.66c0.22-0.02,0.44-0.05,0.65-0.06c0.77-0.04,1.43-0.4,1.96-1.04
			l0.12-0.15c0.26-0.32,0.54-0.66,0.83-0.94c0.68-0.64,1.46-0.87,2.31-0.67c0.07,0.02,0.15,0.03,0.22,0.04
			c-0.04,0.01-0.08,0.03-0.12,0.04c-0.06,0.02-0.11,0.04-0.17,0.06c-0.07,0.02-0.13,0.05-0.19,0.08c-0.05,0.02-0.11,0.05-0.16,0.07
			c-0.06,0.03-0.12,0.07-0.18,0.1c-0.05,0.03-0.09,0.06-0.14,0.09c-0.06,0.04-0.11,0.09-0.17,0.13c-0.04,0.03-0.08,0.07-0.12,0.1
			c-0.05,0.05-0.1,0.1-0.16,0.16c-0.03,0.04-0.07,0.07-0.11,0.11c-0.05,0.06-0.1,0.13-0.15,0.19c-0.03,0.04-0.06,0.07-0.09,0.12
			c-0.05,0.08-0.1,0.16-0.14,0.24c-0.02,0.04-0.04,0.07-0.06,0.1c-0.06,0.12-0.12,0.25-0.17,0.38c-0.16,0.43-0.27,0.87-0.37,1.3
			l-0.04,0.17c-0.04,0.16-0.09,0.3-0.15,0.44c-0.18,0.4-0.45,0.71-0.84,0.92c-0.2,0.11-0.4,0.23-0.59,0.36
			c-0.75,0.47-1.26,1.01-1.56,1.65c-0.17,0.35-0.31,0.72-0.42,1.1c-0.03,0.1-0.07,0.18-0.1,0.27c-0.02,0.05-0.05,0.1-0.08,0.16
			c-0.27,0.07-0.53,0.11-0.78,0.13C190.28,21.65,190.05,21.68,189.82,21.7L189.82,21.7z M195.45,24.42
			c-0.21,0.12-0.41,0.25-0.61,0.38l-0.22,0.14c-0.53,0.33-1,0.76-1.53,1.41c-0.31,0.38-0.65,0.79-1.03,1.15
			c-0.39,0.37-0.9,0.62-1.62,0.79c-0.78,0.19-1.63,0.29-2.68,0.33c-0.29,0.01-0.59,0-0.89-0.01c0.35-0.33,0.57-0.75,0.66-1.25
			l0.07-0.4c0.07-0.38,0.13-0.77,0.21-1.15c0.17-0.82,0.6-1.45,1.27-1.86c0.27-0.17,0.55-0.32,0.83-0.48
			c0.14-0.08,0.28-0.16,0.42-0.24l0.13-0.07c0.15-0.08,0.29-0.17,0.44-0.26c0.38-0.24,0.67-0.54,0.89-0.9l0.01-0.01
			c0.01-0.01,0.01-0.02,0.02-0.03c0.06-0.09,0.11-0.19,0.15-0.29c0.06-0.13,0.11-0.26,0.15-0.39c0.1-0.35,0.23-0.68,0.38-0.99
			c0.19-0.39,0.47-0.74,0.87-1.05c0.13-0.11,0.28-0.21,0.44-0.31c0.19-0.12,0.37-0.23,0.56-0.34c0.68-0.38,1.12-0.98,1.31-1.79
			l0.04-0.18c0.1-0.41,0.2-0.83,0.34-1.22c0.29-0.77,0.78-1.28,1.47-1.52c0.1-0.03,0.2-0.06,0.31-0.09
			c0.49-0.11,0.88-0.33,1.21-0.66c0.07-0.07,0.15-0.14,0.21-0.23c0.03-0.03,0.06-0.06,0.09-0.09l0.06-0.06
			c0.01-0.01,0.02-0.03,0.03-0.04l0.01-0.01c0.12,0.25,0.24,0.49,0.32,0.74c0.09,0.26,0.16,0.53,0.23,0.82
			c0.03,0.13,0.07,0.26,0.1,0.39c0.01,0.03,0.02,0.06,0.04,0.1l0.11,0.94l-0.01,0.18c-0.01,0.13-0.01,0.26-0.03,0.4
			c-0.09,0.67-0.35,1.34-0.79,2.03c-0.25,0.39-0.51,0.76-0.78,1.13l-0.09,0.12c-0.25,0.35-0.43,0.74-0.54,1.16
			c-0.23,0.85-0.49,1.47-0.82,2.01C196.76,23.42,196.18,23.99,195.45,24.42z"/>
		<path class="st1" d="M196.06,19.9c-0.36-0.26-0.82-0.35-1.29-0.24c-0.5,0.11-0.93,0.38-1.28,0.79c-0.53,0.64-0.73,1.34-0.57,2.07
			c0.16,0.73,0.78,1.23,1.51,1.23c0.09,0,0.18-0.01,0.27-0.02c1.2-0.2,2.14-1.44,2.01-2.65C196.66,20.58,196.43,20.16,196.06,19.9
			L196.06,19.9z M194.59,23.05c-0.48,0.08-0.9-0.2-1.01-0.68c-0.11-0.53,0.02-1,0.43-1.49c0.25-0.3,0.55-0.49,0.9-0.56
			c0.08-0.02,0.16-0.03,0.24-0.03c0.19,0,0.37,0.05,0.52,0.16c0.21,0.15,0.33,0.39,0.37,0.69l0,0
			C196.13,22,195.44,22.91,194.59,23.05L194.59,23.05z"/>
		<path class="st1" d="M190.53,24.23c-0.91,0.14-1.57,0.67-1.91,1.53c-0.2,0.51-0.16,1.01,0.12,1.42c0.28,0.41,0.71,0.64,1.22,0.64
			c0.05,0,0.09,0,0.14-0.01h0.01c0.97-0.11,1.78-0.73,2.07-1.58c0.18-0.53,0.14-1-0.13-1.4C191.71,24.35,191.17,24.13,190.53,24.23z
			 M191.53,26.02c-0.2,0.59-0.81,1.04-1.5,1.12c-0.22,0.02-0.52-0.03-0.73-0.34c-0.15-0.23-0.17-0.49-0.05-0.8
			c0.25-0.63,0.71-1,1.38-1.11c0.07-0.01,0.13-0.02,0.2-0.02c0.28,0,0.5,0.11,0.65,0.34C191.63,25.44,191.65,25.7,191.53,26.02z"/>
		<path class="st1" d="M173.93,19.83c0.1-7.03,4.38-13.29,10.89-15.94c0.19-0.08,0.27-0.29,0.2-0.47s-0.29-0.27-0.47-0.2
			c-6.79,2.76-11.24,9.28-11.35,16.6c-0.09,5.87,2.69,11.46,7.42,14.94c0.07,0.05,0.14,0.07,0.21,0.07c0.11,0,0.22-0.05,0.29-0.15
			c0.12-0.16,0.08-0.39-0.08-0.51C176.51,30.83,173.85,25.47,173.93,19.83L173.93,19.83z"/>
		<path class="st1" d="M198.4,3.27c-0.19-0.08-0.4,0.01-0.47,0.2c-0.07,0.19,0.01,0.4,0.2,0.48c6.65,2.76,10.87,9.2,10.77,16.4
			c-0.08,5.61-2.89,10.88-7.5,14.09c-0.16,0.11-0.21,0.34-0.09,0.51c0.07,0.1,0.18,0.16,0.3,0.16c0.07,0,0.14-0.02,0.21-0.07
			c4.81-3.35,7.73-8.83,7.81-14.68C209.73,12.86,205.32,6.15,198.4,3.27L198.4,3.27z"/>
	</g>
</g>
<g>
	<defs>
		<rect id="SVGID_00000133518250145804569450000002584303900352948923_" x="227.41" y="-0.08" width="40" height="40"/>
	</defs>
	<clipPath id="SVGID_00000103966328962612772840000005615822023138593447_">
		<use xlink:href="#SVGID_00000133518250145804569450000002584303900352948923_"  style="overflow:visible;"/>
	</clipPath>
	<g style="clip-path:url(#SVGID_00000103966328962612772840000005615822023138593447_);">
		<path class="st1" d="M257.13,12.82c-0.01-0.23-0.07-0.46-0.23-0.64c-0.17,0.03-0.33,0.05-0.48,0.07
			c-1.53,0.26-3.05,0.58-4.51,1.14c-1.3,0.5-2.53,1.12-3.59,2.02c-0.68,0.58-1.19,1.28-1.41,2.16c-0.34,1.38-0.12,2.66,0.83,3.76
			c0.27,0.32,0.29,0.33,0.66,0.16c0.45-0.2,0.9-0.41,1.33-0.66c1.37-0.8,2.5-1.89,3.58-3.04c0.04-0.04,0.06-0.09,0.09-0.14
			c-0.48-0.35-0.58-0.34-0.97,0.03c-0.31,0.29-0.59,0.6-0.92,0.87c-0.63,0.52-1.26,1.03-1.91,1.51c-0.41,0.3-0.87,0.52-1.39,0.68
			c-0.09-0.13-0.18-0.24-0.25-0.36c-0.82-1.38-0.62-2.99,0.53-4.11c0.77-0.75,1.66-1.32,2.63-1.76c1.32-0.59,2.69-1.01,4.1-1.3
			c0.37-0.08,0.73-0.14,1.14-0.22c0.03,0.16,0.05,0.25,0.05,0.34c0.04,1.14,0,2.27-0.17,3.4c-0.24,1.58-0.82,2.98-2.03,4.1
			c-1.34,1.24-2.88,1.88-4.71,1.81c-0.55-0.02-1.1-0.13-1.64-0.2c-0.35-0.05-0.67,0.02-0.92,0.28c-0.65,0.66-1.21,1.38-1.5,2.27
			c-0.37,1.12-0.48,2.27-0.38,3.45c0.03,0.45,0.29,0.68,0.68,0.92c0-0.24,0-0.43,0-0.62c0.02-0.73,0.01-1.46,0.07-2.18
			c0.11-1.12,0.56-2.1,1.28-2.96c0.31-0.37,0.66-0.56,1.15-0.37c0.16,0.06,0.34,0.1,0.51,0.11c1.54,0.09,3.02-0.1,4.39-0.86
			c1.82-1,3.07-2.46,3.59-4.5C257.15,16.28,257.18,14.55,257.13,12.82L257.13,12.82z"/>
		<path class="st1" d="M243.87,23.76c-0.11-0.02-0.23-0.03-0.35-0.05c-1.94-0.27-3.31-1.32-4.19-3.05c-0.21-0.41-0.31-0.85-0.33-1.3
			c-0.07-1.35,0.1-2.67,0.49-3.96c0.03-0.09,0.08-0.18,0.14-0.3c0.19,0.09,0.37,0.15,0.53,0.24c0.55,0.3,1.11,0.59,1.64,0.91
			c1.11,0.68,2.09,1.52,2.9,2.56c0.93,1.19,0.75,2.57-0.43,3.56c-0.04-0.01-0.08-0.02-0.11-0.05c-0.08-0.06-0.17-0.12-0.25-0.18
			c-0.6-0.46-1.03-1.07-1.45-1.68c-0.28-0.41-0.53-0.84-0.81-1.24c-0.27-0.4-0.47-0.39-0.77,0.04c0.87,1.57,1.8,3.1,3.46,4.07
			c0.24-0.23,0.47-0.42,0.68-0.65c1.14-1.24,1.27-2.79,0.35-4.21c-0.35-0.54-0.78-1.01-1.26-1.44c-1.39-1.25-3.02-2.12-4.73-2.84
			c-0.04-0.02-0.08-0.01-0.17-0.03c-0.19,0.26-0.31,0.51-0.36,0.81c-0.18,1.09-0.37,2.18-0.55,3.27c-0.09,0.54-0.1,1.08,0.03,1.61
			c0.54,2.19,1.9,3.65,4.03,4.38c0.65,0.22,1.31,0.2,1.97,0.14C244.33,23.93,244.24,23.82,243.87,23.76z"/>
		<path class="st1" d="M235.27,29.26l-0.83-1.09c-0.04-0.05-0.09-0.05-0.14-0.02l-3.52,2.68c-0.05,0.04-0.05,0.09-0.02,0.14
			l0.43,0.56c0.04,0.05,0.09,0.05,0.14,0.02l1.2-0.91l0.34,0.45c0.66,0.87,1.52,0.95,2.22,0.42
			C235.79,30.97,235.94,30.12,235.27,29.26L235.27,29.26z M234.57,30.82c-0.43,0.33-0.81,0.1-1.07-0.23l-0.33-0.43l1.12-0.86
			l0.33,0.43C234.88,30.06,234.99,30.49,234.57,30.82L234.57,30.82z"/>
		<path class="st1" d="M238.19,32.17l-1.09-0.82c-0.05-0.04-0.1-0.03-0.14,0.02l-2.65,3.54c-0.04,0.05-0.03,0.1,0.02,0.14l0.57,0.42
			c0.05,0.04,0.1,0.03,0.14-0.02l0.9-1.2l0.31,0.23l-0.13,1.83c-0.01,0.05,0.01,0.09,0.05,0.12l0.6,0.45
			c0.06,0.05,0.12,0.03,0.12-0.05l0.11-1.9c0.64,0.21,1.22-0.01,1.62-0.54C239.16,33.68,239.07,32.83,238.19,32.17z M237.94,33.86
			c-0.33,0.43-0.75,0.32-1.09,0.07l-0.43-0.33l0.85-1.13l0.43,0.33C238.04,33.06,238.26,33.44,237.94,33.86L237.94,33.86z"/>
		<path class="st1" d="M242.5,34.41c-1.24-0.42-2.59,0.23-3.02,1.49c-0.43,1.25,0.24,2.6,1.48,3.02c1.24,0.42,2.59-0.23,3.02-1.48
			C244.41,36.18,243.74,34.83,242.5,34.41L242.5,34.41z M243.11,37.14c-0.27,0.8-1.08,1.21-1.86,0.94s-1.17-1.08-0.9-1.88
			c0.27-0.81,1.08-1.21,1.87-0.95C243,35.51,243.39,36.33,243.11,37.14z"/>
		<path class="st1" d="M247.1,35.28l-1.3,0.02c-0.06,0-0.1,0.04-0.1,0.1l0.07,4.43c0,0.06,0.04,0.1,0.1,0.1l1.3-0.02
			c1.59-0.02,2.41-1.06,2.39-2.35C249.54,36.26,248.69,35.25,247.1,35.28z M247.16,39.1l-0.5,0.01l-0.05-3.02l0.5-0.01
			c1-0.02,1.51,0.54,1.53,1.49C248.66,38.52,248.16,39.09,247.16,39.1z"/>
		<path class="st1" d="M253.88,34.06c-0.02-0.06-0.07-0.08-0.13-0.06l-0.67,0.22c-0.06,0.02-0.08,0.07-0.06,0.12l0.85,2.59
			c0.2,0.62,0.01,1.05-0.49,1.21c-0.51,0.17-0.92-0.06-1.12-0.68l-0.85-2.59c-0.02-0.06-0.07-0.08-0.13-0.06l-0.67,0.22
			c-0.06,0.02-0.08,0.07-0.06,0.12l0.85,2.59c0.38,1.16,1.29,1.56,2.26,1.24c0.96-0.32,1.46-1.17,1.07-2.33L253.88,34.06z"/>
		<path class="st1" d="M260.28,34.34l-0.63-0.12c-0.06-0.01-0.1,0.02-0.12,0.08c-0.08,0.36-0.27,0.69-0.61,0.93
			c-0.65,0.48-1.54,0.33-2.04-0.36c-0.51-0.7-0.37-1.59,0.28-2.06c0.34-0.25,0.71-0.33,1.08-0.3c0.06,0.01,0.1-0.02,0.11-0.09
			l0.08-0.64c0.01-0.07-0.02-0.1-0.08-0.11c-0.57-0.09-1.18,0.03-1.7,0.41c-1.07,0.78-1.31,2.25-0.52,3.33
			c0.78,1.07,2.25,1.3,3.32,0.52c0.52-0.38,0.82-0.92,0.91-1.49C260.38,34.39,260.35,34.35,260.28,34.34L260.28,34.34z"/>
		<path class="st1" d="M260.42,29.43l0.61-0.79c0.04-0.05,0.03-0.1-0.02-0.14l-0.48-0.37c-0.05-0.04-0.1-0.03-0.14,0.02l-1.77,2.3
			c-0.04,0.05-0.03,0.1,0.02,0.14l0.48,0.37c0.05,0.04,0.1,0.03,0.14-0.02l0.61-0.8l2.95,2.27c0.05,0.04,0.1,0.03,0.14-0.02
			l0.43-0.56c0.04-0.05,0.03-0.1-0.02-0.14L260.42,29.43z"/>
		<path class="st1" d="M238.24,7.51c0.05,0.03,0.09,0.03,0.14,0l0.54-0.38c0.04-0.03,0.07-0.08,0.06-0.14l-1.2-4.56
			c-0.02-0.07-0.07-0.09-0.13-0.05l-0.6,0.42c-0.04,0.03-0.07,0.07-0.05,0.13l0.99,3.42l-2.85-2.13c-0.05-0.04-0.09-0.03-0.14,0
			l-0.6,0.42c-0.06,0.04-0.06,0.1,0,0.14L238.24,7.51z"/>
		<path class="st1" d="M241.48,5.73l2.32-0.76c0.06-0.02,0.08-0.07,0.06-0.13l-0.19-0.57c-0.02-0.06-0.07-0.08-0.13-0.06l-1.55,0.51
			l-0.37-1.12l1.45-0.47c0.06-0.02,0.08-0.07,0.06-0.12l-0.19-0.57c-0.02-0.06-0.07-0.08-0.13-0.06l-1.45,0.47l-0.32-0.99l1.54-0.51
			c0.06-0.02,0.08-0.07,0.06-0.12l-0.19-0.57c-0.02-0.06-0.07-0.08-0.13-0.06l-2.31,0.75c-0.06,0.02-0.08,0.07-0.06,0.13l1.37,4.21
			C241.37,5.72,241.42,5.74,241.48,5.73L241.48,5.73z"/>
		<path class="st1" d="M247.26,4.68c1.31-0.03,2.1-1.02,2.08-2.23l-0.01-0.39c0-0.06-0.04-0.1-0.1-0.1L247.24,2
			c-0.06,0-0.1,0.04-0.1,0.1l0.01,0.56c0,0.06,0.04,0.1,0.1,0.1l1.22-0.02c-0.01,0.57-0.47,1.04-1.23,1.06
			c-0.87,0.02-1.48-0.62-1.5-1.48c-0.02-0.84,0.6-1.49,1.41-1.51c0.42-0.01,0.77,0.14,1.05,0.38c0.05,0.04,0.1,0.04,0.14-0.01
			l0.43-0.48c0.05-0.05,0.04-0.09,0-0.14c-0.42-0.41-0.99-0.65-1.63-0.64c-1.32,0.03-2.36,1.1-2.33,2.41
			C244.83,3.67,245.91,4.71,247.26,4.68z"/>
		<path class="st1" d="M250.74,4.91c0.05,0.02,0.09,0.01,0.13-0.04l0.48-0.68L253,4.7l0.02,0.83c0,0.06,0.03,0.09,0.08,0.11
			l0.7,0.21c0.07,0.02,0.11-0.01,0.11-0.08l-0.24-4.71c0-0.06-0.05-0.1-0.1-0.11l-0.63-0.19c-0.05-0.02-0.1,0-0.13,0.04l-2.83,3.77
			c-0.04,0.05-0.03,0.11,0.04,0.13L250.74,4.91z M252.94,1.97l0.05,1.96l-1.19-0.36L252.94,1.97z"/>
		<path class="st1" d="M255.48,6.83c0.05,0.04,0.1,0.03,0.14-0.02l1.8-2.53l-0.37,3.59c-0.01,0.05,0.02,0.09,0.06,0.12l0.66,0.47
			c0.05,0.04,0.1,0.02,0.14-0.02l2.57-3.61c0.03-0.05,0.03-0.1-0.02-0.14l-0.58-0.41c-0.05-0.04-0.1-0.02-0.14,0.02l-1.8,2.53
			l0.37-3.59c0.01-0.05-0.02-0.09-0.06-0.12l-0.66-0.47c-0.05-0.03-0.1-0.02-0.14,0.02l-2.57,3.61c-0.03,0.05-0.03,0.1,0.02,0.14
			L255.48,6.83z"/>
		<path class="st1" d="M231.43,28.27c0.05,0,0.11-0.01,0.16-0.04c0.18-0.09,0.25-0.31,0.16-0.49c-1.19-2.41-1.8-5.01-1.8-7.73
			c0-4.66,1.82-9.05,5.11-12.34c0.14-0.14,0.14-0.37,0-0.51c-0.14-0.14-0.37-0.14-0.51,0c-3.43,3.43-5.33,8-5.33,12.86
			c0,2.83,0.63,5.53,1.87,8.05C231.16,28.19,231.29,28.27,231.43,28.27L231.43,28.27z"/>
		<path class="st1" d="M260.1,7.51c-0.15,0.14-0.15,0.37-0.01,0.51c3.08,3.26,4.78,7.51,4.78,12c0,3.03-0.79,6.01-2.28,8.63
			c-0.1,0.17-0.04,0.4,0.14,0.49c0.06,0.03,0.12,0.05,0.18,0.05c0.13,0,0.25-0.07,0.32-0.18c1.55-2.73,2.37-5.83,2.37-8.98
			c0-4.67-1.77-9.11-4.97-12.5C260.48,7.38,260.25,7.37,260.1,7.51z"/>
	</g>
</g>
<g>
	<path class="st1" d="M122.53,32.25c-0.85,1.03-0.71,2.53,0.34,3.38c1.02,0.84,2.26,0.59,3.03-0.35l0.25-0.3
		c0.04-0.05,0.03-0.1-0.01-0.14l-1.54-1.27c-0.05-0.04-0.1-0.03-0.14,0.01l-0.36,0.43c-0.04,0.05-0.03,0.1,0.01,0.14l0.95,0.78
		c-0.39,0.43-1.03,0.49-1.63,0c-0.67-0.55-0.72-1.44-0.17-2.1c0.53-0.65,1.43-0.74,2.05-0.23c0.33,0.27,0.5,0.61,0.56,0.97
		c0.01,0.06,0.05,0.09,0.11,0.08l0.64-0.09c0.07-0.01,0.09-0.04,0.09-0.11c-0.06-0.58-0.33-1.13-0.82-1.54
		C124.85,31.09,123.36,31.24,122.53,32.25L122.53,32.25z"/>
	<path class="st1" d="M127.82,37.61l1.43-3.45c0.02-0.05,0-0.11-0.05-0.13l-0.65-0.27c-0.05-0.02-0.11,0-0.13,0.05l-1.7,4.09
		c-0.02,0.05,0,0.11,0.05,0.13l2.13,0.89c0.05,0.02,0.11,0,0.13-0.05l0.23-0.56c0.02-0.05,0-0.11-0.05-0.13L127.82,37.61z"/>
	<path class="st1" d="M135.04,35.43l-0.7-0.09c-0.06-0.01-0.1,0.03-0.11,0.09l-0.35,2.71c-0.09,0.65-0.44,0.95-0.97,0.88
		c-0.53-0.07-0.8-0.45-0.72-1.1l0.35-2.71c0.01-0.06-0.03-0.1-0.09-0.11l-0.7-0.09c-0.06-0.01-0.1,0.03-0.11,0.09l-0.35,2.71
		c-0.16,1.21,0.49,1.97,1.5,2.1c1,0.13,1.82-0.43,1.98-1.64l0.35-2.71C135.14,35.48,135.1,35.44,135.04,35.43L135.04,35.43z"/>
	<path class="st1" d="M139.16,34.96l-2.88,0.44c-0.06,0.01-0.09,0.05-0.08,0.11l0.09,0.6c0.01,0.06,0.05,0.09,0.11,0.08l0.99-0.15
		l0.56,3.69c0.01,0.06,0.05,0.09,0.11,0.08l0.7-0.1c0.06-0.01,0.09-0.05,0.08-0.11l-0.56-3.69l0.99-0.15
		c0.06-0.01,0.09-0.05,0.08-0.11l-0.09-0.6C139.26,34.98,139.21,34.95,139.16,34.96L139.16,34.96z"/>
	<path class="st1" d="M144.3,37.15c-0.02-0.05-0.08-0.07-0.13-0.05l-1.5,0.65l-0.47-1.09l1.4-0.61c0.05-0.02,0.07-0.08,0.05-0.13
		l-0.24-0.55c-0.02-0.05-0.08-0.07-0.13-0.05l-1.4,0.61l-0.42-0.96l1.49-0.65c0.05-0.02,0.07-0.08,0.05-0.13l-0.24-0.55
		c-0.02-0.05-0.08-0.07-0.13-0.05l-2.23,0.97c-0.05,0.02-0.07,0.08-0.05,0.13l1.77,4.06c0.02,0.05,0.08,0.07,0.13,0.05l2.24-0.98
		c0.05-0.02,0.07-0.08,0.05-0.13L144.3,37.15z"/>
	<path class="st1" d="M146.68,30.69c-0.04-0.04-0.09-0.05-0.14-0.01L146,31.13c-0.05,0.04-0.05,0.1-0.01,0.14l1.99,2.39l-3.38-1.27
		c-0.05-0.02-0.09-0.01-0.13,0.02l-0.62,0.52c-0.05,0.04-0.05,0.1-0.01,0.14l2.84,3.4c0.04,0.05,0.09,0.05,0.14,0.01l0.54-0.45
		c0.05-0.04,0.05-0.09,0.01-0.14l-1.99-2.38l3.38,1.27c0.05,0.02,0.09,0.01,0.13-0.03l0.62-0.52c0.05-0.04,0.05-0.1,0.01-0.14
		L146.68,30.69z"/>
	<path class="st1" d="M130.92,5.19l0.71-0.13c0.06-0.01,0.09-0.06,0.08-0.12l-0.56-3.12l2.35,2.83c0.03,0.04,0.08,0.05,0.13,0.04
		l0.82-0.14c0.06-0.01,0.09-0.06,0.08-0.12l-0.79-4.44c-0.01-0.06-0.06-0.09-0.12-0.08l-0.71,0.13c-0.06,0.01-0.09,0.06-0.08,0.12
		l0.56,3.12l-2.35-2.83c-0.03-0.04-0.08-0.06-0.13-0.04l-0.82,0.14c-0.06,0.01-0.09,0.06-0.08,0.12l0.79,4.45
		C130.82,5.16,130.86,5.19,130.92,5.19z"/>
	<path class="st1" d="M137.74,4.9c1.32,0.2,2.56-0.7,2.76-2.03c0.2-1.34-0.71-2.57-2.03-2.77c-1.32-0.2-2.56,0.7-2.76,2.04
		C135.5,3.47,136.42,4.69,137.74,4.9z M136.63,2.27c0.13-0.86,0.87-1.41,1.7-1.29c0.83,0.13,1.37,0.88,1.24,1.74
		c-0.13,0.85-0.87,1.41-1.7,1.28C137.04,3.88,136.5,3.13,136.63,2.27z"/>
	<path class="st1" d="M125.74,10.45c-0.13,0.13-0.13,0.35,0,0.48l5.91,5.91c0.02-0.27,0.07-0.54,0.14-0.81l-5.57-5.58
		C126.09,10.31,125.87,10.31,125.74,10.45z"/>
	<path class="st1" d="M138.92,23.65c-0.06,0.09-0.13,0.17-0.2,0.26l5.86,5.86c0.07,0.07,0.15,0.1,0.24,0.1
		c0.09,0,0.17-0.03,0.24-0.1c0.13-0.13,0.13-0.35,0-0.48l-5.95-5.95C139.06,23.44,139,23.54,138.92,23.65z"/>
	<path class="st1" d="M135.74,24.99c-0.84-0.67-2.02-0.8-2.93-0.34l0.45-0.76c0.08,0.02,0.15,0.04,0.23,0.06
		c0.27,0.07,0.51,0.14,0.78,0.18c0.29,0.04,0.56,0.07,0.82,0.07c1.15,0,2.02-0.45,2.65-1.36c0.31-0.44,0.28-0.63-0.15-0.97
		c-0.84-0.67-2.02-0.8-2.93-0.34l0.58-0.97c0.53,0.21,1.19,0.33,1.8,0.33c0.27,0,0.52-0.02,0.75-0.07c0.84-0.16,1.52-0.65,2.02-1.46
		c0.04-0.06,0.14-0.22,0.09-0.41c-0.03-0.12-0.11-0.23-0.24-0.3c-0.05-0.03-0.1-0.07-0.15-0.11c-0.06-0.05-0.13-0.09-0.19-0.13
		c-0.71-0.44-1.44-0.57-2.17-0.38c-0.19,0.05-0.36,0.12-0.52,0.2l0.56-0.95c0.08,0.02,0.15,0.04,0.23,0.06
		c0.27,0.07,0.53,0.14,0.8,0.18c0.25,0.04,0.53,0.07,0.83,0.07c0.51,0,1.07-0.1,1.62-0.42c0.51-0.3,0.92-0.74,1.2-1.3
		c0.06-0.12,0.04-0.27-0.06-0.36c-0.28-0.28-0.59-0.49-0.95-0.63c-0.79-0.32-1.55-0.31-2.26,0.03l0.29-0.48
		c0.9-0.17,1.69-0.72,2.19-1.53c0.53-0.88,0.63-1.93,0.27-2.89c-0.05-0.14-0.19-0.22-0.34-0.2c-1,0.13-1.87,0.72-2.4,1.6
		c-0.49,0.82-0.6,1.79-0.31,2.67l-0.28,0.48c-0.05-1.38-1.16-2.29-2.08-2.53c-0.13-0.03-0.27,0.02-0.34,0.13
		c-0.4,0.6-0.59,1.23-0.56,1.89c0.04,0.71,0.31,1.38,0.87,2.1c0.17,0.22,0.35,0.41,0.54,0.6c0.05,0.06,0.11,0.12,0.17,0.18
		l-0.57,0.95c0-0.06,0-0.13-0.01-0.19c-0.14-1.05-0.77-1.83-1.87-2.3c-0.26-0.11-0.48-0.04-0.63,0.2c-0.38,0.64-0.53,1.25-0.47,1.85
		c0.13,1.24,0.85,2.1,1.57,2.78l-0.57,0.98c-0.01-0.33-0.08-0.65-0.21-0.95c-0.29-0.69-0.89-1.24-1.66-1.55
		c-0.26-0.11-0.49-0.03-0.63,0.21c-0.41,0.7-0.55,1.37-0.43,2.04c0.12,0.75,0.49,1.44,1.14,2.17c0.11,0.12,0.22,0.23,0.35,0.36
		l0.06,0.05l-0.47,0.79c-0.01-0.33-0.08-0.65-0.21-0.95c-0.29-0.69-0.89-1.24-1.66-1.55c-0.26-0.11-0.49-0.03-0.63,0.21
		c-0.4,0.7-0.55,1.37-0.44,2.05c0.12,0.75,0.49,1.44,1.14,2.17c0.11,0.12,0.22,0.23,0.35,0.36l0.06,0.05l-2.35,3.95
		c-0.1,0.16-0.04,0.37,0.12,0.46c0.05,0.03,0.11,0.05,0.17,0.05c0.12,0,0.23-0.06,0.29-0.17l2.34-3.94
		c0.08,0.02,0.15,0.04,0.23,0.06c0.26,0.07,0.51,0.14,0.78,0.18c0.29,0.05,0.56,0.07,0.82,0.07c1.15,0,2.02-0.45,2.65-1.36
		C136.19,25.52,136.16,25.33,135.74,24.99L135.74,24.99z M139.16,11.72c0.38-0.64,0.98-1.08,1.68-1.25c0.19,0.71,0.08,1.46-0.3,2.09
		c-0.38,0.63-0.98,1.07-1.67,1.22C138.68,13.1,138.79,12.36,139.16,11.72z M137.9,16.33c0.3-0.4,0.61-0.68,0.96-0.85
		c0.55-0.28,1.13-0.29,1.77-0.03c0.21,0.08,0.4,0.2,0.57,0.34c-0.22,0.36-0.49,0.63-0.84,0.83c-0.54,0.32-1.17,0.4-2.04,0.26
		c-0.22-0.04-0.46-0.1-0.7-0.16C137.71,16.58,137.8,16.45,137.9,16.33z M136.41,15.75c-0.48-0.61-0.71-1.17-0.74-1.74
		c-0.02-0.46,0.08-0.88,0.33-1.31c0.78,0.31,1.63,1.18,1.34,2.44c-0.09,0.39-0.24,0.78-0.46,1.15
		C136.72,16.11,136.55,15.94,136.41,15.75z M137.31,18.63c0.56-0.15,1.11-0.05,1.68,0.3c0.05,0.03,0.1,0.07,0.15,0.1
		c0.03,0.02,0.06,0.05,0.09,0.07c-0.4,0.61-0.91,0.97-1.55,1.09c-0.59,0.12-1.39,0.05-2.03-0.16
		C136.12,19.31,136.59,18.82,137.31,18.63L137.31,18.63z M133.71,17.37c-0.05-0.43,0.06-0.88,0.32-1.36
		c0.84,0.39,1.28,0.95,1.39,1.75c0.05,0.41-0.03,0.86-0.28,1.4c-0.07,0.15-0.14,0.29-0.22,0.44
		C134.16,18.84,133.79,18.16,133.71,17.37z M134.87,22.12c0.69-0.4,1.67-0.3,2.34,0.23c0.02,0.02,0.04,0.04,0.07,0.05
		c-0.02,0.02-0.03,0.05-0.05,0.08c-0.62,0.9-1.53,1.22-2.85,1.01c-0.22-0.04-0.45-0.09-0.68-0.16
		C134.04,22.77,134.41,22.38,134.87,22.12z M131.4,25.38c-0.09,0.21-0.19,0.43-0.31,0.65c-0.07-0.07-0.14-0.14-0.2-0.21
		c-0.57-0.64-0.88-1.23-0.99-1.85c-0.08-0.5,0.02-1,0.31-1.53c0.58,0.25,1.01,0.66,1.23,1.17C131.66,24.15,131.65,24.76,131.4,25.38
		z M131.76,20.85c-0.08-0.5,0.02-1,0.31-1.54c0.58,0.26,1.01,0.66,1.23,1.18c0.23,0.54,0.22,1.15-0.03,1.77
		c-0.09,0.22-0.19,0.43-0.31,0.65c-0.07-0.07-0.14-0.14-0.21-0.21C132.18,22.06,131.86,21.47,131.76,20.85z M135.36,25.61
		c-0.62,0.9-1.53,1.22-2.85,1.02c-0.22-0.04-0.45-0.1-0.68-0.16c0.36-0.58,0.73-0.96,1.18-1.22c0.69-0.4,1.67-0.3,2.34,0.24
		c0.02,0.02,0.04,0.04,0.07,0.05C135.39,25.56,135.38,25.58,135.36,25.61z"/>
	<path class="st1" d="M117.93,19.82c0.1-7.03,4.38-13.29,10.89-15.94c0.19-0.08,0.27-0.29,0.2-0.47c-0.07-0.19-0.29-0.27-0.47-0.2
		c-6.79,2.76-11.24,9.28-11.35,16.6c-0.06,3.92,1.11,7.66,3.38,10.84c0.07,0.1,0.18,0.15,0.3,0.15c0.07,0,0.15-0.02,0.21-0.07
		c0.16-0.12,0.2-0.34,0.08-0.51C119,27.17,117.88,23.58,117.93,19.82z"/>
	<path class="st1" d="M142.4,3.26c-0.18-0.08-0.4,0.01-0.47,0.2c-0.08,0.18,0.01,0.4,0.2,0.47c6.65,2.76,10.87,9.2,10.77,16.4
		c-0.05,3.65-1.22,7.13-3.37,10.07c-0.12,0.16-0.08,0.39,0.08,0.51c0.07,0.05,0.14,0.07,0.21,0.07c0.11,0,0.22-0.05,0.29-0.15
		c2.24-3.06,3.46-6.68,3.52-10.49C153.72,12.84,149.32,6.14,142.4,3.26z"/>
</g>
<g>
	<defs>
		<rect id="SVGID_00000001642752101144882380000006870462951672266375_" x="59.41" y="-0.08" width="40" height="40"/>
	</defs>
	<clipPath id="SVGID_00000034810965719572644490000013530300771628286600_">
		<use xlink:href="#SVGID_00000001642752101144882380000006870462951672266375_"  style="overflow:visible;"/>
	</clipPath>
	<g style="clip-path:url(#SVGID_00000034810965719572644490000013530300771628286600_);">
		<path class="st1" d="M71.69,33.21l-1.14-0.63c-0.05-0.03-0.11-0.01-0.13,0.04l-2.13,3.89c-0.03,0.05-0.01,0.11,0.04,0.13
			l1.14,0.63c1.39,0.76,2.62,0.27,3.24-0.86C73.32,35.27,73.08,33.97,71.69,33.21z M71.9,35.96c-0.46,0.83-1.17,1.09-2.05,0.6
			l-0.44-0.24l1.46-2.66l0.43,0.24C72.18,34.39,72.35,35.13,71.9,35.96z"/>
		<path class="st1" d="M76.5,35.02l-0.65-0.14c-0.05-0.01-0.1,0.01-0.13,0.05l-2.5,4c-0.04,0.06-0.02,0.11,0.05,0.13l0.72,0.15
			c0.05,0.01,0.09,0,0.13-0.05l0.42-0.71l1.69,0.36l0.09,0.83c0.01,0.06,0.04,0.09,0.09,0.1l0.72,0.15c0.07,0.01,0.11-0.02,0.1-0.09
			l-0.64-4.67C76.59,35.07,76.55,35.03,76.5,35.02z M74.93,37.79l1-1.69l0.22,1.95L74.93,37.79z"/>
		<path class="st1" d="M80.04,35.28l-0.71,0.01c-0.06,0-0.1,0.04-0.1,0.1l0.08,4.43c0,0.06,0.04,0.1,0.1,0.1l0.71-0.01
			c0.06,0,0.1-0.04,0.1-0.1l-0.08-4.43C80.14,35.32,80.1,35.28,80.04,35.28z"/>
		<path class="st1" d="M84.24,37.56c0.57-0.36,0.77-0.95,0.62-1.6c-0.21-0.86-0.92-1.33-1.99-1.08l-1.33,0.32
			c-0.06,0.01-0.09,0.06-0.07,0.12l1.03,4.31c0.01,0.06,0.06,0.09,0.12,0.07l0.69-0.16c0.06-0.01,0.09-0.06,0.07-0.12l-0.35-1.47
			l0.37-0.09l1.33,1.27c0.04,0.04,0.08,0.05,0.13,0.04L85.59,39c0.08-0.02,0.1-0.07,0.04-0.13L84.24,37.56z M83.37,37.05l-0.53,0.13
			l-0.33-1.38l0.53-0.13c0.41-0.1,0.85-0.03,0.98,0.49C84.14,36.7,83.78,36.95,83.37,37.05z"/>
		<path class="st1" d="M88.37,35.35l0.04-2.72c0-0.08-0.05-0.11-0.12-0.07l-0.65,0.36c-0.05,0.03-0.07,0.06-0.07,0.12l-0.02,1.78
			l-1.52-0.93c-0.05-0.03-0.09-0.03-0.14,0l-0.65,0.36c-0.07,0.04-0.07,0.09,0,0.14l2.32,1.39l1,1.81c0.03,0.05,0.08,0.07,0.13,0.04
			l0.62-0.34c0.05-0.03,0.07-0.08,0.04-0.13L88.37,35.35z"/>
		<path class="st1" d="M75.01,5.17l0.71-0.12c0.06-0.01,0.09-0.06,0.08-0.12l-0.54-3.12l2.33,2.84c0.03,0.04,0.08,0.05,0.13,0.05
			l0.82-0.14c0.06-0.01,0.09-0.06,0.08-0.12l-0.77-4.45c-0.01-0.06-0.06-0.09-0.12-0.08l-0.71,0.12c-0.06,0.01-0.09,0.06-0.08,0.12
			l0.54,3.12l-2.33-2.84c-0.03-0.04-0.08-0.05-0.13-0.05L74.2,0.52c-0.06,0.01-0.09,0.06-0.08,0.12l0.77,4.45
			C74.9,5.15,74.95,5.19,75.01,5.17z"/>
		<path class="st1" d="M81.81,4.93c1.32,0.21,2.56-0.68,2.77-2.01c0.21-1.34-0.7-2.57-2.01-2.78c-1.32-0.21-2.56,0.68-2.77,2.02
			C79.59,3.48,80.49,4.72,81.81,4.93z M80.72,2.3c0.14-0.86,0.88-1.41,1.71-1.28s1.37,0.89,1.23,1.74c-0.13,0.85-0.88,1.4-1.71,1.27
			C81.12,3.9,80.59,3.15,80.72,2.3z"/>
		<path class="st1" d="M69.73,10.39c-0.13,0.13-0.13,0.35,0,0.48l2.98,2.98l0.38-0.58l-2.88-2.88
			C70.08,10.26,69.86,10.26,69.73,10.39z"/>
		<path class="st1" d="M88.81,29.81c0.09,0,0.17-0.03,0.24-0.1c0.13-0.13,0.13-0.35,0-0.48l-2.21-2.21v0.96l1.73,1.73
			C88.64,29.77,88.72,29.81,88.81,29.81z"/>
		<path class="st1" d="M79.59,31.49c1.11-0.43,2.23-0.84,3.35-1.26c0.78-0.29,1.55-0.58,2.33-0.87c0.25-0.09,0.39-0.24,0.36-0.52
			c-0.01-0.06,0-0.12,0-0.17c0-4.35,0-8.71,0.01-13.06c0-0.25-0.09-0.4-0.28-0.54c-0.81-0.59-1.61-1.2-2.43-1.78
			c-0.2-0.14-0.28-0.3-0.28-0.55c0.02-0.49-0.01-0.99,0.01-1.49c0.01-0.31-0.11-0.48-0.4-0.59c-1.84-0.69-3.67-1.4-5.51-2.09
			c-0.43-0.16-0.6-0.04-0.6,0.42c-0.01,0.48-0.01,0.96,0,1.44c0.01,0.31-0.07,0.56-0.25,0.81c-0.86,1.28-1.71,2.57-2.57,3.85
			c-0.1,0.15-0.18,0.28-0.18,0.48c0.01,2.21,0.01,4.43,0.01,6.64h0.01v3.19c0,1.15,0.01,2.3-0.01,3.45c0,0.32,0.11,0.49,0.4,0.59
			c0.3,0.1,0.6,0.22,0.9,0.33c1.53,0.56,3.06,1.13,4.59,1.69C79.23,31.52,79.39,31.57,79.59,31.49L79.59,31.49z M84.97,16.29
			c0,4.03,0,8.07,0,12.1c0,0.39,0,0.39-0.33,0.51c-1.54,0.57-3.08,1.14-4.62,1.71c-0.08,0.03-0.16,0.04-0.27,0.07
			c0-4.29,0-8.55,0-12.85c1.71-0.63,3.43-1.26,5.19-1.91C84.95,16.07,84.97,16.18,84.97,16.29z M82.38,13.68
			c0.72,0.54,1.37,1.02,2.03,1.5c0.05,0.03,0.1,0.06,0.16,0.09c-0.36,0.24-3.84,1.52-4.27,1.57C81,15.78,81.68,14.75,82.38,13.68z
			 M76.83,9.32c0.17,0.05,0.3,0.09,0.42,0.13c1.47,0.56,2.93,1.11,4.39,1.67c0.36,0.14,0.36,0.14,0.37,0.53c0,0.33,0,0.66,0,1.09
			c-1.78-0.67-3.48-1.3-5.19-1.94C76.8,10.31,76.79,9.84,76.83,9.32z M79.08,30.35c0,0.11-0.01,0.23-0.03,0.41
			c-1.75-0.64-3.46-1.27-5.19-1.91c0-4.3,0-8.59,0-12.9c0.13,0.04,0.23,0.06,0.32,0.09c1.5,0.55,3,1.1,4.5,1.65
			c0.39,0.15,0.4,0.15,0.4,0.55C79.08,22.28,79.08,26.31,79.08,30.35z M74,15.27c0.87-1.31,1.7-2.56,2.55-3.83
			c1.74,0.65,3.47,1.29,5.23,1.95c-0.85,1.29-1.66,2.52-2.51,3.81C77.52,16.59,75.79,15.93,74,15.27z"/>
		<path class="st1" d="M68.25,33.47c-4.09-3.4-6.4-8.4-6.32-13.71c0.1-7.03,4.38-13.29,10.89-15.94c0.19-0.08,0.27-0.29,0.2-0.47
			c-0.08-0.19-0.29-0.27-0.47-0.2c-6.78,2.76-11.23,9.28-11.34,16.6c-0.08,5.53,2.32,10.73,6.58,14.27
			c0.07,0.06,0.15,0.08,0.23,0.08c0.1,0,0.21-0.05,0.28-0.13C68.43,33.82,68.41,33.59,68.25,33.47z"/>
		<path class="st1" d="M86.4,3.2c-0.19-0.08-0.4,0.01-0.47,0.2c-0.08,0.19,0.01,0.4,0.2,0.47c6.65,2.76,10.87,9.2,10.77,16.4
			c-0.08,5.11-2.38,9.92-6.32,13.19c-0.15,0.13-0.18,0.36-0.05,0.51c0.07,0.09,0.18,0.13,0.28,0.13c0.08,0,0.16-0.03,0.23-0.08
			c4.1-3.41,6.5-8.41,6.58-13.74C97.72,12.79,93.32,6.08,86.4,3.2z"/>
	</g>
</g>
<g>
	<defs>
		<rect id="SVGID_00000042009788078085148190000004818150948539679893_" x="3.41" y="-0.08" width="40" height="40"/>
	</defs>
	<clipPath id="SVGID_00000101085709611083397130000006743601209452317825_">
		<use xlink:href="#SVGID_00000042009788078085148190000004818150948539679893_"  style="overflow:visible;"/>
	</clipPath>
	<g style="clip-path:url(#SVGID_00000101085709611083397130000006743601209452317825_);">
		<path class="st1" d="M11.95,29.93c-0.86-0.99-2.36-1.1-3.36-0.23c-1,0.87-1.09,2.37-0.23,3.35c0.86,0.99,2.36,1.1,3.35,0.23
			C12.72,32.42,12.81,30.92,11.95,29.93z M11.11,32.6c-0.64,0.55-1.54,0.5-2.08-0.12c-0.54-0.62-0.47-1.53,0.17-2.08
			c0.64-0.56,1.55-0.51,2.09,0.12C11.83,31.14,11.76,32.04,11.11,32.6z"/>
		<path class="st1" d="M15.61,33.06l-1.18-0.69c-0.05-0.03-0.11-0.02-0.14,0.04l-2.25,3.81c-0.03,0.05-0.02,0.11,0.03,0.14
			l0.61,0.36c0.05,0.03,0.11,0.02,0.14-0.03l0.77-1.3l0.33,0.19L14,37.41c0,0.05,0.02,0.09,0.07,0.12l0.65,0.38
			c0.07,0.04,0.12,0.02,0.12-0.07l-0.1-1.9c0.66,0.13,1.21-0.14,1.55-0.72C16.74,34.45,16.55,33.61,15.61,33.06z M15.55,34.77
			c-0.27,0.47-0.71,0.4-1.08,0.19L14,34.69l0.72-1.22l0.47,0.27C15.55,33.95,15.82,34.31,15.55,34.77z"/>
		<path class="st1" d="M21.68,37.29l-1.94-0.44c-0.06-0.01-0.11,0.02-0.12,0.07l-0.12,0.55c-0.01,0.06,0.02,0.11,0.07,0.12
			l1.19,0.27c-0.15,0.55-0.71,0.9-1.45,0.73c-0.84-0.19-1.28-0.96-1.09-1.8c0.19-0.82,0.95-1.3,1.73-1.12
			c0.41,0.09,0.71,0.32,0.93,0.62c0.04,0.05,0.09,0.06,0.14,0.02l0.53-0.36c0.05-0.03,0.07-0.08,0.03-0.13
			c-0.31-0.49-0.8-0.87-1.42-1.01c-1.29-0.29-2.55,0.5-2.84,1.78c-0.3,1.3,0.5,2.57,1.81,2.87c1.28,0.29,2.28-0.48,2.55-1.66
			l0.09-0.38C21.77,37.35,21.74,37.3,21.68,37.29z"/>
		<path class="st1" d="M25.19,35.19c-0.02-0.05-0.08-0.07-0.13-0.07l-0.66,0.06c-0.05,0.01-0.09,0.03-0.11,0.09l-1.22,4.55
			c-0.02,0.07,0.02,0.11,0.09,0.11l0.73-0.06c0.05,0,0.09-0.03,0.11-0.09l0.2-0.81l1.72-0.15l0.33,0.76
			c0.03,0.06,0.07,0.07,0.12,0.07l0.73-0.06c0.07-0.01,0.1-0.05,0.07-0.12L25.19,35.19z M24.37,38.22l0.46-1.9l0.78,1.8L24.37,38.22
			z"/>
		<path class="st1" d="M31.1,33.37c-0.02-0.05-0.07-0.08-0.13-0.05l-0.65,0.27c-0.05,0.02-0.08,0.07-0.05,0.13l1.21,2.86l-2.86-2.19
			c-0.04-0.03-0.09-0.03-0.13-0.01l-0.75,0.32c-0.05,0.02-0.08,0.07-0.05,0.13l1.72,4.06c0.02,0.05,0.07,0.08,0.13,0.05l0.65-0.27
			c0.05-0.02,0.08-0.07,0.05-0.13l-1.21-2.86l2.86,2.19c0.04,0.03,0.09,0.03,0.13,0.01l0.75-0.32c0.05-0.02,0.08-0.07,0.05-0.13
			L31.1,33.37z"/>
		<path class="st1" d="M32.88,32.04c-0.04-0.05-0.09-0.06-0.14-0.02l-0.57,0.42c-0.05,0.04-0.06,0.09-0.02,0.14l2.63,3.56
			c0.04,0.05,0.09,0.06,0.14,0.02l0.57-0.42c0.05-0.04,0.06-0.09,0.02-0.14L32.88,32.04z"/>
		<path class="st1" d="M39.33,30.78l-0.64,0.03c-0.06,0-0.1,0.04-0.09,0.1c0.01,0.37-0.1,0.73-0.37,1.05
			c-0.52,0.62-1.42,0.69-2.07,0.14c-0.66-0.55-0.74-1.45-0.22-2.07c0.27-0.32,0.61-0.49,0.98-0.54c0.06-0.01,0.09-0.05,0.08-0.11
			l-0.08-0.64c-0.01-0.07-0.04-0.09-0.11-0.09c-0.58,0.05-1.14,0.31-1.55,0.8c-0.85,1.01-0.73,2.49,0.29,3.35
			c1.01,0.86,2.5,0.73,3.35-0.28c0.41-0.49,0.58-1.09,0.53-1.66C39.43,30.81,39.4,30.77,39.33,30.78z"/>
		<path class="st1" d="M18.04,5.43l1.52-0.4c1.12-0.29,1.53-0.88,1.31-1.72c-0.15-0.58-0.67-0.87-1.18-0.87
			c0.29-0.21,0.44-0.63,0.32-1.09c-0.16-0.61-0.74-1.01-1.62-0.78l-1.52,0.4c-0.06,0.01-0.09,0.06-0.07,0.12l1.12,4.28
			C17.94,5.41,17.99,5.44,18.04,5.43z M19.98,3.44c0.11,0.42-0.12,0.69-0.59,0.81l-0.77,0.2L18.3,3.24l0.77-0.2
			C19.54,2.91,19.87,3.04,19.98,3.44z M18.51,1.35c0.35-0.09,0.62-0.03,0.71,0.31c0.09,0.36-0.09,0.58-0.45,0.68l-0.66,0.17
			l-0.26-0.99L18.51,1.35z"/>
		<path class="st1" d="M22.54,4.56l0.71-0.02c0.06,0,0.1-0.04,0.1-0.1L23.2,0.02c0-0.06-0.04-0.1-0.1-0.1l-0.71,0.02
			c-0.06,0-0.1,0.04-0.1,0.1l0.15,4.42C22.44,4.53,22.48,4.57,22.54,4.56z"/>
		<path class="st1" d="M26.87,5.02c1.27,0.29,2.55-0.5,2.85-1.78c0.3-1.29-0.51-2.56-1.78-2.85s-2.55,0.5-2.85,1.79
			C24.79,3.46,25.6,4.73,26.87,5.02z M25.98,2.38c0.19-0.83,0.95-1.32,1.76-1.13c0.8,0.19,1.28,0.96,1.09,1.79
			c-0.19,0.82-0.95,1.31-1.76,1.13C26.27,3.97,25.79,3.2,25.98,2.38z"/>
		<path class="st1" d="M20.02,13.78c-0.11-0.01-0.12,0.03-0.02,0.08c0.3,0.16,0.45,0.25,0.75,0.42c0.1,0.06,0.16,0.16,0.14,0.23
			c-0.06,0.22-0.09,0.35-0.15,0.57c-0.02,0.07,0.03,0.1,0.1,0.07c0.24-0.11,0.36-0.18,0.59-0.28c0.08-0.03,0.21-0.01,0.31,0.05
			c0.28,0.2,0.41,0.28,0.68,0.51c0.09,0.08,0.12,0.07,0.08-0.02c-0.12-0.28-0.18-0.41-0.31-0.67c-0.04-0.09-0.02-0.18,0.06-0.21
			c0.24-0.1,0.36-0.12,0.59-0.2c0.07-0.03,0.06-0.07-0.05-0.1c-0.38-0.1-0.49-0.13-0.81-0.19c-0.11-0.02-0.23-0.1-0.28-0.19
			c-0.14-0.26-0.21-0.38-0.36-0.64c-0.05-0.08-0.1-0.09-0.12-0.02c-0.06,0.23-0.09,0.34-0.15,0.57c-0.02,0.07-0.12,0.12-0.23,0.11
			C20.53,13.83,20.36,13.81,20.02,13.78z"/>
		<path class="st1" d="M16.66,16.31c0.32,0.07,0.48,0.11,0.79,0.2c0.1,0.03,0.16,0.12,0.13,0.2c-0.09,0.24-0.13,0.31-0.25,0.6
			c-0.04,0.09,0.01,0.1,0.11,0.04c0.35-0.22,0.44-0.28,0.71-0.44c0.09-0.05,0.24-0.06,0.33-0.01c0.29,0.13,0.43,0.2,0.7,0.36
			c0.09,0.05,0.13,0.03,0.09-0.05c-0.12-0.23-0.18-0.35-0.3-0.58c-0.04-0.08,0-0.17,0.08-0.21c0.25-0.15,0.33-0.23,0.62-0.41
			c0.08-0.05,0.06-0.09-0.04-0.09c-0.37,0.02-0.45,0.04-0.82,0.06c-0.11,0.01-0.23-0.06-0.27-0.13c-0.13-0.22-0.19-0.33-0.33-0.55
			c-0.04-0.07-0.1-0.07-0.13,0.01c-0.08,0.23-0.12,0.35-0.21,0.58c-0.03,0.07-0.15,0.15-0.26,0.16c-0.39,0.06-0.51,0.08-0.92,0.16
			C16.57,16.25,16.55,16.29,16.66,16.31z"/>
		<path class="st1" d="M14.93,19.31c-0.12,0.01-0.15,0.05-0.07,0.09c0.26,0.12,0.38,0.19,0.61,0.33c0.07,0.05,0.08,0.15,0.02,0.23
			C15.3,20.2,15.2,20.33,15,20.57c-0.07,0.08-0.03,0.1,0.08,0.05c0.33-0.16,0.5-0.23,0.82-0.37c0.1-0.05,0.25-0.04,0.31,0.02
			c0.2,0.17,0.3,0.26,0.49,0.44c0.06,0.06,0.11,0.04,0.11-0.04c0.01-0.25,0-0.38,0-0.63c0-0.08,0.09-0.18,0.18-0.22
			c0.3-0.11,0.44-0.17,0.72-0.26c0.09-0.03,0.09-0.07-0.01-0.09c-0.35-0.07-0.41-0.08-0.76-0.12c-0.1-0.01-0.19-0.09-0.2-0.17
			c-0.03-0.25-0.04-0.37-0.07-0.61c-0.01-0.08-0.06-0.08-0.12-0.01c-0.17,0.23-0.26,0.35-0.43,0.59c-0.06,0.08-0.19,0.14-0.3,0.14
			C15.48,19.27,15.3,19.28,14.93,19.31z"/>
		<path class="st1" d="M20.91,23.43c0.08-0.04,0.07-0.09-0.03-0.1c-0.29-0.03-0.44-0.03-0.74-0.02c-0.1,0-0.2-0.07-0.22-0.16
			c-0.07-0.28-0.11-0.41-0.18-0.67c-0.02-0.09-0.07-0.09-0.11,0c-0.11,0.27-0.17,0.41-0.29,0.7c-0.04,0.09-0.15,0.17-0.25,0.18
			c-0.31,0.02-0.46,0.04-0.78,0.08c-0.1,0.01-0.12,0.06-0.04,0.11c0.24,0.14,0.36,0.22,0.59,0.37c0.08,0.05,0.11,0.17,0.07,0.27
			c-0.12,0.31-0.19,0.46-0.31,0.78c-0.04,0.1-0.01,0.13,0.08,0.06c0.27-0.22,0.4-0.32,0.67-0.53c0.08-0.07,0.22-0.07,0.29-0.02
			c0.22,0.18,0.34,0.27,0.56,0.46c0.07,0.06,0.12,0.03,0.1-0.07c-0.06-0.31-0.09-0.46-0.16-0.75c-0.02-0.1,0.03-0.22,0.11-0.28
			C20.53,23.66,20.66,23.57,20.91,23.43z"/>
		<path class="st1" d="M23.89,24.44c0.23,0.22,0.35,0.32,0.58,0.53c0.08,0.07,0.11,0.05,0.08-0.03c-0.1-0.27-0.15-0.4-0.24-0.66
			c-0.03-0.09,0-0.18,0.07-0.21c0.22-0.08,0.32-0.12,0.54-0.19c0.07-0.02,0.05-0.07-0.04-0.09c-0.27-0.09-0.41-0.13-0.69-0.22
			c-0.09-0.03-0.19-0.12-0.21-0.21c-0.09-0.27-0.13-0.4-0.22-0.66c-0.03-0.09-0.07-0.1-0.09-0.03c-0.08,0.21-0.12,0.31-0.2,0.53
			c-0.03,0.07-0.12,0.1-0.21,0.07c-0.27-0.09-0.41-0.13-0.68-0.22c-0.09-0.03-0.1,0.01-0.03,0.08c0.22,0.22,0.33,0.33,0.55,0.56
			c0.07,0.07,0.11,0.19,0.08,0.27c-0.08,0.23-0.13,0.34-0.21,0.59c-0.03,0.08,0.01,0.12,0.09,0.08c0.23-0.11,0.34-0.16,0.56-0.25
			C23.7,24.34,23.82,24.37,23.89,24.44z"/>
		<path class="st1" d="M28.2,23.89c-0.13-0.25-0.2-0.38-0.32-0.63c-0.04-0.09-0.01-0.18,0.06-0.21c0.23-0.09,0.35-0.14,0.59-0.23
			c0.08-0.03,0.06-0.07-0.04-0.09c-0.31-0.06-0.47-0.08-0.77-0.18c-0.1-0.03-0.21-0.13-0.24-0.22c-0.11-0.28-0.17-0.41-0.27-0.69
			c-0.03-0.09-0.08-0.11-0.1-0.04c-0.07,0.21-0.11,0.32-0.18,0.53c-0.02,0.07-0.12,0.09-0.21,0.06c-0.29-0.11-0.43-0.17-0.72-0.29
			c-0.09-0.04-0.11-0.01-0.03,0.08c0.24,0.24,0.36,0.37,0.61,0.61c0.08,0.08,0.13,0.2,0.11,0.27c-0.07,0.21-0.1,0.32-0.17,0.54
			c-0.02,0.07,0.02,0.11,0.09,0.09c0.22-0.07,0.33-0.11,0.55-0.18c0.07-0.02,0.2,0.02,0.29,0.1c0.26,0.23,0.39,0.33,0.67,0.52
			C28.2,23.99,28.24,23.97,28.2,23.89z"/>
		<path class="st1" d="M30.88,20.42c0.07-0.05,0.06-0.09-0.04-0.09c-0.29,0.01-0.43,0.01-0.71,0c-0.09,0-0.19-0.07-0.22-0.15
			c-0.09-0.24-0.14-0.36-0.23-0.6c-0.03-0.08-0.07-0.08-0.1-0.01c-0.06,0.24-0.1,0.35-0.17,0.57c-0.02,0.07-0.11,0.12-0.2,0.1
			c-0.27-0.05-0.39-0.07-0.65-0.14c-0.08-0.02-0.1,0.01-0.03,0.07c0.21,0.19,0.32,0.29,0.54,0.46c0.07,0.06,0.11,0.15,0.09,0.21
			c-0.07,0.19-0.1,0.28-0.16,0.47c-0.02,0.06,0.01,0.09,0.08,0.06c0.2-0.09,0.3-0.13,0.51-0.22c0.07-0.03,0.18-0.02,0.26,0.03
			c0.23,0.15,0.34,0.21,0.58,0.34c0.08,0.04,0.11,0.02,0.08-0.04c-0.1-0.2-0.15-0.29-0.25-0.5c-0.03-0.07,0-0.16,0.07-0.2
			C30.54,20.66,30.65,20.58,30.88,20.42z"/>
		<path class="st1" d="M32.79,16.79c0.07-0.07,0.06-0.1-0.03-0.07c-0.27,0.11-0.4,0.16-0.66,0.25c-0.08,0.03-0.17,0-0.19-0.07
			c-0.07-0.21-0.1-0.32-0.16-0.54c-0.02-0.07-0.06-0.06-0.09,0.03c-0.09,0.27-0.14,0.39-0.23,0.65c-0.03,0.08-0.12,0.17-0.2,0.19
			c-0.25,0.06-0.37,0.08-0.62,0.12c-0.08,0.01-0.09,0.05-0.03,0.09c0.19,0.11,0.28,0.16,0.48,0.26c0.06,0.03,0.09,0.12,0.06,0.2
			c-0.08,0.24-0.14,0.36-0.21,0.59c-0.02,0.07,0.01,0.09,0.07,0.03c0.2-0.17,0.31-0.27,0.52-0.46c0.07-0.06,0.18-0.1,0.25-0.07
			c0.2,0.07,0.31,0.11,0.52,0.16c0.07,0.02,0.11-0.02,0.08-0.08c-0.08-0.19-0.12-0.28-0.19-0.47c-0.02-0.06,0.01-0.17,0.09-0.24
			C32.46,17.14,32.57,17.03,32.79,16.79z"/>
		<path class="st1" d="M29.56,13.61c-0.07,0.27-0.1,0.4-0.17,0.65c-0.02,0.08-0.1,0.15-0.18,0.15c-0.27,0.01-0.35,0.01-0.58,0
			c-0.08-0.01-0.09,0.03-0.02,0.08c0.19,0.16,0.28,0.24,0.48,0.38c0.06,0.04,0.1,0.13,0.08,0.21c-0.06,0.22-0.09,0.33-0.15,0.54
			c-0.02,0.07,0.01,0.09,0.07,0.05c0.18-0.14,0.27-0.21,0.45-0.36c0.06-0.05,0.16-0.06,0.22-0.02c0.19,0.11,0.29,0.17,0.49,0.27
			c0.07,0.03,0.09,0.01,0.07-0.06c-0.08-0.2-0.12-0.31-0.2-0.52c-0.03-0.07,0-0.18,0.06-0.23c0.19-0.15,0.29-0.2,0.49-0.36
			c0.07-0.05,0.05-0.09-0.03-0.08c-0.27,0.01-0.4,0.02-0.61,0.02c-0.08,0-0.16-0.05-0.19-0.12c-0.08-0.23-0.12-0.35-0.2-0.6
			C29.62,13.52,29.58,13.52,29.56,13.61z"/>
		<path class="st1" d="M24.98,14.17c0.07,0.07,0.11,0.17,0.09,0.23c-0.06,0.19-0.1,0.29-0.17,0.47c-0.02,0.06,0.01,0.1,0.08,0.08
			c0.19-0.06,0.29-0.09,0.49-0.16c0.07-0.02,0.17,0.01,0.24,0.08c0.2,0.21,0.31,0.31,0.51,0.51c0.07,0.07,0.1,0.06,0.07-0.03
			c-0.08-0.25-0.11-0.37-0.2-0.62c-0.03-0.08,0.01-0.17,0.07-0.2c0.21-0.08,0.31-0.12,0.53-0.21c0.07-0.03,0.06-0.07-0.03-0.1
			c-0.27-0.07-0.39-0.11-0.66-0.19c-0.08-0.03-0.17-0.11-0.2-0.2c-0.09-0.26-0.13-0.39-0.22-0.66c-0.03-0.08-0.07-0.09-0.1-0.02
			c-0.08,0.22-0.11,0.33-0.18,0.54c-0.02,0.07-0.11,0.1-0.2,0.08c-0.26-0.08-0.39-0.11-0.66-0.19c-0.09-0.03-0.09,0.01-0.02,0.07
			C24.65,13.86,24.76,13.96,24.98,14.17z"/>
		<path class="st1" d="M34.86,13.44c0.06-0.06,0.05-0.08-0.03-0.06c-0.24,0.08-0.36,0.12-0.61,0.2c-0.08,0.03-0.16,0-0.18-0.06
			c-0.06-0.18-0.09-0.27-0.14-0.46c-0.02-0.06-0.06-0.05-0.09,0.02c-0.09,0.24-0.14,0.35-0.24,0.59c-0.03,0.08-0.12,0.16-0.21,0.19
			c-0.25,0.08-0.38,0.12-0.63,0.19c-0.08,0.02-0.1,0.06-0.04,0.09c0.19,0.07,0.28,0.11,0.48,0.17c0.06,0.02,0.09,0.1,0.06,0.17
			c-0.1,0.23-0.14,0.34-0.24,0.57c-0.03,0.07,0,0.08,0.07,0.02c0.22-0.2,0.33-0.3,0.55-0.5c0.07-0.07,0.18-0.11,0.25-0.09
			c0.2,0.04,0.3,0.06,0.51,0.08c0.07,0.01,0.1-0.03,0.08-0.07c-0.08-0.15-0.11-0.22-0.19-0.38c-0.02-0.05,0.01-0.15,0.08-0.21
			C34.57,13.7,34.67,13.61,34.86,13.44z"/>
		<path class="st1" d="M26.32,17.53c-0.29,0.01-3.62,0.78-6.51,2.47c-3.15,1.83-4.1,2.75-4.77,3.27c-0.18,0.14-0.31,0.14-0.34,0.06
			c-0.11-0.29-0.17-0.45-0.26-0.72c-0.03-0.08-0.1-0.07-0.14,0.04c-0.12,0.39-0.17,0.62-0.29,0.97c-0.04,0.11-0.07,0.24-0.28,0.38
			c-0.41,0.29-0.5,0.34-0.76,0.52c-0.09,0.06-0.14,0.13,0.05,0.17c0.18,0.03,0.22,0.04,0.46,0.08c0.19,0.04,0.13,0.17,0.1,0.28
			c-0.08,0.33-0.11,0.45-0.22,0.79c-0.04,0.11,0.01,0.12,0.1,0.03c0.27-0.29,0.36-0.38,0.65-0.69c0.11-0.11,0.21-0.25,0.33-0.22
			c0.28,0.05,0.32,0.06,0.71,0.13c0.18,0.03,0.18-0.05,0.13-0.16c-0.13-0.34-0.11-0.29-0.21-0.58c-0.03-0.09-0.04-0.26,0.07-0.36
			c1.66-1.61,2.34-2.14,4.62-3.63c1.78-1.16,4.15-2.09,6.57-2.74C26.46,17.59,26.48,17.52,26.32,17.53z"/>
		<path class="st1" d="M5.96,19.96c0-6.7,3.74-12.71,9.76-15.67c0.18-0.09,0.25-0.31,0.17-0.49c-0.09-0.18-0.31-0.25-0.49-0.17
			C9.13,6.73,5.24,12.98,5.24,19.96c0,2.77,0.61,5.43,1.81,7.91c0.06,0.13,0.19,0.2,0.33,0.2c0.05,0,0.11-0.01,0.16-0.04
			c0.18-0.09,0.26-0.3,0.17-0.48C6.54,25.17,5.96,22.62,5.96,19.96z"/>
		<path class="st1" d="M31.09,4.28c6.03,2.96,9.77,8.96,9.77,15.67c0,2.9-0.72,5.77-2.1,8.3c-0.1,0.18-0.03,0.4,0.15,0.49
			c0.05,0.03,0.11,0.04,0.17,0.04c0.13,0,0.25-0.07,0.32-0.19c1.43-2.64,2.18-5.63,2.18-8.64c0-6.99-3.9-13.24-10.18-16.32
			C31.22,3.54,31,3.62,30.91,3.8S30.91,4.2,31.09,4.28z"/>
	</g>
</g>
</svg>
