<svg id="Layer_1" data-name="Layer 1" xmlns="http://www.w3.org/2000/svg" viewBox="0 0 13.33 13.33"><defs><style>.cls-1{fill:#fff;}</style></defs><path class="cls-1" d="M11.91,14.67h2.76V9.78c0-2.4-.52-4.24-3.32-4.24A2.9,2.9,0,0,0,8.74,7h0V5.76H6.05v8.91H8.81V10.26C8.81,9.1,9,8,10.47,8s1.44,1.33,1.44,2.37Z" transform="translate(-1.33 -1.33)"/><path class="cls-1" d="M1.33,2.94a1.61,1.61,0,1,0,1.6-1.61A1.6,1.6,0,0,0,1.33,2.94Z" transform="translate(-1.33 -1.33)"/><path class="cls-1" d="M1.55,14.67H4.32V5.76H1.55Z" transform="translate(-1.33 -1.33)"/></svg>