<svg id="Layer_1" data-name="Layer 1" xmlns="http://www.w3.org/2000/svg" viewBox="0 0 16 16"><defs><style>.cls-1{fill:#fff;}</style></defs><path class="cls-1" d="M8,0C5.83,0,5.56,0,4.7.05A5.85,5.85,0,0,0,2.76.42,4,4,0,0,0,.42,2.76,5.85,5.85,0,0,0,.05,4.7C0,5.56,0,5.83,0,8s0,2.44.05,3.3a5.85,5.85,0,0,0,.37,1.94,4,4,0,0,0,2.34,2.34A5.85,5.85,0,0,0,4.7,16C5.56,16,5.83,16,8,16s2.44,0,3.3-.05a5.85,5.85,0,0,0,1.94-.37,4,4,0,0,0,2.34-2.34A5.85,5.85,0,0,0,16,11.3c0-.86.05-1.13.05-3.3S16,5.56,16,4.7a5.85,5.85,0,0,0-.37-1.94A4,4,0,0,0,13.24.42,5.85,5.85,0,0,0,11.3.05C10.44,0,10.17,0,8,0ZM8,1.44c2.14,0,2.39,0,3.23.05a4.33,4.33,0,0,1,1.49.27,2.67,2.67,0,0,1,1.52,1.52,4.33,4.33,0,0,1,.27,1.49c0,.84.05,1.09.05,3.23s0,2.39-.05,3.23a4.52,4.52,0,0,1-.28,1.49,2.67,2.67,0,0,1-1.52,1.52,4.33,4.33,0,0,1-1.49.27c-.85,0-1.1.05-3.24.05s-2.39,0-3.24-.05a4.52,4.52,0,0,1-1.49-.28,2.49,2.49,0,0,1-.92-.6,2.45,2.45,0,0,1-.6-.92,4.52,4.52,0,0,1-.28-1.49c0-.84,0-1.1,0-3.23s0-2.39,0-3.24a4.52,4.52,0,0,1,.28-1.49,2.37,2.37,0,0,1,.6-.92,2.37,2.37,0,0,1,.92-.6,4.44,4.44,0,0,1,1.48-.28c.85,0,1.1,0,3.24,0ZM8,3.89A4.11,4.11,0,1,0,12.11,8,4.11,4.11,0,0,0,8,3.89Zm0,6.78A2.67,2.67,0,1,1,10.67,8,2.68,2.68,0,0,1,8,10.67Zm5.23-6.94a1,1,0,1,1-1-1A1,1,0,0,1,13.23,3.73Z" transform="translate(0 0)"/></svg>