<svg width="395" height="79" fill="none" xmlns="http://www.w3.org/2000/svg"><path d="M364.6 2.9c.6 6.4 2.4 11.8 1.1 17.4-1.3 5.3-3.3 8.4-8.5 11.5l-3.7 6.2-1.7-1.7c.7-1.1 1.5-2.2 2.2-3.3 1.1-1.5 2.1-3.1 3.1-4.8l.1-.1c.9-1.5 2-3.7 2.8-6.1.8-2.4 1.3-5 1.5-7 .2-2 .1-3.4.1-3.4s-1.1 4.5-2.6 9.2c-.6 1.8-2.4 4.9-4.4 8.1-.6-2-2-2.2-2.8-6.8-.9-5.5 4.8-12.7 8.5-16 0 0 2.8-2.6 4.3-3.2zM22.9 56.4H7.3l-3.1 21h-3l11.7-76h4.2l12.1 76h-3l-3.3-21zm-.5-3L15 5.7 7.7 53.4h14.7z" fill="#020304"/><path d="M29.8 77.8h-4.1l-3.3-21H7.8l-3.1 21H.6L12.5.8h5.1l12.2 77zm-3.2-1h2l-11.9-75h-3.4l-11.6 75h2l3.1-21h16.4l3.4 21zM23 53.9H7.2L15 2.4l8 51.5zm-14.6-1h13.5L15.1 9.1 8.4 52.9zM58.4 68.3c0 6.4-4.2 9-8.1 9H36.9V16.6H47c6.5 0 11.5 3.6 11.5 11.6L58.4 46c0 3.6-2.1 8.1-6.3 9.9 4 .3 6.3 3.9 6.3 7.9v4.5zM39.9 19.5V55h7.3c3.6 0 8.4-3.4 8.4-9.1V28.2c0-5.9-3.3-8.7-8.6-8.7h-7.1zm15.6 44.3c0-3.8-3-5.9-6.6-5.9h-9v16.4h10.3c4.7 0 5.3-4.2 5.3-6.1v-4.4z" fill="#020304"/><path d="M50.2 77.8H36.4V16.1H47c7.5 0 12 4.5 12 12.1L58.9 46c0 3.3-1.7 7.5-5.2 9.7 3.2 1 5.2 4.1 5.2 8.1v4.5c0 6.6-4.4 9.5-8.7 9.5zm-12.8-1h12.8c3.5 0 7.6-2.2 7.6-8.5v-4.5c0-4.8-3-7.2-5.8-7.4l-2.1-.2 2-.8c3.9-1.6 6-6 6-9.4l.1-17.8c0-7.1-4-11.1-11-11.1h-9.6v59.7zm12.8-1.9H39.4V57.5h9.5c4.2 0 7.1 2.6 7.1 6.4v4.5c.1 3.1-1.5 6.5-5.8 6.5zm-9.8-1h9.8c4.5 0 4.8-4.3 4.8-5.6v-4.5c0-3.7-3.1-5.4-6.1-5.4h-8.5v15.5zm6.8-18.3h-7.8V19.1H47c5.9 0 9.1 3.3 9.1 9.2V46c0 2.7-1.1 5.3-3 7.1-1.7 1.5-3.9 2.5-5.9 2.5zm-6.8-1.1h6.8c3.2 0 7.8-3.1 7.8-8.6V28.2c0-5.3-2.8-8.2-8.1-8.2h-6.5v34.5zM89.2 68.3c0 6.4-4.2 9-8.1 9H67.7V16.6h10.1c6.5 0 11.5 3.6 11.5 11.6L89.2 46c0 3.6-2.1 8.1-6.3 9.9 4 .3 6.3 3.9 6.3 7.9v4.5zM70.7 19.5V55H78c3.6 0 8.4-3.4 8.4-9.1V28.2c0-5.9-3.3-8.7-8.6-8.7h-7.1zm15.7 44.3c0-3.8-3-5.9-6.6-5.9h-9v16.4h10.3c4.7 0 5.3-4.2 5.3-6.1v-4.4z" fill="#020304"/><path d="M81.1 77.8H67.2V16.1h10.6c7.5 0 12 4.5 12 12.1L89.7 46c0 3.3-1.7 7.5-5.2 9.7 3.2 1 5.2 4.1 5.2 8.1v4.5c0 6.6-4.3 9.5-8.6 9.5zm-12.9-1H81c3.5 0 7.6-2.2 7.6-8.5v-4.5c0-4.8-3-7.2-5.8-7.4l-2.1-.2 2-.8c3.9-1.6 6-6 6-9.4l.1-17.8c0-7.1-4-11.1-11-11.1h-9.6v59.7zm12.9-1.9H70.3V57.5h9.5c4.2 0 7.1 2.6 7.1 6.4v4.5c0 3.1-1.5 6.5-5.8 6.5zm-9.8-1h9.8c4.5 0 4.8-4.3 4.8-5.6v-4.5c0-3.7-3.1-5.4-6.1-5.4h-8.5v15.5zM78 55.6h-7.8V19.1h7.6c5.9 0 9.1 3.3 9.1 9.2V46c0 2.7-1.1 5.3-3 7.1-1.7 1.5-3.9 2.5-5.9 2.5zm-6.7-1.1h6.8c3.2 0 7.8-3.1 7.8-8.6V28.2c0-5.3-2.8-8.2-8.1-8.2h-6.5v34.5zM97.8 65.7V28.2c0-6.4 3.9-12.2 11.4-12.2 6.9 0 11.1 5.5 11.1 12.2v37.4c0 6.4-3.7 12.4-11.1 12.4-7.2 0-11.4-5.5-11.4-12.3zm3-37.5v37.5c0 4.9 2.7 9.2 8.4 9.2 5.5 0 8-4.2 8-9.3V28.2c0-4.6-2.4-9.3-8-9.3-5.7 0-8.4 4.2-8.4 9.3z" fill="#020304"/><path d="M109.2 78.5c-7 0-11.9-5.3-11.9-12.8V28.2c0-6.1 3.7-12.7 11.9-12.7 6.8 0 11.6 5.2 11.6 12.7v37.4c0 6.2-3.7 12.9-11.6 12.9zm0-61.9c-5.4 0-10.9 3.6-10.9 11.6v37.5c0 7 4.4 11.8 10.9 11.8 7.3 0 10.6-6 10.6-11.9V28.2c-.1-6.8-4.4-11.6-10.6-11.6zm0 58.8c-6.1 0-8.9-4.9-8.9-9.7V28.2c0-6 3.5-9.8 8.9-9.8 5.9 0 8.5 4.9 8.5 9.8v37.4c0 6.1-3.2 9.8-8.5 9.8zm0-56c-5.8 0-7.8 4.6-7.8 8.8v37.5c0 4 2.1 8.7 7.8 8.7 4.7 0 7.5-3.3 7.5-8.8V28.2c0-6.5-4.1-8.8-7.5-8.8zM146.3 19.3h-8.6v58h-2.8v-58h-8.6v-2.7h20v2.7z" fill="#020304"/><path d="M138.2 77.8h-3.8v-58h-8.6v-3.7h21v3.7h-8.6v58zm-2.8-1h1.8v-58h8.6v-1.7h-19v1.7h8.6v58zM183.9 50.5l21.4 27.4h-3.8l-19.1-24.4-3.6 7.1V78h-3V2h3v52.8l23.2-53h3.1l-21.2 48.7z" fill="#020304"/><path d="M206.3 78.3h-5.1l-.2-.2-18.6-23.8-3.2 6.2v17.8h-4.1v-77h4.1v50.8l22.4-50.8h4.3l-21.5 49.1 21.9 27.9zm-4.6-1h2.5l-20.9-26.8 21.1-48.2h-2L178.3 57V2.3h-2v75h2v-17l4-7.9 19.4 24.9zM211.3 77.8V17.1h3v60.7h-3z" fill="#020304"/><path d="M214.9 78.3h-4.1V16.6h4.1v61.7zm-3.1-1h2V17.6h-2v59.7zM247.7 72.4c-.3-2.9-.7-5.6-.8-8.7V17.1h3v60.7H247l-16.2-46.9c-.7-2.2-1.4-5.2-2.1-7.7h-.1c.3 2.7.7 5.9.8 7.8v46.8h-3V17.1h2.9l15.9 46.6c.9 3.1 1.6 5.9 2.4 8.7h.1z" fill="#020304"/><path d="M250.5 78.3h-3.8l-16.3-47.2c-.2-.6-.4-1.2-.5-1.9.1.7.1 1.3.1 1.8v47.3h-4.1V16.6h3.8l16 46.9.7 2.6c.1.3.1.5.2.8-.1-1-.2-2.1-.2-3.2V16.6h4.1v61.7zm-3.1-1h2.1V17.6h-2v46.1c.1 2.7.4 5.2.7 7.9l.1 1.3h-1.1l-.1-.4c-.5-2-1.1-4-1.7-6.1l-.7-2.5L229 17.6h-2.1v59.7h2V31c-.1-1.7-.4-4.6-.8-7.8l-.1-.6h1.1l.5 2c.5 2.1 1.1 4.3 1.6 6l16.2 46.7zM282.3 72.4c-.3-2.9-.7-5.6-.8-8.7V17.1h3v60.7h-2.9l-16.2-46.9c-.7-2.2-1.4-5.2-2.1-7.7h-.1c.3 2.7.7 5.9.8 7.8v46.8h-3V17.1h2.9l15.9 46.6c.9 3.1 1.6 5.9 2.4 8.7h.1z" fill="#020304"/><path d="M285.1 78.3h-3.8L265 31.1c-.2-.6-.4-1.2-.5-1.9.1.7.1 1.3.1 1.8v47.3h-4.1V16.6h3.8l16 46.9.7 2.6c.1.2.1.5.2.7-.1-1-.2-2.1-.2-3.2V16.5h4.1v61.8zm-3-1h2.1V17.6h-2v46.1c.1 2.7.4 5.2.7 7.8l.2 1.4H282l-.1-.4c-.5-2-1.1-4-1.7-6.1l-.7-2.6-15.7-46.2h-2.1v59.7h2V31c-.1-1.7-.4-4.6-.8-7.8l-.1-.6h1.1l.5 2.1c.5 2.1 1.1 4.3 1.6 6l16.1 46.6zM297.5 19.8v38.7H311v2.8h-13.5v13.6h16.9v2.9h-20V17.1h20v2.7h-16.9z" fill="#020304"/><path d="M315 78.3h-21V16.6h21v3.7h-16.9V58h13.5v3.8h-13.5v12.5H315v4zm-20-1h19v-1.9h-17V60.8h13.5V59H297V19.3h17v-1.7h-19v59.7zM345.3 17l-11.7 45.8v15h-3.1v-15C326.9 48 322.6 31.7 319 17h2.9l6.7 26.3 3.4 14.8 3.3-14.5 6.8-26.5h3.2V17z" fill="#020304"/><path d="M334.1 78.3h-4.2V62.9c-2-8.2-4.2-16.9-6.3-25.3-1.7-6.8-3.5-13.8-5.1-20.4l-.2-.6h4l6.8 26.7 2.9 12.6 2.8-12.3 6.9-26.9h4.2L334 63.1v15.2h.1zm-3.1-1h2.1V62.7l11.6-45.2h-2.1l-6.7 26.1-3.7 16.7-3.9-17-6.6-25.9h-1.9c1.6 6.4 3.3 13.2 4.9 19.8 2.1 8.5 4.3 17.2 6.3 25.4v14.7zM371.2 65.6v-5.4h3v5.4c-.2 5 2.6 9.6 8.4 9.6 5.5 0 8.3-4.1 8.3-9.4v-4.1c0-4.1-3.7-6.1-7.8-8.4-6.6-3.8-11.7-7.1-11.8-12.5V28.2c0-6.8 3.5-12.1 10.6-12.1 6.6 0 10.3 5 10.3 11.8v7.5h-3V28c0-4.9-2-9-7.3-9-4.3 0-7.5 2.9-7.5 9.1v12.3c.2 4.6 4 6.5 9.2 9.6 5.2 2.9 10.2 5.8 10.2 11.2v4.5c0 6.7-3.6 12.3-11.2 12.3-6.7 0-11.6-4.9-11.4-12.4z" fill="#020304"/><path d="M382.6 78.5c-3.3 0-6.3-1.2-8.4-3.4-2.3-2.3-3.5-5.7-3.5-9.5v-5.9h4.1v5.9c-.1 2.7.7 5.2 2.3 6.8 1.4 1.4 3.3 2.2 5.6 2.2 4.8 0 7.7-3.3 7.7-8.9v-4.1c0-3.7-3.4-5.6-7.3-7.8l-.2-.1c-7-4-12-7.3-12.1-12.9V28.2c0-7.7 4.3-12.6 11.2-12.6 6.6 0 10.8 4.8 10.8 12.3v8h-4.1V28c0-3.2-.9-8.5-6.8-8.5-4.4 0-7 3.1-7 8.6v12.3c.2 4 3.4 5.8 8.1 8.6l.8.5c5.1 2.9 10.5 5.9 10.5 11.6v4.5c0 8-4.5 12.9-11.7 12.9zm-10.9-17.8v4.9c-.1 3.6 1.1 6.6 3.2 8.8 1.9 2 4.7 3.1 7.7 3.1 7.9 0 10.7-6.1 10.7-11.8v-4.5c0-5.1-4.8-7.9-9.9-10.7l-.8-.5c-4.9-2.8-8.4-4.9-8.7-9.5V28.2c0-6 3-9.6 8-9.6 4.9 0 7.8 3.5 7.8 9.5V35h2v-7c0-7-3.8-11.3-9.8-11.3-6.3 0-10.1 4.3-10.1 11.5v12.5c.1 5.1 4.9 8.2 11.6 12l.2.1c4 2.2 7.8 4.3 7.8 8.7v4.1c0 6.1-3.4 10-8.8 10-2.6 0-4.7-.9-6.3-2.5-1.8-1.8-2.7-4.6-2.6-7.6v-4.9h-2v.1z" fill="#020304"/></svg>