<?xml version="1.0" encoding="utf-8"?>
<!-- Generator: Adobe Illustrator 26.0.1, SVG Export Plug-In . SVG Version: 6.00 Build 0)  -->
<svg version="1.1" id="Layer_1" xmlns="http://www.w3.org/2000/svg" xmlns:xlink="http://www.w3.org/1999/xlink" x="0px" y="0px"
	 viewBox="0 0 40 270" style="enable-background:new 0 0 40 270;" xml:space="preserve">
<style type="text/css">
	.st0{clip-path:url(#SVGID_00000175285474151174809570000012517405807830847121_);}
	.st1{fill:#FFDA7B;}
	.st2{clip-path:url(#SVGID_00000173882892845958263500000007162461942122679231_);}
	.st3{clip-path:url(#SVGID_00000106830069037014998820000014422978903761947038_);}
	.st4{clip-path:url(#SVGID_00000056426630099154518340000011915814910757636517_);}
</style>
<g>
	<g>
		<defs>
			<rect id="SVGID_1_" x="-0.02" y="143.29" width="40" height="40"/>
		</defs>
		<clipPath id="SVGID_00000067209343650848319080000012054863742449998210_">
			<use xlink:href="#SVGID_1_"  style="overflow:visible;"/>
		</clipPath>
		<g style="clip-path:url(#SVGID_00000067209343650848319080000012054863742449998210_);">
			<path class="st1" d="M13.34,177.16c-0.69-0.33-1.51-0.19-1.86,0.54c-0.66,1.36,1.4,2.07,1.04,2.81c-0.14,0.3-0.52,0.35-0.87,0.18
				c-0.36-0.18-0.57-0.46-0.73-0.85c-0.03-0.07-0.08-0.08-0.13-0.06l-0.54,0.21c-0.06,0.02-0.08,0.07-0.07,0.12
				c0.08,0.47,0.48,1.03,1.09,1.33c0.73,0.35,1.66,0.25,2.04-0.53c0.7-1.45-1.4-2.08-1.05-2.82c0.12-0.24,0.4-0.33,0.73-0.17
				c0.3,0.14,0.45,0.35,0.64,0.72c0.03,0.06,0.07,0.07,0.13,0.04l0.52-0.24c0.06-0.03,0.08-0.07,0.05-0.13
				C14.18,177.83,13.86,177.41,13.34,177.16z"/>
			<path class="st1" d="M17.93,178.54c-1.3-0.17-2.5,0.73-2.68,2.05c-0.18,1.31,0.75,2.5,2.04,2.68c1.3,0.17,2.5-0.73,2.68-2.04
				C20.15,179.91,19.23,178.72,17.93,178.54z M19.06,181.1c-0.11,0.84-0.83,1.4-1.65,1.29s-1.36-0.84-1.25-1.68
				c0.11-0.85,0.83-1.4,1.65-1.29S19.17,180.26,19.06,181.1L19.06,181.1z"/>
			<path class="st1" d="M24.17,178.25l-0.73,0.12c-0.05,0.01-0.09,0.04-0.11,0.08l-0.62,1.67l-1.12-1.39
				c-0.03-0.04-0.08-0.05-0.13-0.05l-0.74,0.12c-0.08,0.01-0.1,0.06-0.05,0.13l1.72,2.09l0.33,2.05c0.01,0.06,0.05,0.09,0.11,0.08
				l0.7-0.11c0.06-0.01,0.09-0.05,0.08-0.11l-0.33-2.02l0.96-2.55C24.28,178.28,24.25,178.24,24.17,178.25L24.17,178.25z"/>
			<path class="st1" d="M26.65,177.3c-0.04-0.04-0.1-0.04-0.15-0.02l-0.6,0.27c-0.05,0.02-0.07,0.06-0.07,0.12l0.35,4.71
				c0,0.07,0.05,0.1,0.12,0.07l0.67-0.3c0.05-0.02,0.08-0.06,0.07-0.12l-0.08-0.83l1.58-0.71l0.56,0.61
				c0.04,0.04,0.09,0.05,0.13,0.03l0.67-0.3c0.07-0.03,0.08-0.09,0.03-0.13L26.65,177.3z M26.88,180.43l-0.19-1.95l1.33,1.44
				L26.88,180.43z"/>
			<path class="st1" d="M15.58,148.55l0.71-0.12c0.06-0.01,0.09-0.06,0.08-0.12l-0.54-3.12l2.33,2.84c0.03,0.04,0.08,0.05,0.13,0.05
				l0.82-0.14c0.06-0.01,0.09-0.06,0.08-0.12l-0.77-4.44c-0.01-0.06-0.06-0.09-0.12-0.08l-0.71,0.12c-0.06,0.01-0.09,0.06-0.08,0.12
				l0.54,3.12l-2.33-2.84c-0.03-0.04-0.08-0.05-0.13-0.04l-0.82,0.14c-0.06,0.01-0.09,0.06-0.08,0.12l0.77,4.45
				C15.47,148.52,15.52,148.56,15.58,148.55L15.58,148.55z"/>
			<path class="st1" d="M22.39,148.29c1.32,0.21,2.56-0.69,2.77-2.02c0.21-1.34-0.7-2.57-2.02-2.78c-1.32-0.21-2.56,0.69-2.77,2.02
				C20.16,146.85,21.07,148.09,22.39,148.29L22.39,148.29z M21.3,145.67c0.13-0.86,0.88-1.41,1.71-1.28
				c0.83,0.13,1.37,0.88,1.23,1.74c-0.13,0.85-0.87,1.4-1.71,1.27S21.16,146.52,21.3,145.67z"/>
			<path class="st1" d="M10.31,153.83c-0.13,0.13-0.13,0.35,0,0.48l5.47,5.47c0.13-0.06,0.25-0.14,0.37-0.26
				c0.05-0.06,0.11-0.11,0.16-0.17l-5.51-5.52C10.66,153.7,10.44,153.7,10.31,153.83L10.31,153.83z"/>
			<path class="st1" d="M29.39,173.25c0.09,0,0.17-0.03,0.24-0.1c0.13-0.13,0.13-0.35,0-0.48l-3.9-3.9
				c-0.18,0.14-0.37,0.27-0.56,0.4l3.98,3.98C29.22,173.22,29.3,173.25,29.39,173.25z"/>
			<path class="st1" d="M26.37,161.73c0.22,0,0.45-0.05,0.66-0.15c0.81-0.38,1.33-1.36,1.23-2.3l-0.01-0.06
				c-0.07-0.56-0.37-1-0.82-1.21c-0.45-0.21-0.98-0.16-1.44,0.14c-0.8,0.51-1.21,1.58-0.96,2.49c0.12,0.44,0.4,0.78,0.77,0.96
				C25.98,161.69,26.18,161.73,26.37,161.73z M26.36,158.72c0.17-0.11,0.34-0.16,0.5-0.16c0.1,0,0.2,0.02,0.29,0.06
				c0.24,0.11,0.39,0.36,0.44,0.7c0,0,0,0.02,0,0.03c0.07,0.63-0.31,1.35-0.84,1.6c-0.23,0.11-0.47,0.12-0.66,0.03
				s-0.34-0.27-0.41-0.52C25.52,159.85,25.82,159.07,26.36,158.72L26.36,158.72z"/>
			<path class="st1" d="M26.35,166.42c0.37-0.6,0.64-1.27,0.89-2.19c0.09-0.35,0.24-0.66,0.44-0.95l0.09-0.12
				c0.27-0.38,0.54-0.76,0.79-1.16c0.51-0.79,0.8-1.54,0.9-2.31c0.02-0.15,0.03-0.3,0.03-0.45l0.01-0.2c0-0.02,0-0.04,0-0.06
				l-0.11-1.01c0-0.03-0.01-0.05-0.02-0.08l-0.02-0.04l-0.02-0.04c-0.03-0.12-0.07-0.25-0.1-0.38c-0.07-0.29-0.15-0.58-0.25-0.87
				c-0.12-0.35-0.28-0.68-0.45-1.01c-0.04-0.07-0.14-0.28-0.37-0.32c-0.23-0.04-0.4,0.12-0.47,0.18c-0.05,0.05-0.11,0.1-0.16,0.16
				c-0.09,0.03-0.18,0.06-0.27,0.11c-0.38,0.19-0.77,0.23-1.21,0.12c-1.07-0.25-2.08,0.04-2.93,0.84c-0.33,0.31-0.62,0.66-0.89,1
				l-0.12,0.15c-0.41,0.5-0.89,0.76-1.48,0.8c-0.23,0.01-0.46,0.04-0.69,0.06c-0.88,0.1-1.57,0.36-2.12,0.8
				c-0.3,0.24-0.59,0.51-0.86,0.8c-0.37,0.41-0.82,0.64-1.38,0.7c-0.16,0.02-0.31,0.03-0.47,0.04l-0.63,0.04
				c-0.33,0.02-0.66,0.04-0.99,0.07c-0.98,0.1-1.8,0.56-2.43,1.38c-0.24,0.32-0.47,0.64-0.7,0.96l-0.23,0.32
				c-0.22,0.31-0.5,0.51-0.87,0.61c-0.13,0.04-0.27,0.07-0.39,0.12c-0.25,0.09-0.32,0.26-0.34,0.35c-0.02,0.09-0.02,0.27,0.18,0.45
				c0.04,0.04,0.1,0.08,0.18,0.12c0.11,0.06,0.22,0.12,0.34,0.18c0.27,0.15,0.55,0.3,0.84,0.43c1,0.44,1.85,0.73,2.68,0.92
				c0.41,0.09,0.78,0.14,1.12,0.14c0.37,0,0.71-0.05,1.03-0.16c0.53-0.17,1.03-0.4,1.5-0.61c0.69-0.32,1.24-0.49,1.78-0.54
				l0.28-0.03c0.21-0.02,0.42-0.04,0.63-0.06c-0.13,0.08-0.27,0.16-0.4,0.23l-0.55,0.31c-0.29,0.16-0.58,0.32-0.86,0.5
				c-0.84,0.52-1.37,1.29-1.58,2.3c-0.08,0.39-0.15,0.78-0.21,1.17l-0.07,0.39c-0.07,0.38-0.23,0.67-0.52,0.93
				c-0.1,0.09-0.2,0.18-0.3,0.28c-0.19,0.19-0.17,0.37-0.15,0.46s0.1,0.25,0.36,0.32c0.05,0.01,0.13,0.03,0.21,0.04
				c0.13,0,0.25,0.01,0.38,0.01c0.23,0.01,0.46,0.02,0.69,0.02c0.09,0,0.17,0,0.26,0c1.09-0.04,1.99-0.15,2.81-0.35
				c0.84-0.2,1.45-0.5,1.93-0.96c0.4-0.39,0.77-0.83,1.08-1.21c0.48-0.59,0.91-0.98,1.37-1.27l0.22-0.14c0.2-0.12,0.4-0.25,0.6-0.37
				C25.19,167.89,25.85,167.23,26.35,166.42L26.35,166.42z M18.39,165.07l-0.28,0.03c-0.62,0.06-1.23,0.25-2,0.6
				c-0.45,0.21-0.93,0.42-1.43,0.58c-0.51,0.16-1.08,0.16-1.8,0c-0.79-0.18-1.6-0.45-2.55-0.88c-0.27-0.12-0.53-0.26-0.8-0.4l0,0
				c0.46-0.15,0.84-0.43,1.14-0.84l0.23-0.32c0.23-0.32,0.45-0.63,0.69-0.94c0.51-0.66,1.17-1.04,1.96-1.12
				c0.32-0.03,0.64-0.05,0.97-0.07l0.63-0.04c0.17-0.01,0.33-0.02,0.5-0.04c0.72-0.08,1.32-0.39,1.81-0.92
				c0.24-0.27,0.5-0.51,0.78-0.73c0.45-0.36,1.02-0.57,1.77-0.66c0.22-0.02,0.44-0.05,0.65-0.06c0.77-0.04,1.43-0.4,1.96-1.04
				l0.12-0.15c0.26-0.32,0.54-0.66,0.83-0.94c0.68-0.64,1.46-0.87,2.31-0.67c0.07,0.02,0.15,0.03,0.22,0.04
				c-0.04,0.01-0.08,0.03-0.12,0.04c-0.06,0.02-0.11,0.04-0.17,0.06c-0.07,0.02-0.13,0.05-0.19,0.08c-0.05,0.02-0.11,0.05-0.16,0.07
				c-0.06,0.03-0.12,0.07-0.18,0.1c-0.05,0.03-0.09,0.06-0.14,0.09c-0.06,0.04-0.11,0.09-0.17,0.13c-0.04,0.03-0.08,0.07-0.12,0.1
				c-0.05,0.05-0.1,0.1-0.16,0.16c-0.03,0.04-0.07,0.07-0.11,0.11c-0.05,0.06-0.1,0.13-0.15,0.19c-0.03,0.04-0.06,0.07-0.09,0.12
				c-0.05,0.08-0.1,0.16-0.14,0.24c-0.02,0.04-0.04,0.07-0.06,0.1c-0.06,0.12-0.12,0.25-0.17,0.38c-0.16,0.43-0.27,0.87-0.37,1.3
				l-0.04,0.17c-0.04,0.16-0.09,0.3-0.15,0.44c-0.18,0.4-0.45,0.71-0.84,0.92c-0.2,0.11-0.4,0.23-0.59,0.36
				c-0.75,0.47-1.26,1.01-1.56,1.65c-0.17,0.35-0.31,0.72-0.42,1.1c-0.03,0.1-0.07,0.18-0.1,0.27c-0.02,0.05-0.05,0.1-0.08,0.16
				c-0.27,0.07-0.53,0.11-0.78,0.13C18.85,165.02,18.62,165.05,18.39,165.07L18.39,165.07z M24.02,167.79
				c-0.21,0.12-0.41,0.25-0.61,0.38l-0.22,0.14c-0.53,0.33-1,0.76-1.53,1.41c-0.31,0.38-0.65,0.79-1.03,1.15
				c-0.39,0.37-0.9,0.62-1.62,0.79c-0.78,0.19-1.63,0.29-2.68,0.33c-0.29,0.01-0.59,0-0.89-0.01c0.35-0.33,0.57-0.75,0.66-1.25
				l0.07-0.4c0.07-0.38,0.13-0.77,0.21-1.15c0.17-0.82,0.6-1.45,1.27-1.86c0.27-0.17,0.55-0.32,0.83-0.48
				c0.14-0.08,0.28-0.16,0.42-0.24l0.13-0.07c0.15-0.08,0.29-0.17,0.44-0.26c0.38-0.24,0.67-0.54,0.89-0.9l0.01-0.01
				c0.01-0.01,0.01-0.02,0.02-0.03c0.06-0.09,0.11-0.19,0.15-0.29c0.06-0.13,0.11-0.26,0.15-0.39c0.1-0.35,0.23-0.68,0.38-0.99
				c0.19-0.39,0.47-0.74,0.87-1.05c0.13-0.11,0.28-0.21,0.44-0.31c0.19-0.12,0.37-0.23,0.56-0.34c0.68-0.38,1.12-0.98,1.31-1.79
				l0.04-0.18c0.1-0.41,0.2-0.83,0.34-1.22c0.29-0.77,0.78-1.28,1.47-1.52c0.1-0.03,0.2-0.06,0.31-0.09
				c0.49-0.11,0.88-0.33,1.21-0.66c0.07-0.07,0.15-0.14,0.21-0.23c0.03-0.03,0.06-0.06,0.09-0.09l0.06-0.06
				c0.01-0.01,0.02-0.03,0.03-0.04l0.01-0.01c0.12,0.25,0.24,0.49,0.32,0.74c0.09,0.26,0.16,0.53,0.23,0.82
				c0.03,0.13,0.07,0.26,0.1,0.39c0.01,0.03,0.02,0.06,0.04,0.1l0.11,0.94l-0.01,0.18c-0.01,0.13-0.01,0.26-0.03,0.4
				c-0.09,0.67-0.35,1.34-0.79,2.03c-0.25,0.39-0.51,0.76-0.78,1.13l-0.09,0.12c-0.25,0.35-0.43,0.74-0.54,1.16
				c-0.23,0.85-0.49,1.47-0.82,2.01C25.33,166.79,24.75,167.36,24.02,167.79z"/>
			<path class="st1" d="M24.63,163.27c-0.36-0.26-0.82-0.35-1.29-0.24c-0.5,0.11-0.93,0.38-1.28,0.79
				c-0.53,0.64-0.73,1.34-0.57,2.07c0.16,0.73,0.78,1.23,1.51,1.23c0.09,0,0.18-0.01,0.27-0.02c1.2-0.2,2.14-1.44,2.01-2.65
				C25.23,163.95,25,163.53,24.63,163.27L24.63,163.27z M23.16,166.42c-0.48,0.08-0.9-0.2-1.01-0.68c-0.11-0.53,0.02-1,0.43-1.49
				c0.25-0.3,0.55-0.49,0.9-0.56c0.08-0.02,0.16-0.03,0.24-0.03c0.19,0,0.37,0.05,0.52,0.16c0.21,0.15,0.33,0.39,0.37,0.69l0,0
				C24.7,165.37,24.01,166.28,23.16,166.42L23.16,166.42z"/>
			<path class="st1" d="M19.1,167.6c-0.91,0.14-1.57,0.67-1.91,1.53c-0.2,0.51-0.16,1.01,0.12,1.42s0.71,0.64,1.22,0.64
				c0.05,0,0.09,0,0.14-0.01h0.01c0.97-0.11,1.78-0.73,2.07-1.58c0.18-0.53,0.14-1-0.13-1.4C20.28,167.72,19.74,167.5,19.1,167.6z
				 M20.1,169.39c-0.2,0.59-0.81,1.04-1.5,1.12c-0.22,0.02-0.52-0.03-0.73-0.34c-0.15-0.23-0.17-0.49-0.05-0.8
				c0.25-0.63,0.71-1,1.38-1.11c0.07-0.01,0.13-0.02,0.2-0.02c0.28,0,0.5,0.11,0.65,0.34C20.2,168.81,20.22,169.07,20.1,169.39z"/>
			<path class="st1" d="M2.5,163.2c0.1-7.03,4.38-13.29,10.89-15.94c0.19-0.08,0.27-0.29,0.2-0.47c-0.07-0.18-0.29-0.27-0.47-0.2
				c-6.79,2.76-11.24,9.28-11.35,16.6c-0.09,5.87,2.69,11.46,7.42,14.94c0.07,0.05,0.14,0.07,0.21,0.07c0.11,0,0.22-0.05,0.29-0.15
				c0.12-0.16,0.08-0.39-0.08-0.51C5.08,174.2,2.42,168.84,2.5,163.2L2.5,163.2z"/>
			<path class="st1" d="M26.97,146.64c-0.19-0.08-0.4,0.01-0.47,0.2c-0.07,0.19,0.01,0.4,0.2,0.48c6.65,2.76,10.87,9.2,10.77,16.41
				c-0.08,5.61-2.89,10.88-7.5,14.09c-0.16,0.11-0.21,0.34-0.09,0.51c0.07,0.1,0.18,0.16,0.3,0.16c0.07,0,0.14-0.02,0.21-0.07
				c4.81-3.35,7.73-8.83,7.81-14.68C38.3,156.23,33.89,149.52,26.97,146.64L26.97,146.64z"/>
		</g>
	</g>
</g>
<g>
	<g>
		<defs>
			<rect id="SVGID_00000029029873671164030330000007039294982971645081_" x="-0.02" y="199.29" width="40" height="40"/>
		</defs>
		<clipPath id="SVGID_00000042716910217332543090000018392172000797054369_">
			<use xlink:href="#SVGID_00000029029873671164030330000007039294982971645081_"  style="overflow:visible;"/>
		</clipPath>
		<g style="clip-path:url(#SVGID_00000042716910217332543090000018392172000797054369_);">
			<path class="st1" d="M29.7,212.19c-0.01-0.23-0.07-0.46-0.23-0.64c-0.17,0.03-0.33,0.05-0.48,0.07
				c-1.53,0.26-3.05,0.58-4.51,1.14c-1.3,0.5-2.53,1.12-3.59,2.02c-0.68,0.58-1.19,1.28-1.41,2.16c-0.34,1.38-0.12,2.66,0.83,3.76
				c0.27,0.32,0.29,0.33,0.66,0.16c0.45-0.2,0.9-0.41,1.33-0.66c1.37-0.8,2.5-1.89,3.58-3.04c0.04-0.04,0.06-0.09,0.09-0.14
				c-0.48-0.35-0.58-0.34-0.97,0.03c-0.31,0.29-0.59,0.6-0.92,0.87c-0.63,0.52-1.26,1.03-1.91,1.51c-0.41,0.3-0.87,0.52-1.39,0.68
				c-0.09-0.13-0.18-0.24-0.25-0.36c-0.82-1.38-0.62-2.99,0.53-4.11c0.77-0.75,1.66-1.32,2.63-1.76c1.32-0.59,2.69-1.01,4.1-1.3
				c0.37-0.08,0.73-0.14,1.14-0.22c0.03,0.16,0.05,0.25,0.05,0.34c0.04,1.14,0,2.27-0.17,3.4c-0.24,1.58-0.82,2.98-2.03,4.1
				c-1.34,1.24-2.88,1.88-4.71,1.81c-0.55-0.02-1.1-0.13-1.64-0.2c-0.35-0.05-0.67,0.02-0.92,0.28c-0.65,0.66-1.21,1.38-1.5,2.27
				c-0.37,1.12-0.48,2.27-0.38,3.45c0.03,0.45,0.29,0.68,0.68,0.92c0-0.24,0-0.43,0-0.62c0.02-0.73,0.01-1.46,0.07-2.18
				c0.11-1.12,0.56-2.1,1.28-2.96c0.31-0.37,0.66-0.56,1.15-0.37c0.16,0.06,0.34,0.1,0.51,0.11c1.54,0.09,3.02-0.1,4.39-0.86
				c1.82-1,3.07-2.46,3.59-4.5C29.72,215.65,29.75,213.93,29.7,212.19L29.7,212.19z"/>
			<path class="st1" d="M16.44,223.13c-0.11-0.02-0.23-0.03-0.35-0.05c-1.94-0.27-3.31-1.32-4.19-3.05
				c-0.21-0.41-0.31-0.85-0.33-1.3c-0.07-1.35,0.1-2.67,0.49-3.96c0.03-0.09,0.08-0.18,0.14-0.3c0.19,0.09,0.37,0.15,0.53,0.24
				c0.55,0.3,1.11,0.59,1.64,0.91c1.11,0.68,2.09,1.52,2.9,2.56c0.93,1.19,0.75,2.57-0.43,3.56c-0.04-0.01-0.08-0.02-0.11-0.05
				c-0.08-0.06-0.17-0.12-0.25-0.18c-0.6-0.46-1.03-1.07-1.45-1.68c-0.28-0.41-0.53-0.84-0.81-1.24c-0.27-0.4-0.47-0.39-0.77,0.04
				c0.87,1.57,1.8,3.1,3.46,4.07c0.24-0.23,0.47-0.42,0.68-0.65c1.14-1.24,1.27-2.79,0.35-4.21c-0.35-0.54-0.78-1.01-1.26-1.44
				c-1.39-1.25-3.02-2.12-4.73-2.84c-0.04-0.02-0.08-0.01-0.17-0.03c-0.19,0.26-0.31,0.51-0.36,0.81c-0.18,1.09-0.37,2.18-0.55,3.27
				c-0.09,0.54-0.1,1.08,0.03,1.61c0.54,2.19,1.9,3.65,4.03,4.38c0.65,0.22,1.31,0.2,1.97,0.14
				C16.9,223.3,16.81,223.19,16.44,223.13z"/>
			<path class="st1" d="M7.84,228.63l-0.83-1.09c-0.04-0.05-0.09-0.05-0.14-0.02l-3.52,2.68c-0.05,0.04-0.05,0.09-0.02,0.14
				l0.43,0.56c0.04,0.05,0.09,0.05,0.14,0.02l1.2-0.91l0.34,0.45c0.66,0.87,1.52,0.95,2.22,0.42
				C8.36,230.34,8.51,229.49,7.84,228.63L7.84,228.63z M7.14,230.19c-0.43,0.33-0.81,0.1-1.07-0.23l-0.33-0.43l1.12-0.86l0.33,0.43
				C7.45,229.43,7.56,229.86,7.14,230.19L7.14,230.19z"/>
			<path class="st1" d="M10.76,231.54l-1.09-0.82c-0.05-0.04-0.1-0.03-0.14,0.02l-2.65,3.54c-0.04,0.05-0.03,0.1,0.02,0.14
				l0.57,0.42c0.05,0.04,0.1,0.03,0.14-0.02l0.9-1.2l0.31,0.23l-0.13,1.83c-0.01,0.05,0.01,0.09,0.05,0.12l0.6,0.45
				c0.06,0.05,0.12,0.03,0.12-0.05l0.11-1.9c0.64,0.21,1.22-0.01,1.62-0.54C11.73,233.05,11.64,232.2,10.76,231.54z M10.51,233.24
				c-0.33,0.43-0.75,0.32-1.09,0.07l-0.43-0.33l0.85-1.13l0.43,0.33C10.61,232.43,10.83,232.81,10.51,233.24L10.51,233.24z"/>
			<path class="st1" d="M15.07,233.78c-1.24-0.42-2.59,0.23-3.02,1.49c-0.43,1.25,0.24,2.6,1.48,3.02s2.59-0.23,3.02-1.48
				C16.98,235.55,16.31,234.2,15.07,233.78L15.07,233.78z M15.68,236.51c-0.27,0.8-1.08,1.21-1.86,0.94s-1.17-1.08-0.9-1.88
				c0.27-0.81,1.08-1.21,1.87-0.95C15.57,234.88,15.96,235.7,15.68,236.51z"/>
			<path class="st1" d="M19.67,234.65l-1.3,0.02c-0.06,0-0.1,0.04-0.1,0.1l0.07,4.43c0,0.06,0.04,0.1,0.1,0.1l1.3-0.02
				c1.59-0.02,2.41-1.06,2.39-2.35C22.11,235.63,21.26,234.62,19.67,234.65z M19.73,238.47l-0.5,0.01l-0.05-3.02l0.5-0.01
				c1-0.02,1.51,0.54,1.53,1.49C21.23,237.89,20.73,238.46,19.73,238.47z"/>
			<path class="st1" d="M26.45,233.43c-0.02-0.06-0.07-0.08-0.13-0.06l-0.67,0.22c-0.06,0.02-0.08,0.07-0.06,0.12l0.85,2.59
				c0.2,0.62,0.01,1.05-0.49,1.21c-0.51,0.17-0.92-0.06-1.12-0.68l-0.85-2.59c-0.02-0.06-0.07-0.08-0.13-0.06l-0.67,0.22
				c-0.06,0.02-0.08,0.07-0.06,0.12l0.85,2.59c0.38,1.16,1.29,1.56,2.26,1.24c0.96-0.32,1.46-1.17,1.07-2.33L26.45,233.43z"/>
			<path class="st1" d="M32.85,233.71l-0.63-0.12c-0.06-0.01-0.1,0.02-0.12,0.08c-0.08,0.36-0.27,0.69-0.61,0.93
				c-0.65,0.48-1.54,0.33-2.04-0.36c-0.51-0.7-0.37-1.59,0.28-2.06c0.34-0.25,0.71-0.33,1.08-0.3c0.06,0.01,0.1-0.02,0.11-0.09
				l0.08-0.64c0.01-0.07-0.02-0.1-0.08-0.11c-0.57-0.09-1.18,0.03-1.7,0.41c-1.07,0.78-1.31,2.25-0.52,3.33
				c0.78,1.07,2.25,1.3,3.32,0.52c0.52-0.38,0.82-0.92,0.91-1.49C32.95,233.76,32.92,233.72,32.85,233.71L32.85,233.71z"/>
			<path class="st1" d="M32.99,228.8l0.61-0.79c0.04-0.05,0.03-0.1-0.02-0.14l-0.48-0.37c-0.05-0.04-0.1-0.03-0.14,0.02l-1.77,2.3
				c-0.04,0.05-0.03,0.1,0.02,0.14l0.48,0.37c0.05,0.04,0.1,0.03,0.14-0.02l0.61-0.8l2.95,2.27c0.05,0.04,0.1,0.03,0.14-0.02
				l0.43-0.56c0.04-0.05,0.03-0.1-0.02-0.14L32.99,228.8z"/>
			<path class="st1" d="M10.81,206.88c0.05,0.03,0.09,0.03,0.14,0l0.54-0.38c0.04-0.03,0.07-0.08,0.06-0.14l-1.2-4.56
				c-0.02-0.07-0.07-0.09-0.13-0.05l-0.6,0.42c-0.04,0.03-0.07,0.07-0.05,0.13l0.99,3.42l-2.85-2.13c-0.05-0.04-0.09-0.03-0.14,0
				l-0.6,0.42c-0.06,0.04-0.06,0.1,0,0.14L10.81,206.88z"/>
			<path class="st1" d="M14.05,205.1l2.32-0.76c0.06-0.02,0.08-0.07,0.06-0.13l-0.19-0.57c-0.02-0.06-0.07-0.08-0.13-0.06
				l-1.55,0.51l-0.37-1.12l1.45-0.47c0.06-0.02,0.08-0.07,0.06-0.12l-0.19-0.57c-0.02-0.06-0.07-0.08-0.13-0.06l-1.45,0.47
				l-0.32-0.99l1.54-0.51c0.06-0.02,0.08-0.07,0.06-0.12l-0.19-0.57c-0.02-0.06-0.07-0.08-0.13-0.06l-2.31,0.75
				c-0.06,0.02-0.08,0.07-0.06,0.13l1.37,4.21C13.94,205.09,13.99,205.12,14.05,205.1L14.05,205.1z"/>
			<path class="st1" d="M19.83,204.05c1.31-0.03,2.1-1.02,2.08-2.23l-0.01-0.39c0-0.06-0.04-0.1-0.1-0.1l-1.99,0.04
				c-0.06,0-0.1,0.04-0.1,0.1l0.01,0.56c0,0.06,0.04,0.1,0.1,0.1l1.22-0.02c-0.01,0.57-0.47,1.04-1.23,1.06
				c-0.87,0.02-1.48-0.62-1.5-1.48c-0.02-0.84,0.6-1.49,1.41-1.51c0.42-0.01,0.77,0.14,1.05,0.38c0.05,0.04,0.1,0.04,0.14-0.01
				l0.43-0.48c0.05-0.05,0.04-0.09,0-0.14c-0.42-0.41-0.99-0.65-1.63-0.64c-1.32,0.03-2.36,1.1-2.33,2.41
				C17.4,203.04,18.48,204.08,19.83,204.05z"/>
			<path class="st1" d="M23.31,204.28c0.05,0.02,0.09,0.01,0.13-0.04l0.48-0.68l1.65,0.51l0.02,0.83c0,0.06,0.03,0.09,0.08,0.11
				l0.7,0.21c0.07,0.02,0.11-0.01,0.11-0.08l-0.24-4.71c0-0.06-0.05-0.1-0.1-0.11l-0.63-0.19c-0.05-0.02-0.1,0-0.13,0.04l-2.83,3.77
				c-0.04,0.05-0.03,0.11,0.04,0.13L23.31,204.28z M25.51,201.34l0.05,1.96l-1.19-0.36L25.51,201.34z"/>
			<path class="st1" d="M28.05,206.2c0.05,0.04,0.1,0.03,0.14-0.02l1.8-2.53l-0.37,3.59c-0.01,0.05,0.02,0.09,0.06,0.12l0.66,0.47
				c0.05,0.04,0.1,0.02,0.14-0.02l2.57-3.61c0.03-0.05,0.03-0.1-0.02-0.14l-0.58-0.41c-0.05-0.04-0.1-0.02-0.14,0.02l-1.8,2.53
				l0.37-3.59c0.01-0.05-0.02-0.09-0.06-0.12l-0.66-0.47c-0.05-0.03-0.1-0.02-0.14,0.02l-2.57,3.61c-0.03,0.05-0.03,0.1,0.02,0.14
				L28.05,206.2z"/>
			<path class="st1" d="M4,227.64c0.05,0,0.11-0.01,0.16-0.04c0.18-0.09,0.25-0.31,0.16-0.49c-1.19-2.41-1.8-5.01-1.8-7.73
				c0-4.66,1.82-9.05,5.11-12.34c0.14-0.14,0.14-0.37,0-0.51s-0.37-0.14-0.51,0c-3.43,3.43-5.33,8-5.33,12.86
				c0,2.83,0.63,5.53,1.87,8.05C3.73,227.56,3.86,227.64,4,227.64L4,227.64z"/>
			<path class="st1" d="M32.67,206.88c-0.15,0.14-0.15,0.37-0.01,0.51c3.08,3.26,4.78,7.51,4.78,12c0,3.03-0.79,6.01-2.28,8.63
				c-0.1,0.17-0.04,0.4,0.14,0.49c0.06,0.03,0.12,0.05,0.18,0.05c0.13,0,0.25-0.07,0.32-0.18c1.55-2.73,2.37-5.83,2.37-8.98
				c0-4.67-1.77-9.11-4.97-12.5C33.05,206.75,32.82,206.74,32.67,206.88z"/>
		</g>
	</g>
</g>
<g>
	<g>
		<defs>
			<rect id="SVGID_00000009590995988687284160000011019936768041977734_" x="-0.02" y="87.29" width="40" height="40"/>
		</defs>
		<clipPath id="SVGID_00000016790517243137287760000015052258212129078200_">
			<use xlink:href="#SVGID_00000009590995988687284160000011019936768041977734_"  style="overflow:visible;"/>
		</clipPath>
		<g style="clip-path:url(#SVGID_00000016790517243137287760000015052258212129078200_);">
			<path class="st1" d="M12.26,120.58l-1.14-0.63c-0.05-0.03-0.11-0.01-0.13,0.04l-2.13,3.89c-0.03,0.05-0.01,0.11,0.04,0.13
				l1.14,0.63c1.39,0.76,2.62,0.27,3.24-0.86C13.89,122.64,13.65,121.34,12.26,120.58z M12.47,123.33c-0.46,0.83-1.17,1.09-2.05,0.6
				l-0.44-0.24l1.46-2.66l0.43,0.24C12.75,121.76,12.92,122.5,12.47,123.33z"/>
			<path class="st1" d="M17.07,122.39l-0.65-0.14c-0.05-0.01-0.1,0.01-0.13,0.05l-2.5,4c-0.04,0.06-0.02,0.11,0.05,0.13l0.72,0.15
				c0.05,0.01,0.09,0,0.13-0.05l0.42-0.71l1.69,0.36l0.09,0.83c0.01,0.06,0.04,0.09,0.09,0.1l0.72,0.15
				c0.07,0.01,0.11-0.02,0.1-0.09l-0.64-4.67C17.16,122.44,17.12,122.4,17.07,122.39z M15.5,125.16l1-1.69l0.22,1.95L15.5,125.16z"
				/>
			<path class="st1" d="M20.61,122.65l-0.71,0.01c-0.06,0-0.1,0.04-0.1,0.1l0.08,4.43c0,0.06,0.04,0.1,0.1,0.1l0.71-0.01
				c0.06,0,0.1-0.04,0.1-0.1l-0.08-4.43C20.71,122.69,20.67,122.65,20.61,122.65z"/>
			<path class="st1" d="M24.81,124.93c0.57-0.36,0.77-0.95,0.62-1.6c-0.21-0.86-0.92-1.33-1.99-1.08l-1.33,0.32
				c-0.06,0.01-0.09,0.06-0.07,0.12l1.03,4.31c0.01,0.06,0.06,0.09,0.12,0.07l0.69-0.16c0.06-0.01,0.09-0.06,0.07-0.12l-0.35-1.47
				l0.37-0.09l1.33,1.27c0.04,0.04,0.08,0.05,0.13,0.04l0.73-0.17c0.08-0.02,0.1-0.07,0.04-0.13L24.81,124.93z M23.94,124.42
				l-0.53,0.13l-0.33-1.38l0.53-0.13c0.41-0.1,0.85-0.03,0.98,0.49C24.71,124.07,24.35,124.32,23.94,124.42z"/>
			<path class="st1" d="M28.94,122.72l0.04-2.72c0-0.08-0.05-0.11-0.12-0.07l-0.65,0.36c-0.05,0.03-0.07,0.06-0.07,0.12l-0.02,1.78
				l-1.52-0.93c-0.05-0.03-0.09-0.03-0.14,0l-0.65,0.36c-0.07,0.04-0.07,0.09,0,0.14l2.32,1.39l1,1.81
				c0.03,0.05,0.08,0.07,0.13,0.04l0.62-0.34c0.05-0.03,0.07-0.08,0.04-0.13L28.94,122.72z"/>
			<path class="st1" d="M15.58,92.54l0.71-0.12c0.06-0.01,0.09-0.06,0.08-0.12l-0.54-3.12l2.33,2.84c0.03,0.04,0.08,0.05,0.13,0.05
				l0.82-0.14c0.06-0.01,0.09-0.06,0.08-0.12l-0.77-4.45c-0.01-0.06-0.06-0.09-0.12-0.08l-0.71,0.12c-0.06,0.01-0.09,0.06-0.08,0.12
				l0.54,3.12l-2.33-2.84c-0.03-0.04-0.08-0.05-0.13-0.05l-0.82,0.14c-0.06,0.01-0.09,0.06-0.08,0.12l0.77,4.45
				C15.47,92.52,15.52,92.56,15.58,92.54z"/>
			<path class="st1" d="M22.38,92.3c1.32,0.21,2.56-0.68,2.77-2.01c0.21-1.34-0.7-2.57-2.01-2.78c-1.32-0.21-2.56,0.68-2.77,2.02
				C20.16,90.85,21.06,92.09,22.38,92.3z M21.29,89.67c0.14-0.86,0.88-1.41,1.71-1.28c0.83,0.13,1.37,0.89,1.23,1.74
				c-0.13,0.85-0.88,1.4-1.71,1.27C21.69,91.27,21.16,90.52,21.29,89.67z"/>
			<path class="st1" d="M10.3,97.76c-0.13,0.13-0.13,0.35,0,0.48l2.98,2.98l0.38-0.58l-2.88-2.88
				C10.65,97.63,10.43,97.63,10.3,97.76z"/>
			<path class="st1" d="M29.38,117.18c0.09,0,0.17-0.03,0.24-0.1c0.13-0.13,0.13-0.35,0-0.48l-2.21-2.21v0.96l1.73,1.73
				C29.21,117.14,29.29,117.18,29.38,117.18z"/>
			<path class="st1" d="M20.16,118.86c1.11-0.43,2.23-0.84,3.35-1.26c0.78-0.29,1.55-0.58,2.33-0.87c0.25-0.09,0.39-0.24,0.36-0.52
				c-0.01-0.06,0-0.12,0-0.17c0-4.35,0-8.71,0.01-13.06c0-0.25-0.09-0.4-0.28-0.54c-0.81-0.59-1.61-1.2-2.43-1.78
				c-0.2-0.14-0.28-0.3-0.28-0.55c0.02-0.49-0.01-0.99,0.01-1.49c0.01-0.31-0.11-0.48-0.4-0.59c-1.84-0.69-3.67-1.4-5.51-2.09
				c-0.43-0.16-0.6-0.04-0.6,0.42c-0.01,0.48-0.01,0.96,0,1.44c0.01,0.31-0.07,0.56-0.25,0.81c-0.86,1.28-1.71,2.57-2.57,3.85
				c-0.1,0.15-0.18,0.28-0.18,0.48c0.01,2.21,0.01,4.43,0.01,6.64h0.01v3.19c0,1.15,0.01,2.3-0.01,3.45c0,0.32,0.11,0.49,0.4,0.59
				c0.3,0.1,0.6,0.22,0.9,0.33c1.53,0.56,3.06,1.13,4.59,1.69C19.8,118.89,19.96,118.94,20.16,118.86L20.16,118.86z M25.54,103.66
				c0,4.03,0,8.07,0,12.1c0,0.39,0,0.39-0.33,0.51c-1.54,0.57-3.08,1.14-4.62,1.71c-0.08,0.03-0.16,0.04-0.27,0.07
				c0-4.29,0-8.55,0-12.85c1.71-0.63,3.43-1.26,5.19-1.91C25.52,103.44,25.54,103.55,25.54,103.66z M22.95,101.05
				c0.72,0.54,1.37,1.02,2.03,1.5c0.05,0.03,0.1,0.06,0.16,0.09c-0.36,0.24-3.84,1.52-4.27,1.57
				C21.57,103.15,22.25,102.12,22.95,101.05z M17.4,96.69c0.17,0.05,0.3,0.09,0.42,0.13c1.47,0.56,2.93,1.11,4.39,1.67
				c0.36,0.14,0.36,0.14,0.37,0.53c0,0.33,0,0.66,0,1.09c-1.78-0.67-3.48-1.3-5.19-1.94C17.37,97.68,17.36,97.21,17.4,96.69z
				 M19.65,117.72c0,0.11-0.01,0.23-0.03,0.41c-1.75-0.64-3.46-1.27-5.19-1.91c0-4.3,0-8.59,0-12.9c0.13,0.04,0.23,0.06,0.32,0.09
				c1.5,0.55,3,1.1,4.5,1.65c0.39,0.15,0.4,0.15,0.4,0.55C19.65,109.65,19.65,113.68,19.65,117.72z M14.57,102.64
				c0.87-1.31,1.7-2.56,2.55-3.83c1.74,0.65,3.47,1.29,5.23,1.95c-0.85,1.29-1.66,2.52-2.51,3.81
				C18.09,103.96,16.36,103.3,14.57,102.64z"/>
			<path class="st1" d="M8.82,120.84c-4.09-3.4-6.4-8.4-6.32-13.71c0.1-7.03,4.38-13.29,10.89-15.94c0.19-0.08,0.27-0.29,0.2-0.47
				c-0.08-0.19-0.29-0.27-0.47-0.2c-6.78,2.76-11.23,9.28-11.34,16.6c-0.08,5.53,2.32,10.73,6.58,14.27
				c0.07,0.06,0.15,0.08,0.23,0.08c0.1,0,0.21-0.05,0.28-0.13C9,121.19,8.98,120.96,8.82,120.84z"/>
			<path class="st1" d="M26.97,90.57c-0.19-0.08-0.4,0.01-0.47,0.2c-0.08,0.19,0.01,0.4,0.2,0.47c6.65,2.76,10.87,9.2,10.77,16.4
				c-0.08,5.11-2.38,9.92-6.32,13.19c-0.15,0.13-0.18,0.36-0.05,0.51c0.07,0.09,0.18,0.13,0.28,0.13c0.08,0,0.16-0.03,0.23-0.08
				c4.1-3.41,6.5-8.41,6.58-13.74C38.29,100.16,33.89,93.45,26.97,90.57z"/>
		</g>
	</g>
</g>
<g>
	<g>
		<defs>
			<rect id="SVGID_00000180343178260740251550000013213098075350114448_" x="-0.02" y="31.29" width="40" height="40"/>
		</defs>
		<clipPath id="SVGID_00000094600492919768643190000014931291385530826149_">
			<use xlink:href="#SVGID_00000180343178260740251550000013213098075350114448_"  style="overflow:visible;"/>
		</clipPath>
		<g style="clip-path:url(#SVGID_00000094600492919768643190000014931291385530826149_);">
			<path class="st1" d="M8.52,61.3c-0.86-0.99-2.36-1.1-3.36-0.23c-1,0.87-1.09,2.37-0.23,3.35c0.86,0.99,2.36,1.1,3.35,0.23
				C9.29,63.79,9.38,62.29,8.52,61.3z M7.68,63.97c-0.64,0.55-1.54,0.5-2.08-0.12s-0.47-1.53,0.17-2.08
				c0.64-0.56,1.55-0.51,2.09,0.12C8.4,62.51,8.33,63.41,7.68,63.97z"/>
			<path class="st1" d="M12.18,64.43L11,63.74c-0.05-0.03-0.11-0.02-0.14,0.04l-2.25,3.81c-0.03,0.05-0.02,0.11,0.03,0.14l0.61,0.36
				c0.05,0.03,0.11,0.02,0.14-0.03l0.77-1.3l0.33,0.19l0.08,1.83c0,0.05,0.02,0.09,0.07,0.12l0.65,0.38
				c0.07,0.04,0.12,0.02,0.12-0.07l-0.1-1.9c0.66,0.13,1.21-0.14,1.55-0.72C13.31,65.82,13.12,64.98,12.18,64.43z M12.12,66.14
				c-0.27,0.47-0.71,0.4-1.08,0.19l-0.47-0.27l0.72-1.22l0.47,0.27C12.12,65.32,12.39,65.68,12.12,66.14z"/>
			<path class="st1" d="M18.25,68.66l-1.94-0.44c-0.06-0.01-0.11,0.02-0.12,0.07l-0.12,0.55c-0.01,0.06,0.02,0.11,0.07,0.12
				l1.19,0.27c-0.15,0.55-0.71,0.9-1.45,0.73c-0.84-0.19-1.28-0.96-1.09-1.8c0.19-0.82,0.95-1.3,1.73-1.12
				c0.41,0.09,0.71,0.32,0.93,0.62c0.04,0.05,0.09,0.06,0.14,0.02l0.53-0.36c0.05-0.03,0.07-0.08,0.03-0.13
				c-0.31-0.49-0.8-0.87-1.42-1.01c-1.29-0.29-2.55,0.5-2.84,1.78c-0.3,1.3,0.5,2.57,1.81,2.87c1.28,0.29,2.28-0.48,2.55-1.66
				l0.09-0.38C18.34,68.72,18.31,68.67,18.25,68.66z"/>
			<path class="st1" d="M21.76,66.56c-0.02-0.05-0.08-0.07-0.13-0.07l-0.66,0.06c-0.05,0.01-0.09,0.03-0.11,0.09l-1.22,4.55
				c-0.02,0.07,0.02,0.11,0.09,0.11l0.73-0.06c0.05,0,0.09-0.03,0.11-0.09l0.2-0.81l1.72-0.15l0.33,0.76
				c0.03,0.06,0.07,0.07,0.12,0.07l0.73-0.06c0.07-0.01,0.1-0.05,0.07-0.12L21.76,66.56z M20.94,69.59l0.46-1.9l0.78,1.8
				L20.94,69.59z"/>
			<path class="st1" d="M27.67,64.74c-0.02-0.05-0.07-0.08-0.13-0.05l-0.65,0.27c-0.05,0.02-0.08,0.07-0.05,0.13l1.21,2.86
				l-2.86-2.19c-0.04-0.03-0.09-0.03-0.13-0.01l-0.75,0.32c-0.05,0.02-0.08,0.07-0.05,0.13l1.72,4.06c0.02,0.05,0.07,0.08,0.13,0.05
				l0.65-0.27c0.05-0.02,0.08-0.07,0.05-0.13l-1.21-2.86l2.86,2.19c0.04,0.03,0.09,0.03,0.13,0.01l0.75-0.32
				c0.05-0.02,0.08-0.07,0.05-0.13L27.67,64.74z"/>
			<path class="st1" d="M29.45,63.41c-0.04-0.05-0.09-0.06-0.14-0.02l-0.57,0.42c-0.05,0.04-0.06,0.09-0.02,0.14l2.63,3.56
				c0.04,0.05,0.09,0.06,0.14,0.02l0.57-0.42c0.05-0.04,0.06-0.09,0.02-0.14L29.45,63.41z"/>
			<path class="st1" d="M35.9,62.15l-0.64,0.03c-0.06,0-0.1,0.04-0.09,0.1c0.01,0.37-0.1,0.73-0.37,1.05
				c-0.52,0.62-1.42,0.69-2.07,0.14c-0.66-0.55-0.74-1.45-0.22-2.07c0.27-0.32,0.61-0.49,0.98-0.54c0.06-0.01,0.09-0.05,0.08-0.11
				l-0.08-0.64c-0.01-0.07-0.04-0.09-0.11-0.09c-0.58,0.05-1.14,0.31-1.55,0.8c-0.85,1.01-0.73,2.49,0.29,3.35
				c1.01,0.86,2.5,0.73,3.35-0.28c0.41-0.49,0.58-1.09,0.53-1.66C36,62.18,35.97,62.14,35.9,62.15z"/>
			<path class="st1" d="M14.61,36.8l1.52-0.4c1.12-0.29,1.53-0.88,1.31-1.72c-0.15-0.58-0.67-0.87-1.18-0.87
				c0.29-0.21,0.44-0.63,0.32-1.09c-0.16-0.61-0.74-1.01-1.62-0.78l-1.52,0.4c-0.06,0.01-0.09,0.06-0.07,0.12l1.12,4.28
				C14.51,36.78,14.56,36.81,14.61,36.8z M16.55,34.81c0.11,0.42-0.12,0.69-0.59,0.81l-0.77,0.2l-0.32-1.21l0.77-0.2
				C16.11,34.28,16.44,34.41,16.55,34.81z M15.08,32.72c0.35-0.09,0.62-0.03,0.71,0.31c0.09,0.36-0.09,0.58-0.45,0.68l-0.66,0.17
				l-0.26-0.99L15.08,32.72z"/>
			<path class="st1" d="M19.11,35.93l0.71-0.02c0.06,0,0.1-0.04,0.1-0.1l-0.15-4.42c0-0.06-0.04-0.1-0.1-0.1l-0.71,0.02
				c-0.06,0-0.1,0.04-0.1,0.1l0.15,4.42C19.01,35.9,19.05,35.94,19.11,35.93z"/>
			<path class="st1" d="M23.44,36.39c1.27,0.29,2.55-0.5,2.85-1.78c0.3-1.29-0.51-2.56-1.78-2.85s-2.55,0.5-2.85,1.79
				C21.36,34.83,22.17,36.1,23.44,36.39z M22.55,33.75c0.19-0.83,0.95-1.32,1.76-1.13c0.8,0.19,1.28,0.96,1.09,1.79
				c-0.19,0.82-0.95,1.31-1.76,1.13C22.84,35.34,22.36,34.57,22.55,33.75z"/>
			<path class="st1" d="M16.59,45.15c-0.11-0.01-0.12,0.03-0.02,0.08c0.3,0.16,0.45,0.25,0.75,0.42c0.1,0.06,0.16,0.16,0.14,0.23
				c-0.06,0.22-0.09,0.35-0.15,0.57c-0.02,0.07,0.03,0.1,0.1,0.07c0.24-0.11,0.36-0.18,0.59-0.28c0.08-0.03,0.21-0.01,0.31,0.05
				c0.28,0.2,0.41,0.28,0.68,0.51c0.09,0.08,0.12,0.07,0.08-0.02c-0.12-0.28-0.18-0.41-0.31-0.67c-0.04-0.09-0.02-0.18,0.06-0.21
				c0.24-0.1,0.36-0.12,0.59-0.2c0.07-0.03,0.06-0.07-0.05-0.1c-0.38-0.1-0.49-0.13-0.81-0.19c-0.11-0.02-0.23-0.1-0.28-0.19
				c-0.14-0.26-0.21-0.38-0.36-0.64c-0.05-0.08-0.1-0.09-0.12-0.02c-0.06,0.23-0.09,0.34-0.15,0.57c-0.02,0.07-0.12,0.12-0.23,0.11
				C17.1,45.2,16.93,45.18,16.59,45.15z"/>
			<path class="st1" d="M13.23,47.68c0.32,0.07,0.48,0.11,0.79,0.2c0.1,0.03,0.16,0.12,0.13,0.2c-0.09,0.24-0.13,0.31-0.25,0.6
				c-0.04,0.09,0.01,0.1,0.11,0.04c0.35-0.22,0.44-0.28,0.71-0.44c0.09-0.05,0.24-0.06,0.33-0.01c0.29,0.13,0.43,0.2,0.7,0.36
				c0.09,0.05,0.13,0.03,0.09-0.05c-0.12-0.23-0.18-0.35-0.3-0.58c-0.04-0.08,0-0.17,0.08-0.21c0.25-0.15,0.33-0.23,0.62-0.41
				c0.08-0.05,0.06-0.09-0.04-0.09c-0.37,0.02-0.45,0.04-0.82,0.06c-0.11,0.01-0.23-0.06-0.27-0.13c-0.13-0.22-0.19-0.33-0.33-0.55
				c-0.04-0.07-0.1-0.07-0.13,0.01c-0.08,0.23-0.12,0.35-0.21,0.58c-0.03,0.07-0.15,0.15-0.26,0.16c-0.39,0.06-0.51,0.08-0.92,0.16
				C13.14,47.62,13.12,47.66,13.23,47.68z"/>
			<path class="st1" d="M11.5,50.68c-0.12,0.01-0.15,0.05-0.07,0.09c0.26,0.12,0.38,0.19,0.61,0.33c0.07,0.05,0.08,0.15,0.02,0.23
				c-0.19,0.24-0.29,0.37-0.49,0.61c-0.07,0.08-0.03,0.1,0.08,0.05c0.33-0.16,0.5-0.23,0.82-0.37c0.1-0.05,0.25-0.04,0.31,0.02
				c0.2,0.17,0.3,0.26,0.49,0.44c0.06,0.06,0.11,0.04,0.11-0.04c0.01-0.25,0-0.38,0-0.63c0-0.08,0.09-0.18,0.18-0.22
				c0.3-0.11,0.44-0.17,0.72-0.26c0.09-0.03,0.09-0.07-0.01-0.09c-0.35-0.07-0.41-0.08-0.76-0.12c-0.1-0.01-0.19-0.09-0.2-0.17
				c-0.03-0.25-0.04-0.37-0.07-0.61c-0.01-0.08-0.06-0.08-0.12-0.01c-0.17,0.23-0.26,0.35-0.43,0.59c-0.06,0.08-0.19,0.14-0.3,0.14
				C12.05,50.64,11.87,50.65,11.5,50.68z"/>
			<path class="st1" d="M17.48,54.8c0.08-0.04,0.07-0.09-0.03-0.1c-0.29-0.03-0.44-0.03-0.74-0.02c-0.1,0-0.2-0.07-0.22-0.16
				c-0.07-0.28-0.11-0.41-0.18-0.67c-0.02-0.09-0.07-0.09-0.11,0c-0.11,0.27-0.17,0.41-0.29,0.7c-0.04,0.09-0.15,0.17-0.25,0.18
				c-0.31,0.02-0.46,0.04-0.78,0.08c-0.1,0.01-0.12,0.06-0.04,0.11c0.24,0.14,0.36,0.22,0.59,0.37c0.08,0.05,0.11,0.17,0.07,0.27
				c-0.12,0.31-0.19,0.46-0.31,0.78c-0.04,0.1-0.01,0.13,0.08,0.06c0.27-0.22,0.4-0.32,0.67-0.53c0.08-0.07,0.22-0.07,0.29-0.02
				c0.22,0.18,0.34,0.27,0.56,0.46c0.07,0.06,0.12,0.03,0.1-0.07c-0.06-0.31-0.09-0.46-0.16-0.75c-0.02-0.1,0.03-0.22,0.11-0.28
				C17.1,55.03,17.23,54.94,17.48,54.8z"/>
			<path class="st1" d="M20.46,55.81c0.23,0.22,0.35,0.32,0.58,0.53c0.08,0.07,0.11,0.05,0.08-0.03c-0.1-0.27-0.15-0.4-0.24-0.66
				c-0.03-0.09,0-0.18,0.07-0.21c0.22-0.08,0.32-0.12,0.54-0.19c0.07-0.02,0.05-0.07-0.04-0.09c-0.27-0.09-0.41-0.13-0.69-0.22
				c-0.09-0.03-0.19-0.12-0.21-0.21c-0.09-0.27-0.13-0.4-0.22-0.66c-0.03-0.09-0.07-0.1-0.09-0.03c-0.08,0.21-0.12,0.31-0.2,0.53
				c-0.03,0.07-0.12,0.1-0.21,0.07c-0.27-0.09-0.41-0.13-0.68-0.22c-0.09-0.03-0.1,0.01-0.03,0.08c0.22,0.22,0.33,0.33,0.55,0.56
				c0.07,0.07,0.11,0.19,0.08,0.27c-0.08,0.23-0.13,0.34-0.21,0.59C19.51,56,19.55,56.04,19.63,56c0.23-0.11,0.34-0.16,0.56-0.25
				C20.27,55.71,20.39,55.74,20.46,55.81z"/>
			<path class="st1" d="M24.77,55.26c-0.13-0.25-0.2-0.38-0.32-0.63c-0.04-0.09-0.01-0.18,0.06-0.21c0.23-0.09,0.35-0.14,0.59-0.23
				c0.08-0.03,0.06-0.07-0.04-0.09c-0.31-0.06-0.47-0.08-0.77-0.18c-0.1-0.03-0.21-0.13-0.24-0.22c-0.11-0.28-0.17-0.41-0.27-0.69
				c-0.03-0.09-0.08-0.11-0.1-0.04c-0.07,0.21-0.11,0.32-0.18,0.53c-0.02,0.07-0.12,0.09-0.21,0.06c-0.29-0.11-0.43-0.17-0.72-0.29
				c-0.09-0.04-0.11-0.01-0.03,0.08c0.24,0.24,0.36,0.37,0.61,0.61c0.08,0.08,0.13,0.2,0.11,0.27c-0.07,0.21-0.1,0.32-0.17,0.54
				c-0.02,0.07,0.02,0.11,0.09,0.09c0.22-0.07,0.33-0.11,0.55-0.18c0.07-0.02,0.2,0.02,0.29,0.1c0.26,0.23,0.39,0.33,0.67,0.52
				C24.77,55.36,24.81,55.34,24.77,55.26z"/>
			<path class="st1" d="M27.45,51.79c0.07-0.05,0.06-0.09-0.04-0.09c-0.29,0.01-0.43,0.01-0.71,0c-0.09,0-0.19-0.07-0.22-0.15
				c-0.09-0.24-0.14-0.36-0.23-0.6c-0.03-0.08-0.07-0.08-0.1-0.01c-0.06,0.24-0.1,0.35-0.17,0.57c-0.02,0.07-0.11,0.12-0.2,0.1
				c-0.27-0.05-0.39-0.07-0.65-0.14c-0.08-0.02-0.1,0.01-0.03,0.07c0.21,0.19,0.32,0.29,0.54,0.46c0.07,0.06,0.11,0.15,0.09,0.21
				c-0.07,0.19-0.1,0.28-0.16,0.47c-0.02,0.06,0.01,0.09,0.08,0.06c0.2-0.09,0.3-0.13,0.51-0.22c0.07-0.03,0.18-0.02,0.26,0.03
				c0.23,0.15,0.34,0.21,0.58,0.34c0.08,0.04,0.11,0.02,0.08-0.04c-0.1-0.2-0.15-0.29-0.25-0.5c-0.03-0.07,0-0.16,0.07-0.2
				C27.11,52.03,27.22,51.95,27.45,51.79z"/>
			<path class="st1" d="M29.36,48.16c0.07-0.07,0.06-0.1-0.03-0.07c-0.27,0.11-0.4,0.16-0.66,0.25c-0.08,0.03-0.17,0-0.19-0.07
				c-0.07-0.21-0.1-0.32-0.16-0.54c-0.02-0.07-0.06-0.06-0.09,0.03c-0.09,0.27-0.14,0.39-0.23,0.65c-0.03,0.08-0.12,0.17-0.2,0.19
				c-0.25,0.06-0.37,0.08-0.62,0.12c-0.08,0.01-0.09,0.05-0.03,0.09c0.19,0.11,0.28,0.16,0.48,0.26c0.06,0.03,0.09,0.12,0.06,0.2
				c-0.08,0.24-0.14,0.36-0.21,0.59c-0.02,0.07,0.01,0.09,0.07,0.03c0.2-0.17,0.31-0.27,0.52-0.46c0.07-0.06,0.18-0.1,0.25-0.07
				c0.2,0.07,0.31,0.11,0.52,0.16c0.07,0.02,0.11-0.02,0.08-0.08c-0.08-0.19-0.12-0.28-0.19-0.47c-0.02-0.06,0.01-0.17,0.09-0.24
				C29.03,48.51,29.14,48.4,29.36,48.16z"/>
			<path class="st1" d="M26.13,44.98c-0.07,0.27-0.1,0.4-0.17,0.65c-0.02,0.08-0.1,0.15-0.18,0.15c-0.27,0.01-0.35,0.01-0.58,0
				c-0.08-0.01-0.09,0.03-0.02,0.08c0.19,0.16,0.28,0.24,0.48,0.38c0.06,0.04,0.1,0.13,0.08,0.21c-0.06,0.22-0.09,0.33-0.15,0.54
				c-0.02,0.07,0.01,0.09,0.07,0.05c0.18-0.14,0.27-0.21,0.45-0.36c0.06-0.05,0.16-0.06,0.22-0.02c0.19,0.11,0.29,0.17,0.49,0.27
				c0.07,0.03,0.09,0.01,0.07-0.06c-0.08-0.2-0.12-0.31-0.2-0.52c-0.03-0.07,0-0.18,0.06-0.23c0.19-0.15,0.29-0.2,0.49-0.36
				c0.07-0.05,0.05-0.09-0.03-0.08c-0.27,0.01-0.4,0.02-0.61,0.02c-0.08,0-0.16-0.05-0.19-0.12c-0.08-0.23-0.12-0.35-0.2-0.6
				C26.19,44.89,26.15,44.89,26.13,44.98z"/>
			<path class="st1" d="M21.55,45.54c0.07,0.07,0.11,0.17,0.09,0.23c-0.06,0.19-0.1,0.29-0.17,0.47c-0.02,0.06,0.01,0.1,0.08,0.08
				c0.19-0.06,0.29-0.09,0.49-0.16c0.07-0.02,0.17,0.01,0.24,0.08c0.2,0.21,0.31,0.31,0.51,0.51c0.07,0.07,0.1,0.06,0.07-0.03
				c-0.08-0.25-0.11-0.37-0.2-0.62c-0.03-0.08,0.01-0.17,0.07-0.2c0.21-0.08,0.31-0.12,0.53-0.21c0.07-0.03,0.06-0.07-0.03-0.1
				c-0.27-0.07-0.39-0.11-0.66-0.19c-0.08-0.03-0.17-0.11-0.2-0.2c-0.09-0.26-0.13-0.39-0.22-0.66c-0.03-0.08-0.07-0.09-0.1-0.02
				c-0.08,0.22-0.11,0.33-0.18,0.54c-0.02,0.07-0.11,0.1-0.2,0.08c-0.26-0.08-0.39-0.11-0.66-0.19c-0.09-0.03-0.09,0.01-0.02,0.07
				C21.22,45.23,21.33,45.33,21.55,45.54z"/>
			<path class="st1" d="M31.43,44.81c0.06-0.06,0.05-0.08-0.03-0.06c-0.24,0.08-0.36,0.12-0.61,0.2c-0.08,0.03-0.16,0-0.18-0.06
				c-0.06-0.18-0.09-0.27-0.14-0.46c-0.02-0.06-0.06-0.05-0.09,0.02c-0.09,0.24-0.14,0.35-0.24,0.59c-0.03,0.08-0.12,0.16-0.21,0.19
				c-0.25,0.08-0.38,0.12-0.63,0.19c-0.08,0.02-0.1,0.06-0.04,0.09c0.19,0.07,0.28,0.11,0.48,0.17c0.06,0.02,0.09,0.1,0.06,0.17
				c-0.1,0.23-0.14,0.34-0.24,0.57c-0.03,0.07,0,0.08,0.07,0.02c0.22-0.2,0.33-0.3,0.55-0.5c0.07-0.07,0.18-0.11,0.25-0.09
				c0.2,0.04,0.3,0.06,0.51,0.08c0.07,0.01,0.1-0.03,0.08-0.07c-0.08-0.15-0.11-0.22-0.19-0.38c-0.02-0.05,0.01-0.15,0.08-0.21
				C31.14,45.07,31.24,44.98,31.43,44.81z"/>
			<path class="st1" d="M22.89,48.9c-0.29,0.01-3.62,0.78-6.51,2.47c-3.15,1.83-4.1,2.75-4.77,3.27c-0.18,0.14-0.31,0.14-0.34,0.06
				c-0.11-0.29-0.17-0.45-0.26-0.72c-0.03-0.08-0.1-0.07-0.14,0.04c-0.12,0.39-0.17,0.62-0.29,0.97c-0.04,0.11-0.07,0.24-0.28,0.38
				c-0.41,0.29-0.5,0.34-0.76,0.52c-0.09,0.06-0.14,0.13,0.05,0.17c0.18,0.03,0.22,0.04,0.46,0.08c0.19,0.04,0.13,0.17,0.1,0.28
				c-0.08,0.33-0.11,0.45-0.22,0.79c-0.04,0.11,0.01,0.12,0.1,0.03c0.27-0.29,0.36-0.38,0.65-0.69c0.11-0.11,0.21-0.25,0.33-0.22
				c0.28,0.05,0.32,0.06,0.71,0.13c0.18,0.03,0.18-0.05,0.13-0.16c-0.13-0.34-0.11-0.29-0.21-0.58c-0.03-0.09-0.04-0.26,0.07-0.36
				c1.66-1.61,2.34-2.14,4.62-3.63c1.78-1.16,4.15-2.09,6.57-2.74C23.03,48.96,23.05,48.89,22.89,48.9z"/>
			<path class="st1" d="M2.53,51.33c0-6.7,3.74-12.71,9.76-15.67c0.18-0.09,0.25-0.31,0.17-0.49c-0.09-0.18-0.31-0.25-0.49-0.17
				C5.7,38.1,1.81,44.35,1.81,51.33c0,2.77,0.61,5.43,1.81,7.91c0.06,0.13,0.19,0.2,0.33,0.2c0.05,0,0.11-0.01,0.16-0.04
				c0.18-0.09,0.26-0.3,0.17-0.48C3.11,56.54,2.53,53.99,2.53,51.33z"/>
			<path class="st1" d="M27.66,35.65c6.03,2.96,9.77,8.96,9.77,15.67c0,2.9-0.72,5.77-2.1,8.3c-0.1,0.18-0.03,0.4,0.15,0.49
				c0.05,0.03,0.11,0.04,0.17,0.04c0.13,0,0.25-0.07,0.32-0.19c1.43-2.64,2.18-5.63,2.18-8.64c0-6.99-3.9-13.24-10.18-16.32
				c-0.18-0.09-0.4-0.01-0.49,0.17S27.48,35.57,27.66,35.65z"/>
		</g>
	</g>
</g>
</svg>
