<?xml version="1.0" encoding="utf-8"?>
<!-- Generator: Adobe Illustrator 26.0.1, SVG Export Plug-In . SVG Version: 6.00 Build 0)  -->
<svg version="1.1" id="Layer_1" xmlns="http://www.w3.org/2000/svg" xmlns:xlink="http://www.w3.org/1999/xlink" x="0px" y="0px"
	 viewBox="0 0 16 16" style="enable-background:new 0 0 16 16;" xml:space="preserve">
<style type="text/css">
	.st0{fill:#FFFFFF;}
</style>
<g>
	<path class="st0" d="M11.9,14.7h2.8l0-4.9c0-2.4-0.5-4.2-3.3-4.2C10,5.5,9.1,6.3,8.7,7h0V5.8H6.1v8.9h2.8v-4.4C8.8,9.1,9,8,10.5,8
		c1.4,0,1.4,1.3,1.4,2.4V14.7z"/>
	<path class="st0" d="M1.3,2.9c0,0.9,0.7,1.6,1.6,1.6c0.9,0,1.6-0.7,1.6-1.6c0-0.9-0.7-1.6-1.6-1.6C2,1.3,1.3,2.1,1.3,2.9z"/>
	<path class="st0" d="M1.6,14.7h2.8V5.8H1.6V14.7z"/>
</g>
</svg>
