<svg id="Layer_1" data-name="Layer 1" xmlns="http://www.w3.org/2000/svg" xmlns:xlink="http://www.w3.org/1999/xlink" viewBox="0 0 36.43 208.01"><defs><style>.cls-1{fill:none;}.cls-2{clip-path:url(#clip-path);}.cls-3{clip-path:url(#clip-path-2);}.cls-4{clip-path:url(#clip-path-3);}.cls-5{clip-path:url(#clip-path-4);}</style><clipPath id="clip-path" transform="translate(-1.79 -1)"><rect class="cls-1" y="113" width="40" height="40"/></clipPath><clipPath id="clip-path-2" transform="translate(-1.79 -1)"><rect class="cls-1" y="169" width="40" height="40"/></clipPath><clipPath id="clip-path-3" transform="translate(-1.79 -1)"><rect class="cls-1" y="57" width="40" height="40"/></clipPath><clipPath id="clip-path-4" transform="translate(-1.79 -1)"><rect class="cls-1" y="1" width="40" height="40"/></clipPath></defs><g class="cls-2"><path d="M13.36,146.87a1.33,1.33,0,0,0-1.86.54c-.66,1.36,1.4,2.07,1,2.81a.61.61,0,0,1-.87.18,1.5,1.5,0,0,1-.73-.85.09.09,0,0,0-.13-.06l-.54.21a.1.1,0,0,0-.07.12,2,2,0,0,0,1.09,1.33,1.47,1.47,0,0,0,2-.53c.7-1.45-1.4-2.08-1.05-2.82a.51.51,0,0,1,.73-.17,1.35,1.35,0,0,1,.64.72c0,.06.07.07.13,0l.52-.24c.06,0,.08-.07,0-.13A1.86,1.86,0,0,0,13.36,146.87Z" transform="translate(-1.79 -1)"/><path d="M18,148.25a2.39,2.39,0,1,0,2,2.69A2.39,2.39,0,0,0,18,148.25Zm1.13,2.56a1.46,1.46,0,1,1-1.25-1.68,1.46,1.46,0,0,1,1.25,1.68Z" transform="translate(-1.79 -1)"/><path d="M24.19,148l-.73.12a.15.15,0,0,0-.11.08l-.62,1.67-1.12-1.39a.15.15,0,0,0-.13-.05l-.74.12c-.08,0-.1.06,0,.13l1.72,2.09.33,2.05a.09.09,0,0,0,.11.08l.7-.11a.09.09,0,0,0,.08-.11l-.33-2,1-2.55c0-.08,0-.12-.07-.11Z" transform="translate(-1.79 -1)"/><path d="M26.67,147a.14.14,0,0,0-.15,0l-.6.27a.11.11,0,0,0-.07.12l.35,4.71c0,.07.05.1.12.07l.67-.3a.1.1,0,0,0,.07-.12l-.08-.83,1.58-.71.56.61a.11.11,0,0,0,.13,0l.67-.3c.07,0,.08-.09,0-.13Zm.23,3.13-.19-1.95L28,149.63Z" transform="translate(-1.79 -1)"/><path d="M15.6,118.26l.71-.12a.1.1,0,0,0,.08-.12l-.54-3.12,2.33,2.84a.15.15,0,0,0,.13.05l.82-.14a.1.1,0,0,0,.08-.12l-.77-4.44a.1.1,0,0,0-.12-.08l-.71.12a.1.1,0,0,0-.08.12l.54,3.12-2.33-2.84a.12.12,0,0,0-.13,0l-.82.14a.1.1,0,0,0-.08.12l.77,4.45a.11.11,0,0,0,.12.06Z" transform="translate(-1.79 -1)"/><path d="M22.41,118a2.43,2.43,0,1,0-2-2.78,2.42,2.42,0,0,0,2,2.78Zm-1.09-2.62a1.49,1.49,0,1,1,1.23,1.73A1.46,1.46,0,0,1,21.32,115.38Z" transform="translate(-1.79 -1)"/><path d="M10.33,123.54a.34.34,0,0,0,0,.48l5.47,5.47a1.25,1.25,0,0,0,.37-.26l.16-.17-5.51-5.52a.36.36,0,0,0-.49,0Z" transform="translate(-1.79 -1)"/><path d="M29.41,143a.33.33,0,0,0,.24-.1.34.34,0,0,0,0-.48l-3.9-3.9c-.18.14-.37.27-.56.4l4,4A.33.33,0,0,0,29.41,143Z" transform="translate(-1.79 -1)"/><path d="M26.39,131.44a1.55,1.55,0,0,0,.66-.15,2.33,2.33,0,0,0,1.23-2.3v-.06a1.49,1.49,0,0,0-.82-1.21,1.47,1.47,0,0,0-1.44.14,2.32,2.32,0,0,0-1,2.49,1.48,1.48,0,0,0,.77,1A1.28,1.28,0,0,0,26.39,131.44Zm0-3a.92.92,0,0,1,.5-.16.72.72,0,0,1,.29.06.85.85,0,0,1,.44.7v0a1.67,1.67,0,0,1-.84,1.6.77.77,0,0,1-.66,0,.79.79,0,0,1-.41-.52,1.7,1.7,0,0,1,.68-1.74Z" transform="translate(-1.79 -1)"/><path d="M26.37,136.13a8,8,0,0,0,.89-2.19,3,3,0,0,1,.44-.95l.09-.12c.27-.38.54-.76.79-1.16a5.52,5.52,0,0,0,.9-2.31,3.4,3.4,0,0,0,0-.45v-.26l-.11-1a.24.24,0,0,0,0-.08l0,0,0,0c0-.12-.07-.25-.1-.38-.07-.29-.15-.58-.25-.87a7.58,7.58,0,0,0-.45-1,.55.55,0,0,0-.37-.32.57.57,0,0,0-.47.18c-.05,0-.11.1-.16.16a1.53,1.53,0,0,0-.27.11,1.68,1.68,0,0,1-1.21.12,3.09,3.09,0,0,0-2.93.84,9.23,9.23,0,0,0-.89,1l-.12.15a2,2,0,0,1-1.48.8c-.23,0-.46,0-.69.06a4,4,0,0,0-2.12.8,8.07,8.07,0,0,0-.86.8,2.08,2.08,0,0,1-1.38.7l-.47,0-.63,0-1,.07a3.41,3.41,0,0,0-2.43,1.38l-.7,1-.23.32a1.51,1.51,0,0,1-.87.61c-.13,0-.27.07-.39.12a.49.49,0,0,0-.34.35.46.46,0,0,0,.18.45.7.7,0,0,0,.18.12l.34.18c.27.15.55.3.84.43a14.74,14.74,0,0,0,2.68.92,5.27,5.27,0,0,0,1.12.14,3.13,3.13,0,0,0,1-.16,14.66,14.66,0,0,0,1.5-.61,5.37,5.37,0,0,1,1.78-.54l.28,0,.63-.06-.4.23-.55.31c-.29.16-.58.32-.86.5a3.41,3.41,0,0,0-1.58,2.3q-.12.59-.21,1.17l-.07.39a1.56,1.56,0,0,1-.52.93l-.3.28a.47.47,0,0,0-.15.46.45.45,0,0,0,.36.32l.21,0h.38l.69,0h.26a13.89,13.89,0,0,0,2.81-.35,4,4,0,0,0,1.93-1,14.49,14.49,0,0,0,1.08-1.21,5.63,5.63,0,0,1,1.37-1.27l.22-.14.6-.37a5.31,5.31,0,0,0,2-1.92Zm-8-1.35-.28,0a6.2,6.2,0,0,0-2,.6,12.2,12.2,0,0,1-1.43.58,3.41,3.41,0,0,1-1.8,0,13.15,13.15,0,0,1-2.55-.88c-.27-.12-.53-.26-.8-.4h0a2.25,2.25,0,0,0,1.14-.84l.23-.32c.23-.32.45-.63.69-.94a2.76,2.76,0,0,1,2-1.12l1-.07.63,0,.5,0a2.81,2.81,0,0,0,1.81-.92,6,6,0,0,1,.78-.73A3.37,3.37,0,0,1,20,129l.65-.06a2.67,2.67,0,0,0,2-1l.12-.15a10.71,10.71,0,0,1,.83-.94,2.42,2.42,0,0,1,2.31-.67l.22,0-.12,0-.17.06-.19.08-.16.07-.18.1-.14.09-.17.13-.12.1-.16.16-.11.11-.15.19a1.25,1.25,0,0,0-.09.12c-.05.08-.1.16-.14.24l-.06.1c-.06.12-.12.25-.17.38a10.56,10.56,0,0,0-.37,1.3l0,.17a2.84,2.84,0,0,1-.15.44,1.88,1.88,0,0,1-.84.92c-.2.11-.4.23-.59.36A3.94,3.94,0,0,0,20.44,133a6.94,6.94,0,0,0-.42,1.1c0,.1-.07.18-.1.27l-.08.16a4.53,4.53,0,0,1-.78.13,4,4,0,0,1-.65.1ZM24,137.5c-.21.12-.41.25-.61.38l-.22.14a6.14,6.14,0,0,0-1.53,1.41,12.14,12.14,0,0,1-1,1.15,3.37,3.37,0,0,1-1.62.79,13.33,13.33,0,0,1-2.68.33c-.29,0-.59,0-.89,0a2.21,2.21,0,0,0,.66-1.25l.07-.4c.07-.38.13-.77.21-1.15A2.74,2.74,0,0,1,17.67,137c.27-.17.55-.32.83-.48l.42-.24.13-.07.44-.26a2.73,2.73,0,0,0,.89-.9h0l0,0a1.59,1.59,0,0,0,.15-.29,3.12,3.12,0,0,0,.15-.39,6.15,6.15,0,0,1,.38-1,3,3,0,0,1,.87-1.05,3.8,3.8,0,0,1,.44-.31l.56-.34a2.65,2.65,0,0,0,1.31-1.79l0-.18a12.19,12.19,0,0,1,.34-1.22A2.39,2.39,0,0,1,26.12,127l.31-.09a2.4,2.4,0,0,0,1.21-.66,1.55,1.55,0,0,0,.21-.23l.09-.09.06-.06,0,0h0a5.91,5.91,0,0,1,.32.74c.09.26.16.53.23.82,0,.13.07.26.1.39a.69.69,0,0,0,0,.1l.11.94V129c0,.13,0,.26,0,.4a5,5,0,0,1-.79,2c-.25.39-.51.76-.78,1.13l-.09.12a3.52,3.52,0,0,0-.54,1.16,7.48,7.48,0,0,1-.82,2A5,5,0,0,1,24,137.5Z" transform="translate(-1.79 -1)"/><path d="M24.65,133a1.57,1.57,0,0,0-1.29-.24,2.32,2.32,0,0,0-1.28.79,2.36,2.36,0,0,0-.57,2.07A1.54,1.54,0,0,0,23,136.83l.27,0a2.52,2.52,0,0,0,2-2.65,1.6,1.6,0,0,0-.65-1.18Zm-1.47,3.15a.86.86,0,0,1-1-.68A1.66,1.66,0,0,1,22.6,134a1.56,1.56,0,0,1,.9-.56,1,1,0,0,1,.24,0,.87.87,0,0,1,.52.16,1,1,0,0,1,.37.69h0a1.84,1.84,0,0,1-1.45,1.91Z" transform="translate(-1.79 -1)"/><path d="M19.12,137.31a2.35,2.35,0,0,0-1.91,1.53,1.48,1.48,0,0,0,.12,1.42,1.43,1.43,0,0,0,1.22.64h.15a2.44,2.44,0,0,0,2.07-1.58,1.52,1.52,0,0,0-.13-1.4A1.49,1.49,0,0,0,19.12,137.31Zm1,1.79a1.79,1.79,0,0,1-1.5,1.12.76.76,0,0,1-.73-.34.83.83,0,0,1-.05-.8A1.69,1.69,0,0,1,19.22,138l.2,0a.73.73,0,0,1,.65.34A.85.85,0,0,1,20.12,139.1Z" transform="translate(-1.79 -1)"/><path d="M2.52,132.91A17.46,17.46,0,0,1,13.41,117a.36.36,0,0,0,.2-.47.37.37,0,0,0-.47-.2,18.21,18.21,0,0,0-3.93,31.54.35.35,0,0,0,.5-.08.37.37,0,0,0-.08-.51,17.54,17.54,0,0,1-7.11-14.34Z" transform="translate(-1.79 -1)"/><path d="M27,116.35a.35.35,0,0,0-.47.2.37.37,0,0,0,.2.48A17.49,17.49,0,0,1,30,147.53a.37.37,0,0,0,.21.67.35.35,0,0,0,.21-.07A18.22,18.22,0,0,0,27,116.35Z" transform="translate(-1.79 -1)"/></g><g class="cls-3"><path d="M29.72,181.9a1,1,0,0,0-.23-.64l-.48.07a23.48,23.48,0,0,0-4.51,1.14,12.22,12.22,0,0,0-3.59,2,4.14,4.14,0,0,0-1.41,2.16,4,4,0,0,0,.83,3.76c.27.32.29.33.66.16a13.7,13.7,0,0,0,1.33-.66,16.26,16.26,0,0,0,3.58-3,.67.67,0,0,0,.09-.14c-.48-.35-.58-.34-1,0s-.59.6-.92.87c-.63.52-1.26,1-1.91,1.51a4.62,4.62,0,0,1-1.39.68c-.09-.13-.18-.24-.25-.36a3.25,3.25,0,0,1,.53-4.11,9.12,9.12,0,0,1,2.63-1.76,19.75,19.75,0,0,1,4.1-1.3l1.14-.22a2,2,0,0,1,.05.34,18.41,18.41,0,0,1-.17,3.4,6.7,6.7,0,0,1-2,4.1,6.33,6.33,0,0,1-4.71,1.81c-.55,0-1.1-.13-1.64-.2a1,1,0,0,0-.92.28,5.86,5.86,0,0,0-1.5,2.27,8.57,8.57,0,0,0-.38,3.45,1.13,1.13,0,0,0,.68.92v-.62c0-.73,0-1.46.07-2.18a5.35,5.35,0,0,1,1.28-3,.94.94,0,0,1,1.15-.37,1.79,1.79,0,0,0,.51.11,7.86,7.86,0,0,0,4.39-.86,7,7,0,0,0,3.59-4.5,19,19,0,0,0,.4-5.16Z" transform="translate(-1.79 -1)"/><path d="M16.46,192.84l-.35-.05a5.3,5.3,0,0,1-4.19-3,3.13,3.13,0,0,1-.33-1.3,11.53,11.53,0,0,1,.49-4,2.5,2.5,0,0,1,.14-.3c.19.09.37.15.53.24.55.3,1.11.59,1.64.91a10.74,10.74,0,0,1,2.9,2.56,2.42,2.42,0,0,1-.43,3.56.22.22,0,0,1-.11,0l-.25-.18a7.05,7.05,0,0,1-1.45-1.68c-.28-.41-.53-.84-.81-1.24s-.47-.39-.77,0a9.79,9.79,0,0,0,3.46,4.07c.24-.23.47-.42.68-.65a3.26,3.26,0,0,0,.35-4.21,7.2,7.2,0,0,0-1.26-1.44A16.5,16.5,0,0,0,12,183.27a1.09,1.09,0,0,0-.17,0,1.84,1.84,0,0,0-.36.81c-.18,1.09-.37,2.18-.55,3.27a4,4,0,0,0,0,1.61,5.88,5.88,0,0,0,4,4.38,4.7,4.7,0,0,0,2,.14C16.92,193,16.83,192.9,16.46,192.84Z" transform="translate(-1.79 -1)"/><path d="M7.86,198.34,7,197.25a.1.1,0,0,0-.14,0l-3.52,2.68a.1.1,0,0,0,0,.14l.43.56a.1.1,0,0,0,.14,0l1.2-.91.34.45a1.49,1.49,0,0,0,2.22.42,1.48,1.48,0,0,0,.18-2.25Zm-.7,1.56c-.43.33-.81.1-1.07-.23l-.33-.43,1.12-.86.33.43a.71.71,0,0,1,0,1.09Z" transform="translate(-1.79 -1)"/><path d="M10.78,201.25l-1.09-.82a.09.09,0,0,0-.14,0L6.9,204a.09.09,0,0,0,0,.14l.57.42a.09.09,0,0,0,.14,0l.9-1.2.31.23-.13,1.83a.11.11,0,0,0,0,.12l.6.45c.06,0,.12,0,.12-.05l.11-1.9a1.4,1.4,0,0,0,1.62-.54A1.47,1.47,0,0,0,10.78,201.25Zm-.25,1.7a.71.71,0,0,1-1.09.07L9,202.69l.85-1.13.43.33a.7.7,0,0,1,.24,1.06Z" transform="translate(-1.79 -1)"/><path d="M15.09,203.49a2.38,2.38,0,1,0,1.48,3,2.38,2.38,0,0,0-1.48-3Zm.61,2.73a1.46,1.46,0,1,1-.89-1.89A1.44,1.44,0,0,1,15.7,206.22Z" transform="translate(-1.79 -1)"/><path d="M19.69,204.36l-1.3,0a.09.09,0,0,0-.1.1l.07,4.43a.09.09,0,0,0,.1.1l1.3,0a2.32,2.32,0,1,0-.07-4.63Zm.06,3.82h-.5l-.05-3h.5a1.51,1.51,0,0,1,.05,3Z" transform="translate(-1.79 -1)"/><path d="M26.47,203.14a.09.09,0,0,0-.13-.06l-.67.22a.09.09,0,0,0-.06.12l.85,2.59c.2.62,0,1.05-.49,1.21s-.92-.06-1.12-.68L24,204a.09.09,0,0,0-.13-.06l-.67.22a.09.09,0,0,0-.06.12l.85,2.59a1.76,1.76,0,1,0,3.33-1.09Z" transform="translate(-1.79 -1)"/><path d="M32.87,203.42l-.63-.12a.1.1,0,0,0-.12.08,1.51,1.51,0,0,1-.61.93,1.5,1.5,0,0,1-1.76-2.42,1.56,1.56,0,0,1,1.08-.3c.06,0,.1,0,.11-.09l.08-.64a.08.08,0,0,0-.08-.11,2.26,2.26,0,0,0-1.7.41A2.38,2.38,0,0,0,32,205a2.27,2.27,0,0,0,.91-1.49c0-.05,0-.09-.08-.1Z" transform="translate(-1.79 -1)"/><path d="M33,198.51l.61-.79a.09.09,0,0,0,0-.14l-.48-.37a.09.09,0,0,0-.14,0l-1.77,2.3a.09.09,0,0,0,0,.14l.48.37a.09.09,0,0,0,.14,0l.61-.8,2.95,2.27a.09.09,0,0,0,.14,0l.43-.56a.09.09,0,0,0,0-.14Z" transform="translate(-1.79 -1)"/><path d="M10.83,176.59a.12.12,0,0,0,.14,0l.54-.38a.14.14,0,0,0,.06-.14l-1.2-4.56c0-.07-.07-.09-.13,0l-.6.42a.11.11,0,0,0-.05.13l1,3.42L7.73,173.3a.11.11,0,0,0-.14,0l-.6.42a.08.08,0,0,0,0,.14Z" transform="translate(-1.79 -1)"/><path d="M14.07,174.81l2.32-.76a.09.09,0,0,0,.06-.13l-.19-.57a.09.09,0,0,0-.13-.06l-1.55.51-.37-1.12,1.45-.47a.09.09,0,0,0,.06-.12l-.19-.57a.09.09,0,0,0-.13-.06l-1.45.47-.32-1,1.54-.51a.09.09,0,0,0,.06-.12l-.19-.57a.09.09,0,0,0-.13-.06l-2.31.75a.09.09,0,0,0-.06.13l1.37,4.21a.19.19,0,0,0,.16,0Z" transform="translate(-1.79 -1)"/><path d="M19.85,173.76a2.08,2.08,0,0,0,2.08-2.23v-.39a.09.09,0,0,0-.1-.1l-2,0a.09.09,0,0,0-.1.1v.56a.09.09,0,0,0,.1.1l1.22,0a1.13,1.13,0,0,1-1.23,1.06,1.5,1.5,0,0,1-.09-3,1.52,1.52,0,0,1,1.05.38.09.09,0,0,0,.14,0l.43-.48c.05-.05,0-.09,0-.14a2.26,2.26,0,0,0-1.63-.64,2.38,2.38,0,1,0,.12,4.76Z" transform="translate(-1.79 -1)"/><path d="M23.33,174a.1.1,0,0,0,.13,0l.48-.68,1.65.51,0,.83a.11.11,0,0,0,.08.11l.7.21c.07,0,.11,0,.11-.08l-.24-4.71a.12.12,0,0,0-.1-.11l-.63-.19a.11.11,0,0,0-.13,0l-2.83,3.77a.08.08,0,0,0,0,.13Zm2.2-2.94,0,2-1.19-.36Z" transform="translate(-1.79 -1)"/><path d="M28.07,175.91a.09.09,0,0,0,.14,0l1.8-2.53L29.64,177a.12.12,0,0,0,.06.12l.66.47a.1.1,0,0,0,.14,0l2.57-3.61a.1.1,0,0,0,0-.14l-.58-.41a.1.1,0,0,0-.14,0l-1.8,2.53.37-3.59a.12.12,0,0,0-.06-.12l-.66-.47a.11.11,0,0,0-.14,0l-2.57,3.61a.1.1,0,0,0,0,.14Z" transform="translate(-1.79 -1)"/><path d="M4,197.35a.32.32,0,0,0,.16,0,.36.36,0,0,0,.16-.49,17.47,17.47,0,0,1,3.31-20.07.36.36,0,0,0-.51-.51,18.21,18.21,0,0,0-3.46,20.91.4.4,0,0,0,.34.2Z" transform="translate(-1.79 -1)"/><path d="M32.69,176.59a.35.35,0,0,0,0,.51,17.46,17.46,0,0,1,2.5,20.63.35.35,0,0,0,.14.49.41.41,0,0,0,.18.05.38.38,0,0,0,.32-.18,18.2,18.2,0,0,0-2.6-21.48A.38.38,0,0,0,32.69,176.59Z" transform="translate(-1.79 -1)"/></g><g class="cls-4"><path d="M12.28,90.29l-1.14-.63a.09.09,0,0,0-.13,0L8.88,93.59a.09.09,0,0,0,0,.13l1.14.63a2.32,2.32,0,1,0,2.22-4.06ZM12.49,93a1.36,1.36,0,0,1-2.05.6L10,93.4l1.46-2.66.43.24A1.38,1.38,0,0,1,12.49,93Z" transform="translate(-1.79 -1)"/><path d="M17.09,92.1,16.44,92a.13.13,0,0,0-.13.05l-2.5,4c0,.06,0,.11,0,.13l.72.15a.12.12,0,0,0,.13-.05l.42-.71,1.69.36.09.83a.11.11,0,0,0,.09.1l.72.15c.07,0,.11,0,.1-.09l-.64-4.67A.11.11,0,0,0,17.09,92.1Zm-1.57,2.77,1-1.69.22,1.95Z" transform="translate(-1.79 -1)"/><path d="M20.63,92.36h-.71a.09.09,0,0,0-.1.1l.08,4.43a.09.09,0,0,0,.1.1h.71a.09.09,0,0,0,.1-.1l-.08-4.43A.09.09,0,0,0,20.63,92.36Z" transform="translate(-1.79 -1)"/><path d="M24.83,94.64a1.41,1.41,0,0,0,.62-1.6,1.49,1.49,0,0,0-2-1.08l-1.33.32a.09.09,0,0,0-.07.12l1,4.31a.09.09,0,0,0,.12.07l.69-.16A.09.09,0,0,0,24,96.5L23.62,95l.37-.09,1.33,1.27a.13.13,0,0,0,.13,0l.73-.17c.08,0,.1-.07,0-.13ZM24,94.13l-.53.13-.33-1.38.53-.13c.41-.1.85,0,1,.49S24.37,94,24,94.13Z" transform="translate(-1.79 -1)"/><path d="M29,92.43l0-2.72c0-.08-.05-.11-.12-.07l-.65.36a.12.12,0,0,0-.07.12l0,1.78L26.62,91a.12.12,0,0,0-.14,0l-.65.36c-.07,0-.07.09,0,.14l2.32,1.39,1,1.81a.09.09,0,0,0,.13,0l.62-.34a.09.09,0,0,0,0-.13Z" transform="translate(-1.79 -1)"/><path d="M15.6,62.25l.71-.12a.1.1,0,0,0,.08-.12l-.54-3.12,2.33,2.84a.15.15,0,0,0,.13.05l.82-.14a.1.1,0,0,0,.08-.12l-.77-4.45a.1.1,0,0,0-.12-.08l-.71.12a.1.1,0,0,0-.08.12l.54,3.12-2.33-2.84a.15.15,0,0,0-.13,0l-.82.14a.1.1,0,0,0-.08.12l.77,4.45A.09.09,0,0,0,15.6,62.25Z" transform="translate(-1.79 -1)"/><path d="M22.4,62a2.42,2.42,0,1,0-2-2.77A2.41,2.41,0,0,0,22.4,62Zm-1.09-2.63a1.49,1.49,0,1,1,1.23,1.73A1.49,1.49,0,0,1,21.31,59.38Z" transform="translate(-1.79 -1)"/><path d="M10.32,67.47a.34.34,0,0,0,0,.48l3,3,.38-.58L10.8,67.47A.34.34,0,0,0,10.32,67.47Z" transform="translate(-1.79 -1)"/><path d="M29.4,86.89a.33.33,0,0,0,.24-.1.34.34,0,0,0,0-.48L27.43,84.1v1l1.73,1.73A.37.37,0,0,0,29.4,86.89Z" transform="translate(-1.79 -1)"/><path d="M20.18,88.57c1.11-.43,2.23-.84,3.35-1.26l2.33-.87a.46.46,0,0,0,.36-.52,1,1,0,0,1,0-.17q0-6.52,0-13.06a.6.6,0,0,0-.28-.54c-.81-.59-1.61-1.2-2.43-1.78a.6.6,0,0,1-.28-.55c0-.49,0-1,0-1.49a.54.54,0,0,0-.4-.59l-5.51-2.09c-.43-.16-.6,0-.6.42s0,1,0,1.44a1.24,1.24,0,0,1-.25.81l-2.57,3.85a.81.81,0,0,0-.18.48c0,2.21,0,4.43,0,6.64h0v3.19c0,1.15,0,2.3,0,3.45a.53.53,0,0,0,.4.59l.9.33,4.59,1.69a.72.72,0,0,0,.54,0Zm5.38-15.2v12.1c0,.39,0,.39-.33.51l-4.62,1.71-.27.07V74.91L25.53,73C25.54,73.15,25.56,73.26,25.56,73.37ZM23,70.76l2,1.5.16.09a34.11,34.11,0,0,1-4.27,1.57ZM17.42,66.4l.42.13,4.39,1.67c.36.14.36.14.37.53v1.09l-5.19-1.94A12.22,12.22,0,0,1,17.42,66.4Zm2.25,21a3.74,3.74,0,0,1,0,.41l-5.19-1.91V73l.32.09,4.5,1.65c.39.15.4.15.4.55ZM14.59,72.35l2.55-3.83,5.23,2-2.51,3.81C18.11,73.67,16.38,73,14.59,72.35Z" transform="translate(-1.79 -1)"/><path d="M8.84,90.55A17.48,17.48,0,0,1,13.41,60.9a.36.36,0,0,0-.27-.67A18.2,18.2,0,0,0,8.38,91.1a.34.34,0,0,0,.23.08.39.39,0,0,0,.28-.13A.34.34,0,0,0,8.84,90.55Z" transform="translate(-1.79 -1)"/><path d="M27,60.28a.36.36,0,1,0-.27.67,17.47,17.47,0,0,1,4.45,29.59.36.36,0,0,0-.05.51.35.35,0,0,0,.28.13.4.4,0,0,0,.23-.08A18.2,18.2,0,0,0,27,60.28Z" transform="translate(-1.79 -1)"/></g><g class="cls-5"><path d="M8.54,31a2.38,2.38,0,1,0-.24,3.35A2.38,2.38,0,0,0,8.54,31ZM7.7,33.68a1.46,1.46,0,1,1,.18-2.08A1.44,1.44,0,0,1,7.7,33.68Z" transform="translate(-1.79 -1)"/><path d="M12.2,34.14,11,33.45a.09.09,0,0,0-.14,0L8.63,37.3a.1.1,0,0,0,0,.14l.61.36a.1.1,0,0,0,.14,0l.77-1.3.33.19.08,1.83a.13.13,0,0,0,.07.12l.65.38c.07,0,.12,0,.12-.07l-.1-1.9a1.4,1.4,0,0,0,1.55-.72A1.49,1.49,0,0,0,12.2,34.14Zm-.06,1.71c-.27.47-.71.4-1.08.19l-.47-.27.72-1.22.47.27A.71.71,0,0,1,12.14,35.85Z" transform="translate(-1.79 -1)"/><path d="M18.27,38.37l-1.94-.44a.1.1,0,0,0-.12.07l-.12.55a.1.1,0,0,0,.07.12l1.19.27a1.13,1.13,0,0,1-1.45.73,1.5,1.5,0,0,1,.64-2.92,1.54,1.54,0,0,1,.93.62.09.09,0,0,0,.14,0l.53-.36a.08.08,0,0,0,0-.13,2.26,2.26,0,0,0-1.42-1,2.38,2.38,0,1,0-1,4.65,2.06,2.06,0,0,0,2.55-1.66l.09-.38C18.36,38.43,18.33,38.38,18.27,38.37Z" transform="translate(-1.79 -1)"/><path d="M21.78,36.27a.14.14,0,0,0-.13-.07l-.66.06a.13.13,0,0,0-.11.09L19.66,40.9c0,.07,0,.11.09.11l.73-.06a.11.11,0,0,0,.11-.09l.2-.81,1.72-.15.33.76a.12.12,0,0,0,.12.07l.73-.06c.07,0,.1-.05.07-.12Zm-.82,3,.46-1.9.78,1.8Z" transform="translate(-1.79 -1)"/><path d="M27.69,34.45a.09.09,0,0,0-.13-.05l-.65.27a.09.09,0,0,0-.05.13l1.21,2.86-2.86-2.19a.12.12,0,0,0-.13,0l-.75.32a.09.09,0,0,0,0,.13L26,40a.09.09,0,0,0,.13.05l.65-.27a.09.09,0,0,0,0-.13l-1.21-2.86L28.48,39a.12.12,0,0,0,.13,0l.75-.32a.09.09,0,0,0,.05-.13Z" transform="translate(-1.79 -1)"/><path d="M29.47,33.12a.09.09,0,0,0-.14,0l-.57.42a.09.09,0,0,0,0,.14l2.63,3.56a.09.09,0,0,0,.14,0l.57-.42a.09.09,0,0,0,0-.14Z" transform="translate(-1.79 -1)"/><path d="M35.92,31.86l-.64,0a.08.08,0,0,0-.09.1A1.52,1.52,0,0,1,34.82,33a1.5,1.5,0,0,1-2.29-1.93,1.52,1.52,0,0,1,1-.54.09.09,0,0,0,.08-.11l-.08-.64c0-.07,0-.09-.11-.09a2.25,2.25,0,0,0-1.55.8,2.38,2.38,0,0,0,3.64,3.07A2.27,2.27,0,0,0,36,31.94.08.08,0,0,0,35.92,31.86Z" transform="translate(-1.79 -1)"/><path d="M14.63,6.51l1.52-.4c1.12-.29,1.53-.88,1.31-1.72a1.18,1.18,0,0,0-1.18-.87,1,1,0,0,0,.32-1.09A1.2,1.2,0,0,0,15,1.65l-1.52.4a.09.09,0,0,0-.07.12l1.12,4.28A.11.11,0,0,0,14.63,6.51Zm1.94-2c.11.42-.12.69-.59.81l-.77.2-.32-1.21.77-.2C16.13,4,16.46,4.12,16.57,4.52ZM15.1,2.43c.35-.09.62,0,.71.31s-.09.58-.45.68l-.66.17-.26-1Z" transform="translate(-1.79 -1)"/><path d="M19.13,5.64l.71,0a.09.09,0,0,0,.1-.1L19.79,1.1a.09.09,0,0,0-.1-.1L19,1a.09.09,0,0,0-.1.1L19,5.54C19,5.61,19.07,5.65,19.13,5.64Z" transform="translate(-1.79 -1)"/><path d="M23.46,6.1a2.38,2.38,0,1,0-1.78-2.84A2.39,2.39,0,0,0,23.46,6.1Zm-.89-2.64a1.45,1.45,0,0,1,1.76-1.13,1.46,1.46,0,0,1,1.09,1.79,1.46,1.46,0,1,1-2.85-.66Z" transform="translate(-1.79 -1)"/><path d="M16.61,14.86c-.11,0-.12,0,0,.08l.75.42c.1.06.16.16.14.23l-.15.57c0,.07,0,.1.1.07L18,16a.4.4,0,0,1,.31.05,8,8,0,0,1,.68.51c.09.08.12.07.08,0-.12-.28-.18-.41-.31-.67,0-.09,0-.18.06-.21.24-.1.36-.12.59-.2.07,0,.06-.07-.05-.1-.38-.1-.49-.13-.81-.19a.43.43,0,0,1-.28-.19c-.14-.26-.21-.38-.36-.64-.05-.08-.1-.09-.12,0l-.15.57a.21.21,0,0,1-.23.11Z" transform="translate(-1.79 -1)"/><path d="M13.25,17.39c.32.07.48.11.79.2a.16.16,0,0,1,.13.2c-.09.24-.13.31-.25.6,0,.09,0,.1.11,0l.71-.44a.38.38,0,0,1,.33,0,5.77,5.77,0,0,1,.7.36c.09.05.13,0,.09-.05l-.3-.58a.16.16,0,0,1,.08-.21c.25-.15.33-.23.62-.41.08-.05.06-.09,0-.09l-.82.06a.31.31,0,0,1-.27-.13c-.13-.22-.19-.33-.33-.55,0-.07-.1-.07-.13,0s-.12.35-.21.58a.35.35,0,0,1-.26.16l-.92.16C13.16,17.33,13.14,17.37,13.25,17.39Z" transform="translate(-1.79 -1)"/><path d="M11.52,20.39c-.12,0-.15.05-.07.09a5,5,0,0,1,.61.33.16.16,0,0,1,0,.23l-.49.61c-.07.08,0,.1.08.05.33-.16.5-.23.82-.37a.31.31,0,0,1,.31,0l.49.44c.06.06.11,0,.11,0,0-.25,0-.38,0-.63a.3.3,0,0,1,.18-.22c.3-.11.44-.17.72-.26.09,0,.09-.07,0-.09a6.66,6.66,0,0,0-.76-.12.23.23,0,0,1-.2-.17c0-.25,0-.37-.07-.61,0-.08-.06-.08-.12,0l-.43.59a.41.41,0,0,1-.3.14A5.36,5.36,0,0,0,11.52,20.39Z" transform="translate(-1.79 -1)"/><path d="M17.5,24.51c.08,0,.07-.09,0-.1a4.54,4.54,0,0,0-.74,0,.23.23,0,0,1-.22-.16c-.07-.28-.11-.41-.18-.67,0-.09-.07-.09-.11,0l-.29.7a.34.34,0,0,1-.25.18c-.31,0-.46,0-.78.08-.1,0-.12.06,0,.11.24.14.36.22.59.37a.23.23,0,0,1,.07.27c-.12.31-.19.46-.31.78,0,.1,0,.13.08.06l.67-.53a.26.26,0,0,1,.29,0l.56.46c.07.06.12,0,.1-.07-.06-.31-.09-.46-.16-.75a.3.3,0,0,1,.11-.28A6.81,6.81,0,0,1,17.5,24.51Z" transform="translate(-1.79 -1)"/><path d="M20.48,25.52l.58.53c.08.07.11.05.08,0-.1-.27-.15-.4-.24-.66a.16.16,0,0,1,.07-.21l.54-.19c.07,0,0-.07,0-.09l-.69-.22a.34.34,0,0,1-.21-.21c-.09-.27-.13-.4-.22-.66,0-.09-.07-.1-.09,0l-.2.53a.16.16,0,0,1-.21.07l-.68-.22c-.09,0-.1,0,0,.08l.55.56a.29.29,0,0,1,.08.27c-.08.23-.13.34-.21.59,0,.08,0,.12.09.08l.56-.25A.25.25,0,0,1,20.48,25.52Z" transform="translate(-1.79 -1)"/><path d="M24.79,25c-.13-.25-.2-.38-.32-.63a.15.15,0,0,1,.06-.21l.59-.23c.08,0,.06-.07,0-.09a5.06,5.06,0,0,1-.77-.18.4.4,0,0,1-.24-.22c-.11-.28-.17-.41-.27-.69,0-.09-.08-.11-.1,0l-.18.53c0,.07-.12.09-.21.06L22.59,23c-.09,0-.11,0,0,.08l.61.61a.33.33,0,0,1,.11.27c-.07.21-.1.32-.17.54s0,.11.09.09l.55-.18a.37.37,0,0,1,.29.1,5.47,5.47,0,0,0,.67.52C24.79,25.07,24.83,25.05,24.79,25Z" transform="translate(-1.79 -1)"/><path d="M27.47,21.5c.07-.05.06-.09,0-.09-.29,0-.43,0-.71,0a.26.26,0,0,1-.22-.15l-.23-.6c0-.08-.07-.08-.1,0-.06.24-.1.35-.17.57a.17.17,0,0,1-.2.1c-.27-.05-.39-.07-.65-.14-.08,0-.1,0,0,.07s.32.29.54.46a.22.22,0,0,1,.09.21c-.07.19-.1.28-.16.47s0,.09.08.06l.51-.22a.31.31,0,0,1,.26,0c.23.15.34.21.58.34.08,0,.11,0,.08,0s-.15-.29-.25-.5a.16.16,0,0,1,.07-.2A6.39,6.39,0,0,0,27.47,21.5Z" transform="translate(-1.79 -1)"/><path d="M29.38,17.87c.07-.07.06-.1,0-.07l-.66.25A.14.14,0,0,1,28.5,18c-.07-.21-.1-.32-.16-.54s-.06-.06-.09,0c-.09.27-.14.39-.23.65a.34.34,0,0,1-.2.19c-.25.06-.37.08-.62.12-.08,0-.09.05,0,.09l.48.26a.16.16,0,0,1,.06.2c-.08.24-.14.36-.21.59,0,.07,0,.09.07,0l.52-.46a.27.27,0,0,1,.25-.07,4.48,4.48,0,0,0,.52.16c.07,0,.11,0,.08-.08s-.12-.28-.19-.47a.26.26,0,0,1,.09-.24Z" transform="translate(-1.79 -1)"/><path d="M26.15,14.69c-.07.27-.1.4-.17.65a.2.2,0,0,1-.18.15h-.58c-.08,0-.09,0,0,.08a5.71,5.71,0,0,0,.48.38.21.21,0,0,1,.08.21l-.15.54c0,.07,0,.09.07.05l.45-.36a.2.2,0,0,1,.22,0c.19.11.29.17.49.27s.09,0,.07-.06l-.2-.52a.22.22,0,0,1,.06-.23c.19-.15.29-.2.49-.36s0-.09,0-.08l-.61,0a.21.21,0,0,1-.19-.12c-.08-.23-.12-.35-.2-.6C26.21,14.6,26.17,14.6,26.15,14.69Z" transform="translate(-1.79 -1)"/><path d="M21.57,15.25a.26.26,0,0,1,.09.23c-.06.19-.1.29-.17.47s0,.1.08.08l.49-.16a.26.26,0,0,1,.24.08c.2.21.31.31.51.51s.1.06.07,0c-.08-.25-.11-.37-.2-.62a.17.17,0,0,1,.07-.2l.53-.21c.07,0,.06-.07,0-.1l-.66-.19a.36.36,0,0,1-.2-.2c-.09-.26-.13-.39-.22-.66,0-.08-.07-.09-.1,0s-.11.33-.18.54a.16.16,0,0,1-.2.08L21,14.66c-.09,0-.09,0,0,.07Z" transform="translate(-1.79 -1)"/><path d="M31.45,14.52q.09-.09,0-.06l-.61.2a.13.13,0,0,1-.18-.06c-.06-.18-.09-.27-.14-.46s-.06-.05-.09,0c-.09.24-.14.35-.24.59a.36.36,0,0,1-.21.19l-.63.19c-.08,0-.1.06,0,.09s.28.11.48.17a.13.13,0,0,1,.06.17l-.24.57c0,.07,0,.08.07,0l.55-.5a.29.29,0,0,1,.25-.09,4.17,4.17,0,0,0,.51.08c.07,0,.1,0,.08-.07l-.19-.38a.22.22,0,0,1,.08-.21Z" transform="translate(-1.79 -1)"/><path d="M22.91,18.61a22.42,22.42,0,0,0-6.51,2.47,30.2,30.2,0,0,0-4.77,3.27c-.18.14-.31.14-.34.06-.11-.29-.17-.45-.26-.72,0-.08-.1-.07-.14,0-.12.39-.17.62-.29,1a.62.62,0,0,1-.28.38l-.76.52c-.09.06-.14.13,0,.17l.46.08c.19,0,.13.17.1.28-.08.33-.11.45-.22.79,0,.11,0,.12.1,0l.65-.69c.11-.11.21-.25.33-.22l.71.13c.18,0,.18-.05.13-.16-.13-.34-.11-.29-.21-.58a.35.35,0,0,1,.07-.36,24.13,24.13,0,0,1,4.62-3.63,23.65,23.65,0,0,1,6.57-2.74C23.05,18.67,23.07,18.6,22.91,18.61Z" transform="translate(-1.79 -1)"/><path d="M2.55,21A17.36,17.36,0,0,1,12.31,5.37.37.37,0,1,0,12,4.71,18.2,18.2,0,0,0,3.64,29a.35.35,0,0,0,.33.2.32.32,0,0,0,.16,0,.36.36,0,0,0,.17-.48A17,17,0,0,1,2.55,21Z" transform="translate(-1.79 -1)"/><path d="M27.68,5.36a17.45,17.45,0,0,1,7.67,24,.35.35,0,0,0,.15.49.33.33,0,0,0,.17,0,.37.37,0,0,0,.32-.19,18.18,18.18,0,0,0-8-25,.37.37,0,0,0-.49.17A.36.36,0,0,0,27.68,5.36Z" transform="translate(-1.79 -1)"/></g></svg>