<?xml version="1.0" encoding="utf-8"?>
<!-- Generator: Adobe Illustrator 26.0.1, SVG Export Plug-In . SVG Version: 6.00 Build 0)  -->
<svg version="1.1" id="Layer_1" xmlns="http://www.w3.org/2000/svg" xmlns:xlink="http://www.w3.org/1999/xlink" x="0px" y="0px"
	 viewBox="0 0 40 270" style="enable-background:new 0 0 40 270;" xml:space="preserve">
<style type="text/css">
	.st0{clip-path:url(#SVGID_00000150061953327412071050000014352819757237312432_);}
	.st1{clip-path:url(#SVGID_00000077292357601643341850000014730898621489673611_);}
	.st2{clip-path:url(#SVGID_00000069360223694452082390000010851693899674764206_);}
	.st3{clip-path:url(#SVGID_00000064354921528629297920000005871075378177130930_);}
</style>
<g>
	<g>
		<defs>
			<rect id="SVGID_1_" y="171" width="40" height="40"/>
		</defs>
		<clipPath id="SVGID_00000165948461374176703570000012880998149290763408_">
			<use xlink:href="#SVGID_1_"  style="overflow:visible;"/>
		</clipPath>
		<g style="clip-path:url(#SVGID_00000165948461374176703570000012880998149290763408_);">
			<path d="M13.36,204.87c-0.69-0.33-1.51-0.19-1.86,0.54c-0.66,1.36,1.4,2.07,1.04,2.81c-0.14,0.3-0.52,0.35-0.87,0.18
				c-0.36-0.18-0.57-0.46-0.73-0.85c-0.03-0.07-0.08-0.08-0.13-0.06l-0.54,0.21c-0.06,0.02-0.08,0.07-0.07,0.12
				c0.08,0.47,0.48,1.03,1.09,1.33c0.73,0.35,1.66,0.25,2.04-0.53c0.7-1.45-1.4-2.08-1.05-2.82c0.12-0.24,0.4-0.33,0.73-0.17
				c0.3,0.14,0.45,0.35,0.64,0.72c0.03,0.06,0.07,0.07,0.13,0.04l0.52-0.24c0.06-0.03,0.08-0.07,0.05-0.13
				C14.2,205.54,13.88,205.12,13.36,204.87z"/>
			<path d="M17.95,206.25c-1.3-0.17-2.5,0.73-2.68,2.05c-0.18,1.31,0.75,2.5,2.04,2.68c1.3,0.17,2.5-0.73,2.68-2.04
				C20.17,207.62,19.25,206.43,17.95,206.25z M19.08,208.81c-0.11,0.84-0.83,1.4-1.65,1.29s-1.36-0.84-1.25-1.68
				c0.11-0.85,0.83-1.4,1.65-1.29S19.19,207.97,19.08,208.81L19.08,208.81z"/>
			<path d="M24.19,205.96l-0.73,0.12c-0.05,0.01-0.09,0.04-0.11,0.08l-0.62,1.67l-1.12-1.39c-0.03-0.04-0.08-0.05-0.13-0.05
				l-0.74,0.12c-0.08,0.01-0.1,0.06-0.05,0.13l1.72,2.09l0.33,2.05c0.01,0.06,0.05,0.09,0.11,0.08l0.7-0.11
				c0.06-0.01,0.09-0.05,0.08-0.11l-0.33-2.02l0.96-2.55C24.3,205.99,24.27,205.95,24.19,205.96L24.19,205.96z"/>
			<path d="M26.67,205.01c-0.04-0.04-0.1-0.04-0.15-0.02l-0.6,0.27c-0.05,0.02-0.07,0.06-0.07,0.12l0.35,4.71
				c0,0.07,0.05,0.1,0.12,0.07l0.67-0.3c0.05-0.02,0.08-0.06,0.07-0.12l-0.08-0.83l1.58-0.71l0.56,0.61
				c0.04,0.04,0.09,0.05,0.13,0.03l0.67-0.3c0.07-0.03,0.08-0.09,0.03-0.13L26.67,205.01z M26.9,208.14l-0.19-1.95l1.33,1.44
				L26.9,208.14z"/>
			<path d="M15.6,176.26l0.71-0.12c0.06-0.01,0.09-0.06,0.08-0.12l-0.54-3.12l2.33,2.84c0.03,0.04,0.08,0.05,0.13,0.05l0.82-0.14
				c0.06-0.01,0.09-0.06,0.08-0.12l-0.77-4.44c-0.01-0.06-0.06-0.09-0.12-0.08l-0.71,0.12c-0.06,0.01-0.09,0.06-0.08,0.12l0.54,3.12
				l-2.33-2.84c-0.03-0.04-0.08-0.05-0.13-0.04l-0.82,0.14c-0.06,0.01-0.09,0.06-0.08,0.12l0.77,4.45
				C15.49,176.23,15.54,176.27,15.6,176.26L15.6,176.26z"/>
			<path d="M22.41,176c1.32,0.21,2.56-0.69,2.77-2.02c0.21-1.34-0.7-2.57-2.02-2.78c-1.32-0.21-2.56,0.69-2.77,2.02
				C20.18,174.56,21.09,175.8,22.41,176L22.41,176z M21.32,173.38c0.13-0.86,0.88-1.41,1.71-1.28s1.37,0.88,1.23,1.74
				c-0.13,0.85-0.87,1.4-1.71,1.27S21.18,174.23,21.32,173.38z"/>
			<path d="M10.33,181.54c-0.13,0.13-0.13,0.35,0,0.48l5.47,5.46c0.13-0.06,0.25-0.14,0.37-0.26c0.05-0.06,0.11-0.11,0.16-0.17
				l-5.51-5.52C10.68,181.41,10.46,181.41,10.33,181.54L10.33,181.54z"/>
			<path d="M29.41,200.96c0.09,0,0.17-0.03,0.24-0.1c0.13-0.13,0.13-0.35,0-0.48l-3.9-3.9c-0.18,0.14-0.37,0.27-0.56,0.4l3.98,3.98
				C29.24,200.93,29.32,200.96,29.41,200.96z"/>
			<path d="M26.39,189.44c0.22,0,0.45-0.05,0.66-0.15c0.81-0.38,1.33-1.36,1.23-2.3l-0.01-0.06c-0.07-0.56-0.37-0.99-0.82-1.21
				c-0.45-0.21-0.98-0.16-1.44,0.14c-0.8,0.51-1.21,1.58-0.96,2.49c0.12,0.44,0.4,0.78,0.77,0.96C26,189.4,26.2,189.44,26.39,189.44
				z M26.38,186.43c0.17-0.11,0.34-0.16,0.5-0.16c0.1,0,0.2,0.02,0.29,0.06c0.24,0.11,0.39,0.36,0.44,0.7c0,0,0,0.02,0,0.03
				c0.07,0.63-0.31,1.35-0.84,1.6c-0.23,0.11-0.47,0.12-0.66,0.03s-0.34-0.27-0.41-0.52C25.54,187.56,25.84,186.78,26.38,186.43
				L26.38,186.43z"/>
			<path d="M26.37,194.13c0.37-0.6,0.64-1.27,0.89-2.19c0.09-0.35,0.24-0.66,0.44-0.95l0.09-0.12c0.27-0.38,0.54-0.76,0.79-1.16
				c0.51-0.79,0.8-1.54,0.9-2.31c0.02-0.15,0.03-0.3,0.03-0.45l0.01-0.2c0-0.02,0-0.04,0-0.06l-0.11-1.01
				c0-0.03-0.01-0.05-0.02-0.08l-0.02-0.04l-0.02-0.04c-0.03-0.12-0.07-0.25-0.1-0.38c-0.07-0.29-0.15-0.58-0.25-0.87
				c-0.12-0.35-0.28-0.68-0.45-1.01c-0.04-0.07-0.14-0.28-0.37-0.32c-0.23-0.04-0.4,0.12-0.47,0.18c-0.05,0.05-0.11,0.1-0.16,0.16
				c-0.09,0.03-0.18,0.06-0.27,0.11c-0.38,0.19-0.77,0.23-1.21,0.12c-1.07-0.25-2.08,0.04-2.93,0.84c-0.33,0.31-0.62,0.66-0.89,1
				l-0.12,0.15c-0.41,0.5-0.89,0.76-1.48,0.79c-0.23,0.01-0.46,0.04-0.69,0.06c-0.88,0.1-1.57,0.36-2.12,0.8
				c-0.3,0.24-0.59,0.51-0.86,0.8c-0.37,0.41-0.82,0.64-1.38,0.7c-0.16,0.02-0.31,0.03-0.47,0.04l-0.63,0.04
				c-0.33,0.02-0.66,0.04-0.99,0.07c-0.98,0.1-1.8,0.56-2.43,1.38c-0.24,0.32-0.47,0.64-0.7,0.96l-0.23,0.32
				c-0.22,0.31-0.5,0.51-0.87,0.61c-0.13,0.04-0.27,0.07-0.39,0.12c-0.25,0.09-0.32,0.26-0.34,0.35c-0.02,0.09-0.02,0.27,0.18,0.45
				c0.04,0.04,0.1,0.08,0.18,0.12c0.11,0.06,0.22,0.12,0.34,0.18c0.27,0.15,0.55,0.3,0.84,0.43c1,0.44,1.85,0.73,2.68,0.92
				c0.41,0.09,0.78,0.14,1.12,0.14c0.37,0,0.71-0.05,1.03-0.16c0.53-0.17,1.03-0.4,1.5-0.61c0.69-0.32,1.24-0.49,1.78-0.54
				l0.28-0.03c0.21-0.02,0.42-0.04,0.63-0.06c-0.13,0.08-0.27,0.16-0.4,0.23l-0.55,0.31c-0.29,0.16-0.58,0.32-0.86,0.5
				c-0.84,0.52-1.37,1.29-1.58,2.3c-0.08,0.39-0.15,0.78-0.21,1.17l-0.07,0.39c-0.07,0.38-0.23,0.67-0.52,0.93
				c-0.1,0.09-0.2,0.18-0.3,0.28c-0.19,0.19-0.17,0.37-0.15,0.46s0.1,0.25,0.36,0.32c0.05,0.01,0.13,0.03,0.21,0.04
				c0.13,0,0.25,0.01,0.38,0.01c0.23,0.01,0.46,0.02,0.69,0.02c0.09,0,0.17,0,0.26,0c1.09-0.04,1.99-0.15,2.81-0.35
				c0.84-0.2,1.45-0.5,1.93-0.96c0.4-0.39,0.77-0.83,1.08-1.21c0.48-0.59,0.91-0.98,1.37-1.27l0.22-0.14c0.2-0.12,0.4-0.25,0.6-0.37
				C25.21,195.6,25.87,194.94,26.37,194.13L26.37,194.13z M18.41,192.78l-0.28,0.03c-0.62,0.06-1.23,0.25-2,0.6
				c-0.45,0.21-0.93,0.42-1.43,0.58c-0.51,0.16-1.08,0.16-1.8,0c-0.79-0.18-1.6-0.45-2.55-0.88c-0.27-0.12-0.53-0.26-0.8-0.4l0,0
				c0.46-0.15,0.84-0.43,1.14-0.84l0.23-0.32c0.23-0.32,0.45-0.63,0.69-0.94c0.51-0.66,1.17-1.04,1.96-1.12
				c0.32-0.03,0.64-0.05,0.97-0.07l0.63-0.04c0.17-0.01,0.33-0.02,0.5-0.04c0.72-0.08,1.32-0.39,1.81-0.92
				c0.24-0.27,0.5-0.51,0.78-0.73c0.45-0.36,1.02-0.57,1.77-0.66c0.22-0.02,0.44-0.05,0.65-0.06c0.77-0.04,1.43-0.4,1.96-1.04
				l0.12-0.15c0.26-0.32,0.54-0.66,0.83-0.94c0.68-0.64,1.46-0.87,2.31-0.67c0.07,0.02,0.15,0.03,0.22,0.04
				c-0.04,0.01-0.08,0.03-0.12,0.04c-0.06,0.02-0.11,0.04-0.17,0.06c-0.07,0.02-0.13,0.05-0.19,0.08c-0.05,0.02-0.11,0.05-0.16,0.07
				c-0.06,0.03-0.12,0.07-0.18,0.1c-0.05,0.03-0.09,0.06-0.14,0.09c-0.06,0.04-0.11,0.09-0.17,0.13c-0.04,0.03-0.08,0.07-0.12,0.1
				c-0.05,0.05-0.1,0.1-0.16,0.16c-0.03,0.04-0.07,0.07-0.11,0.11c-0.05,0.06-0.1,0.13-0.15,0.19c-0.03,0.04-0.06,0.07-0.09,0.12
				c-0.05,0.08-0.1,0.16-0.14,0.24c-0.02,0.04-0.04,0.07-0.06,0.1c-0.06,0.12-0.12,0.25-0.17,0.38c-0.16,0.43-0.27,0.87-0.37,1.3
				l-0.04,0.17c-0.04,0.16-0.09,0.3-0.15,0.44c-0.18,0.4-0.45,0.71-0.84,0.92c-0.2,0.11-0.4,0.23-0.59,0.36
				c-0.75,0.47-1.26,1.01-1.56,1.65c-0.17,0.35-0.31,0.72-0.42,1.1c-0.03,0.1-0.07,0.18-0.1,0.27c-0.02,0.05-0.05,0.1-0.08,0.16
				c-0.27,0.07-0.53,0.11-0.78,0.13C18.87,192.73,18.64,192.76,18.41,192.78L18.41,192.78z M24.04,195.5
				c-0.21,0.12-0.41,0.25-0.61,0.38l-0.22,0.14c-0.53,0.33-1,0.76-1.53,1.41c-0.31,0.38-0.65,0.79-1.03,1.15
				c-0.39,0.37-0.9,0.62-1.62,0.79c-0.78,0.19-1.63,0.29-2.68,0.33c-0.29,0.01-0.59,0-0.89-0.01c0.35-0.33,0.57-0.75,0.66-1.25
				l0.07-0.4c0.07-0.38,0.13-0.77,0.21-1.15c0.17-0.82,0.6-1.45,1.27-1.86c0.27-0.17,0.55-0.32,0.83-0.48
				c0.14-0.08,0.28-0.16,0.42-0.24l0.13-0.07c0.15-0.08,0.29-0.17,0.44-0.26c0.38-0.24,0.67-0.54,0.89-0.9l0.01-0.01
				c0.01-0.01,0.01-0.02,0.02-0.03c0.06-0.09,0.11-0.19,0.15-0.29c0.06-0.13,0.11-0.26,0.15-0.39c0.1-0.35,0.23-0.68,0.38-0.99
				c0.19-0.39,0.47-0.74,0.87-1.05c0.13-0.11,0.28-0.21,0.44-0.31c0.19-0.12,0.37-0.23,0.56-0.34c0.68-0.38,1.12-0.98,1.31-1.79
				l0.04-0.18c0.1-0.41,0.2-0.83,0.34-1.22c0.29-0.77,0.78-1.28,1.47-1.52c0.1-0.03,0.2-0.06,0.31-0.09
				c0.49-0.11,0.88-0.33,1.21-0.66c0.07-0.07,0.15-0.14,0.21-0.23c0.03-0.03,0.06-0.06,0.09-0.09l0.06-0.06
				c0.01-0.01,0.02-0.03,0.03-0.04l0.01-0.01c0.12,0.25,0.24,0.49,0.32,0.74c0.09,0.26,0.16,0.53,0.23,0.82
				c0.03,0.13,0.07,0.26,0.1,0.39c0.01,0.03,0.02,0.06,0.04,0.1l0.11,0.94l-0.01,0.18c-0.01,0.13-0.01,0.26-0.03,0.4
				c-0.09,0.67-0.35,1.34-0.79,2.03c-0.25,0.39-0.51,0.76-0.78,1.13l-0.09,0.12c-0.25,0.35-0.43,0.74-0.54,1.16
				c-0.23,0.85-0.49,1.47-0.82,2.01C25.35,194.5,24.77,195.07,24.04,195.5z"/>
			<path d="M24.65,190.98c-0.36-0.26-0.82-0.35-1.29-0.24c-0.5,0.11-0.93,0.38-1.28,0.79c-0.53,0.64-0.73,1.34-0.57,2.07
				c0.16,0.73,0.78,1.23,1.51,1.23c0.09,0,0.18-0.01,0.27-0.02c1.2-0.2,2.14-1.44,2.01-2.65C25.25,191.66,25.02,191.24,24.65,190.98
				L24.65,190.98z M23.18,194.13c-0.48,0.08-0.9-0.2-1.01-0.68c-0.11-0.53,0.02-1,0.43-1.49c0.25-0.3,0.55-0.49,0.9-0.56
				c0.08-0.02,0.16-0.03,0.24-0.03c0.19,0,0.37,0.05,0.52,0.16c0.21,0.15,0.33,0.39,0.37,0.69l0,0
				C24.72,193.08,24.03,193.99,23.18,194.13L23.18,194.13z"/>
			<path d="M19.12,195.31c-0.91,0.14-1.57,0.67-1.91,1.53c-0.2,0.51-0.16,1.01,0.12,1.42s0.71,0.64,1.22,0.64
				c0.05,0,0.09,0,0.14-0.01h0.01c0.97-0.11,1.78-0.73,2.07-1.58c0.18-0.53,0.14-1-0.13-1.4C20.3,195.43,19.76,195.21,19.12,195.31z
				 M20.12,197.1c-0.2,0.59-0.81,1.04-1.5,1.12c-0.22,0.02-0.52-0.03-0.73-0.34c-0.15-0.23-0.17-0.49-0.05-0.8
				c0.25-0.63,0.71-1,1.38-1.11c0.07-0.01,0.13-0.02,0.2-0.02c0.28,0,0.5,0.11,0.65,0.34C20.22,196.52,20.24,196.78,20.12,197.1z"/>
			<path d="M2.52,190.91c0.1-7.03,4.38-13.29,10.89-15.94c0.19-0.08,0.27-0.29,0.2-0.47s-0.29-0.27-0.47-0.2
				c-6.79,2.76-11.24,9.28-11.35,16.6c-0.09,5.87,2.69,11.46,7.42,14.94c0.07,0.05,0.14,0.07,0.21,0.07c0.11,0,0.22-0.05,0.29-0.15
				c0.12-0.16,0.08-0.39-0.08-0.51C5.1,201.91,2.44,196.55,2.52,190.91L2.52,190.91z"/>
			<path d="M26.99,174.35c-0.19-0.08-0.4,0.01-0.47,0.2s0.01,0.4,0.2,0.48c6.65,2.76,10.87,9.2,10.77,16.4
				c-0.08,5.61-2.89,10.88-7.5,14.09c-0.16,0.11-0.21,0.34-0.09,0.51c0.07,0.1,0.18,0.16,0.3,0.16c0.07,0,0.14-0.02,0.21-0.07
				c4.81-3.35,7.73-8.83,7.81-14.68C38.32,183.94,33.91,177.23,26.99,174.35L26.99,174.35z"/>
		</g>
	</g>
</g>
<g>
	<g>
		<defs>
			<rect id="SVGID_00000145774382524894511370000004078805674719681699_" y="227" width="40" height="40"/>
		</defs>
		<clipPath id="SVGID_00000044883175084930681750000009765075833132594352_">
			<use xlink:href="#SVGID_00000145774382524894511370000004078805674719681699_"  style="overflow:visible;"/>
		</clipPath>
		<g style="clip-path:url(#SVGID_00000044883175084930681750000009765075833132594352_);">
			<path d="M29.72,239.9c-0.01-0.23-0.07-0.46-0.23-0.64c-0.17,0.03-0.33,0.05-0.48,0.07c-1.53,0.26-3.05,0.58-4.51,1.14
				c-1.3,0.5-2.53,1.12-3.59,2.02c-0.68,0.58-1.19,1.28-1.41,2.16c-0.34,1.38-0.12,2.66,0.83,3.76c0.27,0.32,0.29,0.33,0.66,0.16
				c0.45-0.2,0.9-0.41,1.33-0.66c1.37-0.8,2.5-1.89,3.58-3.04c0.04-0.04,0.06-0.09,0.09-0.14c-0.48-0.35-0.58-0.34-0.97,0.03
				c-0.31,0.29-0.59,0.6-0.92,0.87c-0.63,0.52-1.26,1.03-1.91,1.51c-0.41,0.3-0.87,0.52-1.39,0.68c-0.09-0.13-0.18-0.24-0.25-0.36
				c-0.82-1.38-0.62-2.99,0.53-4.11c0.77-0.75,1.66-1.32,2.63-1.76c1.32-0.59,2.69-1.01,4.1-1.3c0.37-0.08,0.73-0.14,1.14-0.22
				c0.03,0.16,0.05,0.25,0.05,0.34c0.04,1.14,0,2.27-0.17,3.4c-0.24,1.58-0.82,2.98-2.03,4.1c-1.34,1.24-2.88,1.88-4.71,1.81
				c-0.55-0.02-1.1-0.13-1.64-0.2c-0.35-0.05-0.67,0.02-0.92,0.28c-0.65,0.66-1.21,1.38-1.5,2.27c-0.37,1.12-0.48,2.27-0.38,3.45
				c0.03,0.45,0.29,0.68,0.68,0.92c0-0.24,0-0.43,0-0.62c0.02-0.73,0.01-1.46,0.07-2.18c0.11-1.12,0.56-2.1,1.28-2.96
				c0.31-0.37,0.66-0.56,1.15-0.37c0.16,0.06,0.34,0.1,0.51,0.11c1.54,0.09,3.02-0.1,4.39-0.86c1.82-1,3.07-2.46,3.59-4.5
				C29.74,243.36,29.77,241.63,29.72,239.9L29.72,239.9z"/>
			<path d="M16.46,250.84c-0.11-0.02-0.23-0.03-0.35-0.05c-1.94-0.27-3.31-1.32-4.19-3.05c-0.21-0.41-0.31-0.85-0.33-1.3
				c-0.07-1.35,0.1-2.67,0.49-3.96c0.03-0.09,0.08-0.18,0.14-0.3c0.19,0.09,0.37,0.15,0.53,0.24c0.55,0.3,1.11,0.59,1.64,0.91
				c1.11,0.68,2.09,1.52,2.9,2.56c0.93,1.19,0.75,2.57-0.43,3.56c-0.04-0.01-0.08-0.02-0.11-0.05c-0.08-0.06-0.17-0.12-0.25-0.18
				c-0.6-0.46-1.03-1.07-1.45-1.68c-0.28-0.41-0.53-0.84-0.81-1.24c-0.27-0.4-0.47-0.39-0.77,0.04c0.87,1.57,1.8,3.1,3.46,4.07
				c0.24-0.23,0.47-0.42,0.68-0.65c1.14-1.24,1.27-2.79,0.35-4.21c-0.35-0.54-0.78-1.01-1.26-1.44c-1.39-1.25-3.02-2.12-4.73-2.84
				c-0.04-0.02-0.08-0.01-0.17-0.03c-0.19,0.26-0.31,0.51-0.36,0.81c-0.18,1.09-0.37,2.18-0.55,3.27c-0.09,0.54-0.1,1.08,0.03,1.61
				c0.54,2.19,1.9,3.65,4.03,4.38c0.65,0.22,1.31,0.2,1.97,0.14C16.92,251.01,16.83,250.9,16.46,250.84z"/>
			<path d="M7.86,256.34l-0.83-1.09c-0.04-0.05-0.09-0.05-0.14-0.02l-3.52,2.68c-0.05,0.04-0.05,0.09-0.02,0.14l0.43,0.56
				c0.04,0.05,0.09,0.05,0.14,0.02l1.2-0.91l0.34,0.45c0.66,0.87,1.52,0.95,2.22,0.42C8.38,258.05,8.53,257.2,7.86,256.34
				L7.86,256.34z M7.16,257.9c-0.43,0.33-0.81,0.1-1.07-0.23l-0.33-0.43l1.12-0.86l0.33,0.43C7.47,257.14,7.58,257.57,7.16,257.9
				L7.16,257.9z"/>
			<path d="M10.78,259.25l-1.09-0.82c-0.05-0.04-0.1-0.03-0.14,0.02l-2.65,3.54c-0.04,0.05-0.03,0.1,0.02,0.14l0.57,0.42
				c0.05,0.04,0.1,0.03,0.14-0.02l0.9-1.2l0.31,0.23l-0.13,1.83c-0.01,0.05,0.01,0.09,0.05,0.12l0.6,0.45
				c0.06,0.05,0.12,0.03,0.12-0.05l0.11-1.9c0.64,0.21,1.22-0.01,1.62-0.54C11.75,260.76,11.66,259.91,10.78,259.25z M10.53,260.94
				c-0.33,0.43-0.75,0.32-1.09,0.07l-0.43-0.33l0.85-1.13l0.43,0.33C10.63,260.14,10.85,260.52,10.53,260.94L10.53,260.94z"/>
			<path d="M15.09,261.49c-1.24-0.42-2.59,0.23-3.02,1.49c-0.43,1.25,0.24,2.6,1.48,3.02c1.24,0.42,2.59-0.23,3.02-1.48
				C17,263.26,16.33,261.91,15.09,261.49L15.09,261.49z M15.7,264.22c-0.27,0.8-1.08,1.21-1.86,0.94s-1.17-1.08-0.9-1.88
				c0.27-0.81,1.08-1.21,1.87-0.95C15.59,262.59,15.98,263.41,15.7,264.22z"/>
			<path d="M19.69,262.36l-1.3,0.02c-0.06,0-0.1,0.04-0.1,0.1l0.07,4.43c0,0.06,0.04,0.1,0.1,0.1l1.3-0.02
				c1.59-0.02,2.41-1.06,2.39-2.35C22.13,263.34,21.28,262.33,19.69,262.36z M19.75,266.18l-0.5,0.01l-0.05-3.02l0.5-0.01
				c1-0.02,1.51,0.54,1.53,1.49C21.25,265.6,20.75,266.17,19.75,266.18z"/>
			<path d="M26.47,261.14c-0.02-0.06-0.07-0.08-0.13-0.06l-0.67,0.22c-0.06,0.02-0.08,0.07-0.06,0.12l0.85,2.59
				c0.2,0.62,0.01,1.05-0.49,1.21c-0.51,0.17-0.92-0.06-1.12-0.68L24,261.95c-0.02-0.06-0.07-0.08-0.13-0.06l-0.67,0.22
				c-0.06,0.02-0.08,0.07-0.06,0.12l0.85,2.59c0.38,1.16,1.29,1.56,2.26,1.24c0.96-0.32,1.46-1.17,1.07-2.33L26.47,261.14z"/>
			<path d="M32.87,261.42l-0.63-0.12c-0.06-0.01-0.1,0.02-0.12,0.08c-0.08,0.36-0.27,0.69-0.61,0.93c-0.65,0.48-1.54,0.33-2.04-0.36
				c-0.51-0.7-0.37-1.59,0.28-2.06c0.34-0.25,0.71-0.33,1.08-0.3c0.06,0.01,0.1-0.02,0.11-0.09l0.08-0.64
				c0.01-0.07-0.02-0.1-0.08-0.11c-0.57-0.09-1.18,0.03-1.7,0.41c-1.07,0.78-1.31,2.25-0.52,3.33c0.78,1.07,2.25,1.3,3.32,0.52
				c0.52-0.38,0.82-0.92,0.91-1.49C32.97,261.47,32.94,261.43,32.87,261.42L32.87,261.42z"/>
			<path d="M33.01,256.51l0.61-0.79c0.04-0.05,0.03-0.1-0.02-0.14l-0.48-0.37c-0.05-0.04-0.1-0.03-0.14,0.02l-1.77,2.3
				c-0.04,0.05-0.03,0.1,0.02,0.14l0.48,0.37c0.05,0.04,0.1,0.03,0.14-0.02l0.61-0.8l2.95,2.27c0.05,0.04,0.1,0.03,0.14-0.02
				l0.43-0.56c0.04-0.05,0.03-0.1-0.02-0.14L33.01,256.51z"/>
			<path d="M10.83,234.59c0.05,0.03,0.09,0.03,0.14,0l0.54-0.38c0.04-0.03,0.07-0.08,0.06-0.14l-1.2-4.56
				c-0.02-0.07-0.07-0.09-0.13-0.05l-0.6,0.42c-0.04,0.03-0.07,0.07-0.05,0.13l0.99,3.42l-2.85-2.13c-0.05-0.04-0.09-0.03-0.14,0
				l-0.6,0.42c-0.06,0.04-0.06,0.1,0,0.14L10.83,234.59z"/>
			<path d="M14.07,232.81l2.32-0.76c0.06-0.02,0.08-0.07,0.06-0.13l-0.19-0.57c-0.02-0.06-0.07-0.08-0.13-0.06l-1.55,0.51
				l-0.37-1.12l1.45-0.47c0.06-0.02,0.08-0.07,0.06-0.12l-0.19-0.57c-0.02-0.06-0.07-0.08-0.13-0.06l-1.45,0.47l-0.32-0.99
				l1.54-0.51c0.06-0.02,0.08-0.07,0.06-0.12l-0.19-0.57c-0.02-0.06-0.07-0.08-0.13-0.06l-2.31,0.75c-0.06,0.02-0.08,0.07-0.06,0.13
				l1.37,4.21C13.96,232.8,14.01,232.82,14.07,232.81L14.07,232.81z"/>
			<path d="M19.85,231.76c1.31-0.03,2.1-1.02,2.08-2.23l-0.01-0.39c0-0.06-0.04-0.1-0.1-0.1l-1.99,0.04c-0.06,0-0.1,0.04-0.1,0.1
				l0.01,0.56c0,0.06,0.04,0.1,0.1,0.1l1.22-0.02c-0.01,0.57-0.47,1.04-1.23,1.06c-0.87,0.02-1.48-0.62-1.5-1.48
				c-0.02-0.84,0.6-1.49,1.41-1.51c0.42-0.01,0.77,0.14,1.05,0.38c0.05,0.04,0.1,0.04,0.14-0.01l0.43-0.48
				c0.05-0.05,0.04-0.09,0-0.14c-0.42-0.41-0.99-0.65-1.63-0.64c-1.32,0.03-2.36,1.1-2.33,2.41
				C17.42,230.75,18.5,231.79,19.85,231.76z"/>
			<path d="M23.33,231.99c0.05,0.02,0.09,0.01,0.13-0.04l0.48-0.68l1.65,0.51l0.02,0.83c0,0.06,0.03,0.09,0.08,0.11l0.7,0.21
				c0.07,0.02,0.11-0.01,0.11-0.08l-0.24-4.71c0-0.06-0.05-0.1-0.1-0.11l-0.63-0.19c-0.05-0.02-0.1,0-0.13,0.04l-2.83,3.77
				c-0.04,0.05-0.03,0.11,0.04,0.13L23.33,231.99z M25.53,229.05l0.05,1.96l-1.19-0.36L25.53,229.05z"/>
			<path d="M28.07,233.91c0.05,0.04,0.1,0.03,0.14-0.02l1.8-2.53l-0.37,3.59c-0.01,0.05,0.02,0.09,0.06,0.12l0.66,0.47
				c0.05,0.04,0.1,0.02,0.14-0.02l2.57-3.61c0.03-0.05,0.03-0.1-0.02-0.14l-0.58-0.41c-0.05-0.04-0.1-0.02-0.14,0.02l-1.8,2.53
				l0.37-3.59c0.01-0.05-0.02-0.09-0.06-0.12l-0.66-0.47c-0.05-0.03-0.1-0.02-0.14,0.02l-2.57,3.61c-0.03,0.05-0.03,0.1,0.02,0.14
				L28.07,233.91z"/>
			<path d="M4.02,255.35c0.05,0,0.11-0.01,0.16-0.04c0.18-0.09,0.25-0.31,0.16-0.49c-1.19-2.41-1.8-5.01-1.8-7.73
				c0-4.66,1.82-9.05,5.11-12.34c0.14-0.14,0.14-0.37,0-0.51s-0.37-0.14-0.51,0c-3.43,3.43-5.33,8-5.33,12.86
				c0,2.83,0.63,5.53,1.87,8.05C3.75,255.27,3.88,255.35,4.02,255.35L4.02,255.35z"/>
			<path d="M32.69,234.59c-0.15,0.14-0.15,0.37-0.01,0.51c3.08,3.26,4.78,7.51,4.78,12c0,3.03-0.79,6.01-2.28,8.63
				c-0.1,0.17-0.04,0.4,0.14,0.49c0.06,0.03,0.12,0.05,0.18,0.05c0.13,0,0.25-0.07,0.32-0.18c1.55-2.73,2.37-5.83,2.37-8.98
				c0-4.67-1.77-9.11-4.97-12.5C33.07,234.46,32.84,234.45,32.69,234.59z"/>
		</g>
	</g>
</g>
<g>
	<path d="M7.12,147.34c-0.85,1.03-0.71,2.53,0.34,3.38c1.02,0.84,2.26,0.59,3.03-0.35l0.25-0.3c0.04-0.05,0.03-0.1-0.01-0.14
		l-1.54-1.27c-0.05-0.04-0.1-0.03-0.14,0.01l-0.36,0.43c-0.04,0.05-0.03,0.1,0.01,0.14l0.95,0.78c-0.39,0.43-1.03,0.49-1.63,0
		c-0.67-0.55-0.72-1.44-0.17-2.1c0.53-0.65,1.43-0.74,2.05-0.23c0.33,0.27,0.5,0.61,0.56,0.97c0.01,0.06,0.05,0.09,0.11,0.08
		l0.64-0.09c0.07-0.01,0.09-0.04,0.09-0.11c-0.06-0.58-0.33-1.13-0.82-1.54C9.44,146.18,7.95,146.33,7.12,147.34L7.12,147.34z"/>
	<path d="M12.41,152.7l1.43-3.45c0.02-0.05,0-0.11-0.05-0.13l-0.65-0.27c-0.05-0.02-0.11,0-0.13,0.05l-1.7,4.09
		c-0.02,0.05,0,0.11,0.05,0.13l2.13,0.89c0.05,0.02,0.11,0,0.13-0.05l0.23-0.56c0.02-0.05,0-0.11-0.05-0.13L12.41,152.7z"/>
	<path d="M19.63,150.52l-0.7-0.09c-0.06-0.01-0.1,0.03-0.11,0.09l-0.35,2.71c-0.09,0.65-0.44,0.95-0.97,0.88
		c-0.53-0.07-0.8-0.45-0.72-1.1l0.35-2.71c0.01-0.06-0.03-0.1-0.09-0.11l-0.7-0.09c-0.06-0.01-0.1,0.03-0.11,0.09l-0.35,2.71
		c-0.16,1.21,0.49,1.97,1.5,2.1c1,0.13,1.82-0.43,1.98-1.64l0.35-2.71C19.73,150.57,19.69,150.53,19.63,150.52L19.63,150.52z"/>
	<path d="M23.75,150.05l-2.88,0.44c-0.06,0.01-0.09,0.05-0.08,0.11l0.09,0.6c0.01,0.06,0.05,0.09,0.11,0.08l0.99-0.15l0.56,3.69
		c0.01,0.06,0.05,0.09,0.11,0.08l0.7-0.1c0.06-0.01,0.09-0.05,0.08-0.11L22.87,151l0.99-0.15c0.06-0.01,0.09-0.05,0.08-0.11
		l-0.09-0.6C23.85,150.07,23.8,150.04,23.75,150.05L23.75,150.05z"/>
	<path d="M28.89,152.24c-0.02-0.05-0.08-0.07-0.13-0.05l-1.5,0.65l-0.47-1.09l1.4-0.61c0.05-0.02,0.07-0.08,0.05-0.13L28,150.46
		c-0.02-0.05-0.08-0.07-0.13-0.05l-1.4,0.61l-0.42-0.96l1.49-0.65c0.05-0.02,0.07-0.08,0.05-0.13l-0.24-0.55
		c-0.02-0.05-0.08-0.07-0.13-0.05l-2.23,0.97c-0.05,0.02-0.07,0.08-0.05,0.13l1.77,4.06c0.02,0.05,0.08,0.07,0.13,0.05l2.24-0.98
		c0.05-0.02,0.07-0.08,0.05-0.13L28.89,152.24z"/>
	<path d="M31.27,145.78c-0.04-0.04-0.09-0.05-0.14-0.01l-0.54,0.45c-0.05,0.04-0.05,0.1-0.01,0.14l1.99,2.39l-3.38-1.27
		c-0.05-0.02-0.09-0.01-0.13,0.02l-0.62,0.52c-0.05,0.04-0.05,0.1-0.01,0.14l2.84,3.4c0.04,0.05,0.09,0.05,0.14,0.01l0.54-0.45
		c0.05-0.04,0.05-0.09,0.01-0.14l-1.99-2.38l3.38,1.27c0.05,0.02,0.09,0.01,0.13-0.03l0.62-0.52c0.05-0.04,0.05-0.1,0.01-0.14
		L31.27,145.78z"/>
	<path d="M15.51,120.28l0.71-0.13c0.06-0.01,0.09-0.06,0.08-0.12l-0.56-3.12l2.35,2.83c0.03,0.04,0.08,0.05,0.13,0.04l0.82-0.14
		c0.06-0.01,0.09-0.06,0.08-0.12l-0.79-4.44c-0.01-0.06-0.06-0.09-0.12-0.08l-0.71,0.13c-0.06,0.01-0.09,0.06-0.08,0.12l0.56,3.12
		l-2.35-2.83c-0.03-0.04-0.08-0.06-0.13-0.04l-0.82,0.14c-0.06,0.01-0.09,0.06-0.08,0.12l0.79,4.45
		C15.41,120.25,15.45,120.28,15.51,120.28z"/>
	<path d="M22.33,119.99c1.32,0.2,2.56-0.7,2.76-2.03c0.2-1.34-0.71-2.57-2.03-2.77c-1.32-0.2-2.56,0.7-2.76,2.04
		C20.09,118.56,21.01,119.78,22.33,119.99z M21.22,117.36c0.13-0.86,0.87-1.41,1.7-1.29c0.83,0.13,1.37,0.88,1.24,1.74
		c-0.13,0.85-0.87,1.41-1.7,1.28C21.63,118.97,21.09,118.22,21.22,117.36z"/>
	<path d="M10.33,125.54c-0.13,0.13-0.13,0.35,0,0.48l5.91,5.91c0.02-0.27,0.07-0.54,0.14-0.81l-5.57-5.58
		C10.68,125.4,10.46,125.4,10.33,125.54z"/>
	<path d="M23.51,138.74c-0.06,0.09-0.13,0.17-0.2,0.26l5.86,5.86c0.07,0.07,0.15,0.1,0.24,0.1s0.17-0.03,0.24-0.1
		c0.13-0.13,0.13-0.35,0-0.48l-5.95-5.95C23.65,138.53,23.59,138.63,23.51,138.74z"/>
	<path d="M20.33,140.08c-0.84-0.67-2.02-0.8-2.93-0.34l0.45-0.76c0.08,0.02,0.15,0.04,0.23,0.06c0.27,0.07,0.51,0.14,0.78,0.18
		c0.29,0.04,0.56,0.07,0.82,0.07c1.15,0,2.02-0.45,2.65-1.36c0.31-0.44,0.28-0.63-0.15-0.97c-0.84-0.67-2.02-0.8-2.93-0.34
		l0.58-0.97c0.53,0.21,1.19,0.33,1.8,0.33c0.27,0,0.52-0.02,0.75-0.07c0.84-0.16,1.52-0.65,2.02-1.46c0.04-0.06,0.14-0.22,0.09-0.41
		c-0.03-0.12-0.11-0.23-0.24-0.3c-0.05-0.03-0.1-0.07-0.15-0.11c-0.06-0.05-0.13-0.09-0.19-0.13c-0.71-0.44-1.44-0.57-2.17-0.38
		c-0.19,0.05-0.36,0.12-0.52,0.2l0.56-0.95c0.08,0.02,0.15,0.04,0.23,0.06c0.27,0.07,0.53,0.14,0.8,0.18
		c0.25,0.04,0.53,0.07,0.83,0.07c0.51,0,1.07-0.1,1.62-0.42c0.51-0.3,0.92-0.74,1.2-1.3c0.06-0.12,0.04-0.27-0.06-0.36
		c-0.28-0.28-0.59-0.49-0.95-0.63c-0.79-0.32-1.55-0.31-2.26,0.03l0.29-0.48c0.9-0.17,1.69-0.72,2.19-1.53
		c0.53-0.88,0.63-1.93,0.27-2.89c-0.05-0.14-0.19-0.22-0.34-0.2c-1,0.13-1.87,0.72-2.4,1.6c-0.49,0.82-0.6,1.79-0.31,2.67
		l-0.28,0.48c-0.05-1.38-1.16-2.29-2.08-2.53c-0.13-0.03-0.27,0.02-0.34,0.13c-0.4,0.6-0.59,1.23-0.56,1.89
		c0.04,0.71,0.31,1.38,0.87,2.1c0.17,0.22,0.35,0.41,0.54,0.6c0.05,0.06,0.11,0.12,0.17,0.18l-0.57,0.95c0-0.06,0-0.13-0.01-0.19
		c-0.14-1.05-0.77-1.83-1.87-2.3c-0.26-0.11-0.48-0.04-0.63,0.2c-0.38,0.64-0.53,1.25-0.47,1.85c0.13,1.24,0.85,2.1,1.57,2.78
		l-0.57,0.98c-0.01-0.33-0.08-0.65-0.21-0.95c-0.29-0.69-0.89-1.24-1.66-1.55c-0.26-0.11-0.49-0.03-0.63,0.21
		c-0.41,0.7-0.55,1.37-0.43,2.04c0.12,0.75,0.49,1.44,1.14,2.17c0.11,0.12,0.22,0.23,0.35,0.36l0.06,0.05l-0.47,0.79
		c-0.01-0.33-0.08-0.65-0.21-0.95c-0.29-0.69-0.89-1.24-1.66-1.55c-0.26-0.11-0.49-0.03-0.63,0.21c-0.4,0.7-0.55,1.37-0.44,2.05
		c0.12,0.75,0.49,1.44,1.14,2.17c0.11,0.12,0.22,0.23,0.35,0.36l0.06,0.05l-2.35,3.95c-0.1,0.16-0.04,0.37,0.12,0.46
		c0.05,0.03,0.11,0.05,0.17,0.05c0.12,0,0.23-0.06,0.29-0.17l2.34-3.94c0.08,0.02,0.15,0.04,0.23,0.06
		c0.26,0.07,0.51,0.14,0.78,0.18c0.29,0.05,0.56,0.07,0.82,0.07c1.15,0,2.02-0.45,2.65-1.36C20.78,140.61,20.75,140.42,20.33,140.08
		L20.33,140.08z M23.75,126.81c0.38-0.64,0.98-1.08,1.68-1.25c0.19,0.71,0.08,1.46-0.3,2.09c-0.38,0.63-0.98,1.07-1.67,1.22
		C23.27,128.19,23.38,127.45,23.75,126.81z M22.49,131.42c0.3-0.4,0.61-0.68,0.96-0.85c0.55-0.28,1.13-0.29,1.77-0.03
		c0.21,0.08,0.4,0.2,0.57,0.34c-0.22,0.36-0.49,0.63-0.84,0.83c-0.54,0.32-1.17,0.4-2.04,0.26c-0.22-0.04-0.46-0.1-0.7-0.16
		C22.3,131.67,22.39,131.54,22.49,131.42z M21,130.84c-0.48-0.61-0.71-1.17-0.74-1.74c-0.02-0.46,0.08-0.88,0.33-1.31
		c0.78,0.31,1.63,1.18,1.34,2.44c-0.09,0.39-0.24,0.78-0.46,1.15C21.31,131.2,21.14,131.03,21,130.84z M21.9,133.72
		c0.56-0.15,1.11-0.05,1.68,0.3c0.05,0.03,0.1,0.07,0.15,0.1c0.03,0.02,0.06,0.05,0.09,0.07c-0.4,0.61-0.91,0.97-1.55,1.09
		c-0.59,0.12-1.39,0.05-2.03-0.16C20.71,134.4,21.18,133.91,21.9,133.72L21.9,133.72z M18.3,132.46c-0.05-0.43,0.06-0.88,0.32-1.36
		c0.84,0.39,1.28,0.95,1.39,1.75c0.05,0.41-0.03,0.86-0.28,1.4c-0.07,0.15-0.14,0.29-0.22,0.44
		C18.75,133.93,18.38,133.25,18.3,132.46z M19.46,137.21c0.69-0.4,1.67-0.3,2.34,0.23c0.02,0.02,0.04,0.04,0.07,0.05
		c-0.02,0.02-0.03,0.05-0.05,0.08c-0.62,0.9-1.53,1.22-2.85,1.01c-0.22-0.04-0.45-0.09-0.68-0.16
		C18.63,137.86,19,137.47,19.46,137.21z M15.99,140.47c-0.09,0.21-0.19,0.43-0.31,0.65c-0.07-0.07-0.14-0.14-0.2-0.21
		c-0.57-0.64-0.88-1.23-0.99-1.85c-0.08-0.5,0.02-1,0.31-1.53c0.58,0.25,1.01,0.66,1.23,1.17
		C16.25,139.24,16.24,139.85,15.99,140.47z M16.35,135.94c-0.08-0.5,0.02-1,0.31-1.54c0.58,0.26,1.01,0.66,1.23,1.18
		c0.23,0.54,0.22,1.15-0.03,1.77c-0.09,0.22-0.19,0.43-0.31,0.65c-0.07-0.07-0.14-0.14-0.21-0.21
		C16.77,137.15,16.45,136.56,16.35,135.94z M19.95,140.7c-0.62,0.9-1.53,1.22-2.85,1.02c-0.22-0.04-0.45-0.1-0.68-0.16
		c0.36-0.58,0.73-0.96,1.18-1.22c0.69-0.4,1.67-0.3,2.34,0.24c0.02,0.02,0.04,0.04,0.07,0.05C19.98,140.65,19.97,140.67,19.95,140.7
		z"/>
	<path d="M2.52,134.91c0.1-7.03,4.38-13.29,10.89-15.94c0.19-0.08,0.27-0.29,0.2-0.47c-0.07-0.19-0.29-0.27-0.47-0.2
		c-6.79,2.76-11.24,9.28-11.35,16.6c-0.06,3.92,1.11,7.66,3.38,10.84c0.07,0.1,0.18,0.15,0.3,0.15c0.07,0,0.15-0.02,0.21-0.07
		c0.16-0.12,0.2-0.34,0.08-0.51C3.59,142.26,2.47,138.67,2.52,134.91z"/>
	<path d="M26.99,118.35c-0.18-0.08-0.4,0.01-0.47,0.2c-0.08,0.18,0.01,0.4,0.2,0.47c6.65,2.76,10.87,9.2,10.77,16.4
		c-0.05,3.65-1.22,7.13-3.37,10.07c-0.12,0.16-0.08,0.39,0.08,0.51c0.07,0.05,0.14,0.07,0.21,0.07c0.11,0,0.22-0.05,0.29-0.15
		c2.24-3.06,3.46-6.68,3.52-10.49C38.31,127.93,33.91,121.23,26.99,118.35z"/>
</g>
<g>
	<g>
		<defs>
			<rect id="SVGID_00000087400069817154902730000011141350215820045952_" y="59" width="40" height="40"/>
		</defs>
		<clipPath id="SVGID_00000087401547272404017400000016667898812614222740_">
			<use xlink:href="#SVGID_00000087400069817154902730000011141350215820045952_"  style="overflow:visible;"/>
		</clipPath>
		<g style="clip-path:url(#SVGID_00000087401547272404017400000016667898812614222740_);">
			<path d="M12.28,92.29l-1.14-0.63c-0.05-0.03-0.11-0.01-0.13,0.04l-2.13,3.89c-0.03,0.05-0.01,0.11,0.04,0.13l1.14,0.63
				c1.39,0.76,2.62,0.27,3.24-0.86C13.91,94.35,13.67,93.05,12.28,92.29z M12.49,95.04c-0.46,0.83-1.17,1.09-2.05,0.6L10,95.4
				l1.46-2.66l0.43,0.24C12.77,93.47,12.94,94.21,12.49,95.04z"/>
			<path d="M17.09,94.1l-0.65-0.14c-0.05-0.01-0.1,0.01-0.13,0.05l-2.5,4c-0.04,0.06-0.02,0.11,0.05,0.13l0.72,0.15
				c0.05,0.01,0.09,0,0.13-0.05l0.42-0.71l1.69,0.36l0.09,0.83c0.01,0.06,0.04,0.09,0.09,0.1l0.72,0.15
				c0.07,0.01,0.11-0.02,0.1-0.09l-0.64-4.67C17.18,94.15,17.14,94.11,17.09,94.1z M15.52,96.87l1-1.69l0.22,1.95L15.52,96.87z"/>
			<path d="M20.63,94.36l-0.71,0.01c-0.06,0-0.1,0.04-0.1,0.1l0.08,4.43c0,0.06,0.04,0.1,0.1,0.1l0.71-0.01c0.06,0,0.1-0.04,0.1-0.1
				l-0.08-4.43C20.73,94.4,20.69,94.36,20.63,94.36z"/>
			<path d="M24.83,96.64c0.57-0.36,0.77-0.95,0.62-1.6c-0.21-0.86-0.92-1.33-1.99-1.08l-1.33,0.32c-0.06,0.01-0.09,0.06-0.07,0.12
				l1.03,4.31c0.01,0.06,0.06,0.09,0.12,0.07l0.69-0.16c0.06-0.01,0.09-0.06,0.07-0.12l-0.35-1.47l0.37-0.09l1.33,1.27
				c0.04,0.04,0.08,0.05,0.13,0.04l0.73-0.17c0.08-0.02,0.1-0.07,0.04-0.13L24.83,96.64z M23.96,96.13l-0.53,0.13l-0.33-1.38
				l0.53-0.13c0.41-0.1,0.85-0.03,0.98,0.49C24.73,95.78,24.37,96.03,23.96,96.13z"/>
			<path d="M28.96,94.43L29,91.71c0-0.08-0.05-0.11-0.12-0.07L28.23,92c-0.05,0.03-0.07,0.06-0.07,0.12l-0.02,1.78l-1.52-0.93
				c-0.05-0.03-0.09-0.03-0.14,0l-0.65,0.36c-0.07,0.04-0.07,0.09,0,0.14l2.32,1.39l1,1.81c0.03,0.05,0.08,0.07,0.13,0.04l0.62-0.34
				c0.05-0.03,0.07-0.08,0.04-0.13L28.96,94.43z"/>
			<path d="M15.6,64.25l0.71-0.12c0.06-0.01,0.09-0.06,0.08-0.12l-0.54-3.12l2.33,2.84c0.03,0.04,0.08,0.05,0.13,0.05l0.82-0.14
				c0.06-0.01,0.09-0.06,0.08-0.12l-0.77-4.45c-0.01-0.06-0.06-0.09-0.12-0.08l-0.71,0.12c-0.06,0.01-0.09,0.06-0.08,0.12l0.54,3.12
				l-2.33-2.84c-0.03-0.04-0.08-0.05-0.13-0.05l-0.82,0.14c-0.06,0.01-0.09,0.06-0.08,0.12l0.77,4.45
				C15.49,64.23,15.54,64.27,15.6,64.25z"/>
			<path d="M22.4,64.01c1.32,0.21,2.56-0.68,2.77-2.01c0.21-1.34-0.7-2.57-2.01-2.78c-1.32-0.21-2.56,0.68-2.77,2.02
				C20.18,62.56,21.08,63.8,22.4,64.01z M21.31,61.38c0.14-0.86,0.88-1.41,1.71-1.28c0.83,0.13,1.37,0.89,1.23,1.74
				c-0.13,0.85-0.88,1.4-1.71,1.27S21.18,62.23,21.31,61.38z"/>
			<path d="M10.32,69.47c-0.13,0.13-0.13,0.35,0,0.48l2.98,2.98l0.38-0.58l-2.88-2.88C10.67,69.34,10.45,69.34,10.32,69.47z"/>
			<path d="M29.4,88.89c0.09,0,0.17-0.03,0.24-0.1c0.13-0.13,0.13-0.35,0-0.48l-2.21-2.21v0.96l1.73,1.73
				C29.23,88.85,29.31,88.89,29.4,88.89z"/>
			<path d="M20.18,90.57c1.11-0.43,2.23-0.84,3.35-1.26c0.78-0.29,1.55-0.58,2.33-0.87c0.25-0.09,0.39-0.24,0.36-0.52
				c-0.01-0.06,0-0.12,0-0.17c0-4.35,0-8.71,0.01-13.06c0-0.25-0.09-0.4-0.28-0.54c-0.81-0.59-1.61-1.2-2.43-1.78
				c-0.2-0.14-0.28-0.3-0.28-0.55c0.02-0.49-0.01-0.99,0.01-1.49c0.01-0.31-0.11-0.48-0.4-0.59c-1.84-0.69-3.67-1.4-5.51-2.09
				c-0.43-0.16-0.6-0.04-0.6,0.42c-0.01,0.48-0.01,0.96,0,1.44c0.01,0.31-0.07,0.56-0.25,0.81c-0.86,1.28-1.71,2.57-2.57,3.85
				c-0.1,0.15-0.18,0.28-0.18,0.48c0.01,2.21,0.01,4.43,0.01,6.64h0.01v3.19c0,1.15,0.01,2.3-0.01,3.45c0,0.32,0.11,0.49,0.4,0.59
				c0.3,0.1,0.6,0.22,0.9,0.33c1.53,0.56,3.06,1.13,4.59,1.69C19.82,90.6,19.98,90.65,20.18,90.57L20.18,90.57z M25.56,75.37
				c0,4.03,0,8.07,0,12.1c0,0.39,0,0.39-0.33,0.51c-1.54,0.57-3.08,1.14-4.62,1.71c-0.08,0.03-0.16,0.04-0.27,0.07
				c0-4.29,0-8.55,0-12.85c1.71-0.63,3.43-1.26,5.19-1.91C25.54,75.15,25.56,75.26,25.56,75.37z M22.97,72.76
				c0.72,0.54,1.37,1.02,2.03,1.5c0.05,0.03,0.1,0.06,0.16,0.09c-0.36,0.24-3.84,1.52-4.27,1.57
				C21.59,74.86,22.27,73.83,22.97,72.76z M17.42,68.4c0.17,0.05,0.3,0.09,0.42,0.13c1.47,0.56,2.93,1.11,4.39,1.67
				c0.36,0.14,0.36,0.14,0.37,0.53c0,0.33,0,0.66,0,1.09c-1.78-0.67-3.48-1.3-5.19-1.94C17.39,69.39,17.38,68.92,17.42,68.4z
				 M19.67,89.43c0,0.11-0.01,0.23-0.03,0.41c-1.75-0.64-3.46-1.27-5.19-1.91c0-4.3,0-8.59,0-12.9c0.13,0.04,0.23,0.06,0.32,0.09
				c1.5,0.55,3,1.1,4.5,1.65c0.39,0.15,0.4,0.15,0.4,0.55C19.67,81.36,19.67,85.39,19.67,89.43z M14.59,74.35
				c0.87-1.31,1.7-2.56,2.55-3.83c1.74,0.65,3.47,1.29,5.23,1.95c-0.85,1.29-1.66,2.52-2.51,3.81
				C18.11,75.67,16.38,75.01,14.59,74.35z"/>
			<path d="M8.84,92.55c-4.09-3.4-6.4-8.4-6.32-13.71c0.1-7.03,4.38-13.29,10.89-15.94c0.19-0.08,0.27-0.29,0.2-0.47
				c-0.08-0.19-0.29-0.27-0.47-0.2C6.36,64.99,1.91,71.51,1.8,78.83C1.72,84.36,4.12,89.56,8.38,93.1c0.07,0.06,0.15,0.08,0.23,0.08
				c0.1,0,0.21-0.05,0.28-0.13C9.02,92.9,9,92.67,8.84,92.55z"/>
			<path d="M26.99,62.28c-0.19-0.08-0.4,0.01-0.47,0.2c-0.08,0.19,0.01,0.4,0.2,0.47c6.65,2.76,10.87,9.2,10.77,16.4
				c-0.08,5.11-2.38,9.92-6.32,13.19c-0.15,0.13-0.18,0.36-0.05,0.51c0.07,0.09,0.18,0.13,0.28,0.13c0.08,0,0.16-0.03,0.23-0.08
				c4.1-3.41,6.5-8.41,6.58-13.74C38.31,71.87,33.91,65.16,26.99,62.28z"/>
		</g>
	</g>
</g>
<g>
	<g>
		<defs>
			<rect id="SVGID_00000054954922834373750470000001143528272300101799_" y="3" width="40" height="40"/>
		</defs>
		<clipPath id="SVGID_00000136413211832107984710000017674786404360701106_">
			<use xlink:href="#SVGID_00000054954922834373750470000001143528272300101799_"  style="overflow:visible;"/>
		</clipPath>
		<g style="clip-path:url(#SVGID_00000136413211832107984710000017674786404360701106_);">
			<path d="M8.54,33.01c-0.86-0.99-2.36-1.1-3.36-0.23c-1,0.87-1.09,2.37-0.23,3.35c0.86,0.99,2.36,1.1,3.35,0.23
				C9.31,35.5,9.4,34,8.54,33.01z M7.7,35.68c-0.64,0.55-1.54,0.5-2.08-0.12s-0.47-1.53,0.17-2.08c0.64-0.56,1.55-0.51,2.09,0.12
				C8.42,34.22,8.35,35.12,7.7,35.68z"/>
			<path d="M12.2,36.14l-1.18-0.69c-0.05-0.03-0.11-0.02-0.14,0.04L8.63,39.3c-0.03,0.05-0.02,0.11,0.03,0.14l0.61,0.36
				c0.05,0.03,0.11,0.02,0.14-0.03l0.77-1.3l0.33,0.19l0.08,1.83c0,0.05,0.02,0.09,0.07,0.12l0.65,0.38
				c0.07,0.04,0.12,0.02,0.12-0.07l-0.1-1.9c0.66,0.13,1.21-0.14,1.55-0.72C13.33,37.53,13.14,36.69,12.2,36.14z M12.14,37.85
				c-0.27,0.47-0.71,0.4-1.08,0.19l-0.47-0.27l0.72-1.22l0.47,0.27C12.14,37.03,12.41,37.39,12.14,37.85z"/>
			<path d="M18.27,40.37l-1.94-0.44c-0.06-0.01-0.11,0.02-0.12,0.07l-0.12,0.55c-0.01,0.06,0.02,0.11,0.07,0.12l1.19,0.27
				c-0.15,0.55-0.71,0.9-1.45,0.73c-0.84-0.19-1.28-0.96-1.09-1.8c0.19-0.82,0.95-1.3,1.73-1.12c0.41,0.09,0.71,0.32,0.93,0.62
				c0.04,0.05,0.09,0.06,0.14,0.02l0.53-0.36c0.05-0.03,0.07-0.08,0.03-0.13c-0.31-0.49-0.8-0.87-1.42-1.01
				c-1.29-0.29-2.55,0.5-2.84,1.78c-0.3,1.3,0.5,2.57,1.81,2.87c1.28,0.29,2.28-0.48,2.55-1.66l0.09-0.38
				C18.36,40.43,18.33,40.38,18.27,40.37z"/>
			<path d="M21.78,38.27c-0.02-0.05-0.08-0.07-0.13-0.07l-0.66,0.06c-0.05,0.01-0.09,0.03-0.11,0.09l-1.22,4.55
				c-0.02,0.07,0.02,0.11,0.09,0.11l0.73-0.06c0.05,0,0.09-0.03,0.11-0.09l0.2-0.81l1.72-0.15l0.33,0.76
				c0.03,0.06,0.07,0.07,0.12,0.07l0.73-0.06c0.07-0.01,0.1-0.05,0.07-0.12L21.78,38.27z M20.96,41.3l0.46-1.9l0.78,1.8L20.96,41.3z
				"/>
			<path d="M27.69,36.45c-0.02-0.05-0.07-0.08-0.13-0.05l-0.65,0.27c-0.05,0.02-0.08,0.07-0.05,0.13l1.21,2.86l-2.86-2.19
				c-0.04-0.03-0.09-0.03-0.13-0.01l-0.75,0.32c-0.05,0.02-0.08,0.07-0.05,0.13L26,41.97c0.02,0.05,0.07,0.08,0.13,0.05l0.65-0.27
				c0.05-0.02,0.08-0.07,0.05-0.13l-1.21-2.86l2.86,2.19c0.04,0.03,0.09,0.03,0.13,0.01l0.75-0.32c0.05-0.02,0.08-0.07,0.05-0.13
				L27.69,36.45z"/>
			<path d="M29.47,35.12c-0.04-0.05-0.09-0.06-0.14-0.02l-0.57,0.42c-0.05,0.04-0.06,0.09-0.02,0.14l2.63,3.56
				c0.04,0.05,0.09,0.06,0.14,0.02l0.57-0.42c0.05-0.04,0.06-0.09,0.02-0.14L29.47,35.12z"/>
			<path d="M35.92,33.86l-0.64,0.03c-0.06,0-0.1,0.04-0.09,0.1c0.01,0.37-0.1,0.73-0.37,1.05c-0.52,0.62-1.42,0.69-2.07,0.14
				c-0.66-0.55-0.74-1.45-0.22-2.07c0.27-0.32,0.61-0.49,0.98-0.54c0.06-0.01,0.09-0.05,0.08-0.11l-0.08-0.64
				c-0.01-0.07-0.04-0.09-0.11-0.09c-0.58,0.05-1.14,0.31-1.55,0.8c-0.85,1.01-0.73,2.49,0.29,3.35c1.01,0.86,2.5,0.73,3.35-0.28
				c0.41-0.49,0.58-1.09,0.53-1.66C36.02,33.89,35.99,33.85,35.92,33.86z"/>
			<path d="M14.63,8.51l1.52-0.4c1.12-0.29,1.53-0.88,1.31-1.72c-0.15-0.58-0.67-0.87-1.18-0.87c0.29-0.21,0.44-0.63,0.32-1.09
				c-0.16-0.61-0.74-1.01-1.62-0.78l-1.52,0.4c-0.06,0.01-0.09,0.06-0.07,0.12l1.12,4.28C14.53,8.49,14.58,8.52,14.63,8.51z
				 M16.57,6.52c0.11,0.42-0.12,0.69-0.59,0.81l-0.77,0.2l-0.32-1.21l0.77-0.2C16.13,5.99,16.46,6.12,16.57,6.52z M15.1,4.43
				c0.35-0.09,0.62-0.03,0.71,0.31c0.09,0.36-0.09,0.58-0.45,0.68L14.7,5.59L14.44,4.6L15.1,4.43z"/>
			<path d="M19.13,7.64l0.71-0.02c0.06,0,0.1-0.04,0.1-0.1L19.79,3.1c0-0.06-0.04-0.1-0.1-0.1l-0.71,0.02c-0.06,0-0.1,0.04-0.1,0.1
				l0.15,4.42C19.03,7.61,19.07,7.65,19.13,7.64z"/>
			<path d="M23.46,8.1c1.27,0.29,2.55-0.5,2.85-1.78c0.3-1.29-0.51-2.56-1.78-2.85s-2.55,0.5-2.85,1.79
				C21.38,6.54,22.19,7.81,23.46,8.1z M22.57,5.46c0.19-0.83,0.95-1.32,1.76-1.13c0.8,0.19,1.28,0.96,1.09,1.79
				c-0.19,0.82-0.95,1.31-1.76,1.13C22.86,7.05,22.38,6.28,22.57,5.46z"/>
			<path d="M16.61,16.86c-0.11-0.01-0.12,0.03-0.02,0.08c0.3,0.16,0.45,0.25,0.75,0.42c0.1,0.06,0.16,0.16,0.14,0.23
				c-0.06,0.22-0.09,0.35-0.15,0.57c-0.02,0.07,0.03,0.1,0.1,0.07c0.24-0.11,0.36-0.18,0.59-0.28c0.08-0.03,0.21-0.01,0.31,0.05
				c0.28,0.2,0.41,0.28,0.68,0.51c0.09,0.08,0.12,0.07,0.08-0.02c-0.12-0.28-0.18-0.41-0.31-0.67c-0.04-0.09-0.02-0.18,0.06-0.21
				c0.24-0.1,0.36-0.12,0.59-0.2c0.07-0.03,0.06-0.07-0.05-0.1c-0.38-0.1-0.49-0.13-0.81-0.19c-0.11-0.02-0.23-0.1-0.28-0.19
				c-0.14-0.26-0.21-0.38-0.36-0.64c-0.05-0.08-0.1-0.09-0.12-0.02c-0.06,0.23-0.09,0.34-0.15,0.57c-0.02,0.07-0.12,0.12-0.23,0.11
				C17.12,16.91,16.95,16.89,16.61,16.86z"/>
			<path d="M13.25,19.39c0.32,0.07,0.48,0.11,0.79,0.2c0.1,0.03,0.16,0.12,0.13,0.2c-0.09,0.24-0.13,0.31-0.25,0.6
				c-0.04,0.09,0.01,0.1,0.11,0.04c0.35-0.22,0.44-0.28,0.71-0.44c0.09-0.05,0.24-0.06,0.33-0.01c0.29,0.13,0.43,0.2,0.7,0.36
				c0.09,0.05,0.13,0.03,0.09-0.05c-0.12-0.23-0.18-0.35-0.3-0.58c-0.04-0.08,0-0.17,0.08-0.21c0.25-0.15,0.33-0.23,0.62-0.41
				c0.08-0.05,0.06-0.09-0.04-0.09c-0.37,0.02-0.45,0.04-0.82,0.06c-0.11,0.01-0.23-0.06-0.27-0.13c-0.13-0.22-0.19-0.33-0.33-0.55
				c-0.04-0.07-0.1-0.07-0.13,0.01c-0.08,0.23-0.12,0.35-0.21,0.58c-0.03,0.07-0.15,0.15-0.26,0.16c-0.39,0.06-0.51,0.08-0.92,0.16
				C13.16,19.33,13.14,19.37,13.25,19.39z"/>
			<path d="M11.52,22.39c-0.12,0.01-0.15,0.05-0.07,0.09c0.26,0.12,0.38,0.19,0.61,0.33c0.07,0.05,0.08,0.15,0.02,0.23
				c-0.19,0.24-0.29,0.37-0.49,0.61c-0.07,0.08-0.03,0.1,0.08,0.05c0.33-0.16,0.5-0.23,0.82-0.37c0.1-0.05,0.25-0.04,0.31,0.02
				c0.2,0.17,0.3,0.26,0.49,0.44c0.06,0.06,0.11,0.04,0.11-0.04c0.01-0.25,0-0.38,0-0.63c0-0.08,0.09-0.18,0.18-0.22
				c0.3-0.11,0.44-0.17,0.72-0.26c0.09-0.03,0.09-0.07-0.01-0.09c-0.35-0.07-0.41-0.08-0.76-0.12c-0.1-0.01-0.19-0.09-0.2-0.17
				c-0.03-0.25-0.04-0.37-0.07-0.61c-0.01-0.08-0.06-0.08-0.12-0.01c-0.17,0.23-0.26,0.35-0.43,0.59c-0.06,0.08-0.19,0.14-0.3,0.14
				C12.07,22.35,11.89,22.36,11.52,22.39z"/>
			<path d="M17.5,26.51c0.08-0.04,0.07-0.09-0.03-0.1c-0.29-0.03-0.44-0.03-0.74-0.02c-0.1,0-0.2-0.07-0.22-0.16
				c-0.07-0.28-0.11-0.41-0.18-0.67c-0.02-0.09-0.07-0.09-0.11,0c-0.11,0.27-0.17,0.41-0.29,0.7c-0.04,0.09-0.15,0.17-0.25,0.18
				c-0.31,0.02-0.46,0.04-0.78,0.08c-0.1,0.01-0.12,0.06-0.04,0.11c0.24,0.14,0.36,0.22,0.59,0.37c0.08,0.05,0.11,0.17,0.07,0.27
				c-0.12,0.31-0.19,0.46-0.31,0.78c-0.04,0.1-0.01,0.13,0.08,0.06c0.27-0.22,0.4-0.32,0.67-0.53c0.08-0.07,0.22-0.07,0.29-0.02
				c0.22,0.18,0.34,0.27,0.56,0.46c0.07,0.06,0.12,0.03,0.1-0.07c-0.06-0.31-0.09-0.46-0.16-0.75c-0.02-0.1,0.03-0.22,0.11-0.28
				C17.12,26.74,17.25,26.65,17.5,26.51z"/>
			<path d="M20.48,27.52c0.23,0.22,0.35,0.32,0.58,0.53c0.08,0.07,0.11,0.05,0.08-0.03c-0.1-0.27-0.15-0.4-0.24-0.66
				c-0.03-0.09,0-0.18,0.07-0.21c0.22-0.08,0.32-0.12,0.54-0.19c0.07-0.02,0.05-0.07-0.04-0.09c-0.27-0.09-0.41-0.13-0.69-0.22
				c-0.09-0.03-0.19-0.12-0.21-0.21c-0.09-0.27-0.13-0.4-0.22-0.66c-0.03-0.09-0.07-0.1-0.09-0.03c-0.08,0.21-0.12,0.31-0.2,0.53
				c-0.03,0.07-0.12,0.1-0.21,0.07c-0.27-0.09-0.41-0.13-0.68-0.22c-0.09-0.03-0.1,0.01-0.03,0.08c0.22,0.22,0.33,0.33,0.55,0.56
				c0.07,0.07,0.11,0.19,0.08,0.27c-0.08,0.23-0.13,0.34-0.21,0.59c-0.03,0.08,0.01,0.12,0.09,0.08c0.23-0.11,0.34-0.16,0.56-0.25
				C20.29,27.42,20.41,27.45,20.48,27.52z"/>
			<path d="M24.79,26.97c-0.13-0.25-0.2-0.38-0.32-0.63c-0.04-0.09-0.01-0.18,0.06-0.21c0.23-0.09,0.35-0.14,0.59-0.23
				c0.08-0.03,0.06-0.07-0.04-0.09c-0.31-0.06-0.47-0.08-0.77-0.18c-0.1-0.03-0.21-0.13-0.24-0.22c-0.11-0.28-0.17-0.41-0.27-0.69
				c-0.03-0.09-0.08-0.11-0.1-0.04c-0.07,0.21-0.11,0.32-0.18,0.53c-0.02,0.07-0.12,0.09-0.21,0.06c-0.29-0.11-0.43-0.17-0.72-0.29
				c-0.09-0.04-0.11-0.01-0.03,0.08c0.24,0.24,0.36,0.37,0.61,0.61c0.08,0.08,0.13,0.2,0.11,0.27c-0.07,0.21-0.1,0.32-0.17,0.54
				c-0.02,0.07,0.02,0.11,0.09,0.09c0.22-0.07,0.33-0.11,0.55-0.18c0.07-0.02,0.2,0.02,0.29,0.1c0.26,0.23,0.39,0.33,0.67,0.52
				C24.79,27.07,24.83,27.05,24.79,26.97z"/>
			<path d="M27.47,23.5c0.07-0.05,0.06-0.09-0.04-0.09c-0.29,0.01-0.43,0.01-0.71,0c-0.09,0-0.19-0.07-0.22-0.15
				c-0.09-0.24-0.14-0.36-0.23-0.6c-0.03-0.08-0.07-0.08-0.1-0.01c-0.06,0.24-0.1,0.35-0.17,0.57c-0.02,0.07-0.11,0.12-0.2,0.1
				c-0.27-0.05-0.39-0.07-0.65-0.14c-0.08-0.02-0.1,0.01-0.03,0.07c0.21,0.19,0.32,0.29,0.54,0.46c0.07,0.06,0.11,0.15,0.09,0.21
				c-0.07,0.19-0.1,0.28-0.16,0.47c-0.02,0.06,0.01,0.09,0.08,0.06c0.2-0.09,0.3-0.13,0.51-0.22c0.07-0.03,0.18-0.02,0.26,0.03
				c0.23,0.15,0.34,0.21,0.58,0.34c0.08,0.04,0.11,0.02,0.08-0.04c-0.1-0.2-0.15-0.29-0.25-0.5c-0.03-0.07,0-0.16,0.07-0.2
				C27.13,23.74,27.24,23.66,27.47,23.5z"/>
			<path d="M29.38,19.87c0.07-0.07,0.06-0.1-0.03-0.07c-0.27,0.11-0.4,0.16-0.66,0.25c-0.08,0.03-0.17,0-0.19-0.07
				c-0.07-0.21-0.1-0.32-0.16-0.54c-0.02-0.07-0.06-0.06-0.09,0.03c-0.09,0.27-0.14,0.39-0.23,0.65c-0.03,0.08-0.12,0.17-0.2,0.19
				c-0.25,0.06-0.37,0.08-0.62,0.12c-0.08,0.01-0.09,0.05-0.03,0.09c0.19,0.11,0.28,0.16,0.48,0.26c0.06,0.03,0.09,0.12,0.06,0.2
				c-0.08,0.24-0.14,0.36-0.21,0.59c-0.02,0.07,0.01,0.09,0.07,0.03c0.2-0.17,0.31-0.27,0.52-0.46c0.07-0.06,0.18-0.1,0.25-0.07
				c0.2,0.07,0.31,0.11,0.52,0.16c0.07,0.02,0.11-0.02,0.08-0.08c-0.08-0.19-0.12-0.28-0.19-0.47c-0.02-0.06,0.01-0.17,0.09-0.24
				C29.05,20.22,29.16,20.11,29.38,19.87z"/>
			<path d="M26.15,16.69c-0.07,0.27-0.1,0.4-0.17,0.65c-0.02,0.08-0.1,0.15-0.18,0.15c-0.27,0.01-0.35,0.01-0.58,0
				c-0.08-0.01-0.09,0.03-0.02,0.08c0.19,0.16,0.28,0.24,0.48,0.38c0.06,0.04,0.1,0.13,0.08,0.21c-0.06,0.22-0.09,0.33-0.15,0.54
				c-0.02,0.07,0.01,0.09,0.07,0.05c0.18-0.14,0.27-0.21,0.45-0.36c0.06-0.05,0.16-0.06,0.22-0.02c0.19,0.11,0.29,0.17,0.49,0.27
				c0.07,0.03,0.09,0.01,0.07-0.06c-0.08-0.2-0.12-0.31-0.2-0.52c-0.03-0.07,0-0.18,0.06-0.23c0.19-0.15,0.29-0.2,0.49-0.36
				c0.07-0.05,0.05-0.09-0.03-0.08c-0.27,0.01-0.4,0.02-0.61,0.02c-0.08,0-0.16-0.05-0.19-0.12c-0.08-0.23-0.12-0.35-0.2-0.6
				C26.21,16.6,26.17,16.6,26.15,16.69z"/>
			<path d="M21.57,17.25c0.07,0.07,0.11,0.17,0.09,0.23c-0.06,0.19-0.1,0.29-0.17,0.47c-0.02,0.06,0.01,0.1,0.08,0.08
				c0.19-0.06,0.29-0.09,0.49-0.16c0.07-0.02,0.17,0.01,0.24,0.08c0.2,0.21,0.31,0.31,0.51,0.51c0.07,0.07,0.1,0.06,0.07-0.03
				c-0.08-0.25-0.11-0.37-0.2-0.62c-0.03-0.08,0.01-0.17,0.07-0.2c0.21-0.08,0.31-0.12,0.53-0.21c0.07-0.03,0.06-0.07-0.03-0.1
				c-0.27-0.07-0.39-0.11-0.66-0.19c-0.08-0.03-0.17-0.11-0.2-0.2c-0.09-0.26-0.13-0.39-0.22-0.66c-0.03-0.08-0.07-0.09-0.1-0.02
				c-0.08,0.22-0.11,0.33-0.18,0.54c-0.02,0.07-0.11,0.1-0.2,0.08c-0.26-0.08-0.39-0.11-0.66-0.19c-0.09-0.03-0.09,0.01-0.02,0.07
				C21.24,16.94,21.35,17.04,21.57,17.25z"/>
			<path d="M31.45,16.52c0.06-0.06,0.05-0.08-0.03-0.06c-0.24,0.08-0.36,0.12-0.61,0.2c-0.08,0.03-0.16,0-0.18-0.06
				c-0.06-0.18-0.09-0.27-0.14-0.46c-0.02-0.06-0.06-0.05-0.09,0.02c-0.09,0.24-0.14,0.35-0.24,0.59c-0.03,0.08-0.12,0.16-0.21,0.19
				c-0.25,0.08-0.38,0.12-0.63,0.19c-0.08,0.02-0.1,0.06-0.04,0.09c0.19,0.07,0.28,0.11,0.48,0.17c0.06,0.02,0.09,0.1,0.06,0.17
				c-0.1,0.23-0.14,0.34-0.24,0.57c-0.03,0.07,0,0.08,0.07,0.02c0.22-0.2,0.33-0.3,0.55-0.5c0.07-0.07,0.18-0.11,0.25-0.09
				c0.2,0.04,0.3,0.06,0.51,0.08c0.07,0.01,0.1-0.03,0.08-0.07c-0.08-0.15-0.11-0.22-0.19-0.38c-0.02-0.05,0.01-0.15,0.08-0.21
				C31.16,16.78,31.26,16.69,31.45,16.52z"/>
			<path d="M22.91,20.61c-0.29,0.01-3.62,0.78-6.51,2.47c-3.15,1.83-4.1,2.75-4.77,3.27c-0.18,0.14-0.31,0.14-0.34,0.06
				c-0.11-0.29-0.17-0.45-0.26-0.72c-0.03-0.08-0.1-0.07-0.14,0.04c-0.12,0.39-0.17,0.62-0.29,0.97c-0.04,0.11-0.07,0.24-0.28,0.38
				c-0.41,0.29-0.5,0.34-0.76,0.52c-0.09,0.06-0.14,0.13,0.05,0.17c0.18,0.03,0.22,0.04,0.46,0.08c0.19,0.04,0.13,0.17,0.1,0.28
				c-0.08,0.33-0.11,0.45-0.22,0.79c-0.04,0.11,0.01,0.12,0.1,0.03c0.27-0.29,0.36-0.38,0.65-0.69c0.11-0.11,0.21-0.25,0.33-0.22
				c0.28,0.05,0.32,0.06,0.71,0.13c0.18,0.03,0.18-0.05,0.13-0.16c-0.13-0.34-0.11-0.29-0.21-0.58c-0.03-0.09-0.04-0.26,0.07-0.36
				c1.66-1.61,2.34-2.14,4.62-3.63c1.78-1.16,4.15-2.09,6.57-2.74C23.05,20.67,23.07,20.6,22.91,20.61z"/>
			<path d="M2.55,23.04c0-6.7,3.74-12.71,9.76-15.67c0.18-0.09,0.25-0.31,0.17-0.49c-0.09-0.18-0.31-0.25-0.49-0.17
				C5.72,9.81,1.83,16.06,1.83,23.04c0,2.77,0.61,5.43,1.81,7.91c0.06,0.13,0.19,0.2,0.33,0.2c0.05,0,0.11-0.01,0.16-0.04
				c0.18-0.09,0.26-0.3,0.17-0.48C3.13,28.25,2.55,25.7,2.55,23.04z"/>
			<path d="M27.68,7.36c6.03,2.96,9.77,8.96,9.77,15.67c0,2.9-0.72,5.77-2.1,8.3c-0.1,0.18-0.03,0.4,0.15,0.49
				c0.05,0.03,0.11,0.04,0.17,0.04c0.13,0,0.25-0.07,0.32-0.19c1.43-2.64,2.18-5.63,2.18-8.64c0-6.99-3.9-13.24-10.18-16.32
				c-0.18-0.09-0.4-0.01-0.49,0.17S27.5,7.28,27.68,7.36z"/>
		</g>
	</g>
</g>
</svg>
